{"glyphs":{"0":{"ha":604,"x_min":-3,"x_max":589,"o":"m 560 428 q 488 231 532 317 q 397 99 444 146 q 301 28 349 51 q 211 6 254 6 q 197 6 204 6 q 29 107 78 15 q -2 245 -1 163 q 15 392 -3 328 q 54 499 32 457 q 139 625 97 576 q 229 708 182 676 q 333 758 279 742 q 401 768 369 768 q 421 767 411 768 q 449 803 432 788 q 458 807 453 807 q 467 803 464 807 q 513 763 499 779 q 571 631 557 715 q 560 428 588 533 m 435 678 q 363 713 407 713 q 346 710 354 713 q 276 670 315 706 q 203 581 238 635 q 124 383 143 488 q 129 188 104 279 q 174 117 142 146 q 218 101 193 101 q 308 142 260 101 q 407 290 367 190 q 461 461 447 390 q 435 678 490 610 z "},"1":{"ha":475,"x_min":-47,"x_max":406,"o":"m -1 17 q -12 15 -8 15 q -36 33 -29 15 q -43 114 -46 64 q -33 125 -42 125 q -31 125 -33 125 q -21 126 -26 125 l -14 126 q 25 129 4 129 q 78 125 51 129 q 147 372 94 201 q 246 646 200 543 q 201 622 229 636 q 111 588 153 599 q 99 586 104 586 q 74 610 76 586 q 85 703 69 629 q 93 714 88 714 l 94 714 l 99 713 l 104 713 q 169 719 132 713 q 247 743 219 729 q 276 756 257 747 q 303 775 290 769 q 331 779 311 779 q 397 764 369 779 q 404 757 403 763 q 403 747 406 751 q 388 711 397 739 l 383 701 q 271 413 322 551 q 169 113 200 219 l 168 106 q 211 93 185 103 l 218 92 q 258 74 238 85 q 293 51 279 63 q 310 32 307 39 q 308 22 311 26 q 275 15 307 15 q 163 21 244 15 q 94 25 107 25 q -1 17 40 25 z "},"2":{"ha":768,"x_min":67,"x_max":699,"o":"m 153 1 l 147 0 q 99 39 126 0 q 69 92 72 78 q 78 107 68 104 q 127 137 89 113 q 238 215 165 161 q 376 326 311 269 q 497 457 442 383 q 563 592 551 531 q 564 601 564 596 q 565 611 565 608 q 560 642 564 635 q 517 669 549 665 q 504 671 510 671 q 429 637 463 671 q 390 576 396 603 q 349 561 386 561 q 292 567 326 561 q 278 586 278 568 l 278 594 q 279 613 278 606 q 286 642 283 628 q 296 664 289 650 l 303 676 q 317 696 311 690 q 402 763 346 733 q 524 793 458 792 l 532 793 q 661 744 615 793 l 667 738 q 683 711 679 721 l 686 701 q 696 672 694 682 q 699 632 697 653 q 693 596 697 618 l 692 590 q 625 454 675 522 q 582 400 603 424 q 539 351 560 374 q 400 224 483 293 q 288 138 347 179 l 310 138 q 496 121 396 138 q 608 81 560 111 q 631 65 621 74 q 647 49 642 57 q 653 38 651 42 l 653 36 l 650 31 q 631 24 647 24 q 606 25 624 24 l 593 26 q 531 31 575 28 q 489 33 503 32 q 422 36 461 36 q 315 31 367 36 q 153 1 215 21 z "},"3":{"ha":632,"x_min":65,"x_max":632,"o":"m 281 10 q 217 0 247 0 q 181 4 197 0 q 100 53 131 15 q 72 111 82 76 q 75 143 67 139 l 76 143 q 99 125 86 143 q 132 86 118 99 q 203 61 161 61 q 246 69 224 61 q 346 135 299 88 q 415 225 393 182 q 436 283 431 256 q 429 315 438 306 q 408 322 422 322 q 344 304 389 322 q 315 294 321 294 q 285 317 306 297 q 265 351 265 338 q 274 365 264 361 q 347 406 311 383 q 426 465 382 429 q 498 549 471 501 q 525 649 525 597 q 515 678 525 665 q 488 692 506 692 q 467 688 478 692 q 390 651 418 669 q 333 625 351 625 q 322 628 328 625 q 287 648 308 632 q 254 682 265 664 q 258 700 249 693 q 275 714 263 704 q 301 735 294 729 q 422 792 363 774 q 490 803 458 803 q 521 800 506 803 q 547 793 539 797 l 560 789 l 574 781 q 614 733 600 764 q 627 689 624 713 q 627 644 631 665 q 616 601 624 622 q 596 558 608 579 q 570 519 583 538 q 540 483 557 500 q 510 451 524 465 q 481 424 496 438 q 523 403 507 418 q 543 380 539 389 q 550 356 547 371 q 551 306 554 335 l 550 299 q 517 206 542 254 q 399 67 474 121 q 281 10 346 25 z "},"4":{"ha":732,"x_min":65,"x_max":664,"o":"m 385 11 q 346 8 379 8 q 313 8 331 8 q 289 21 297 10 q 283 46 281 32 q 339 236 319 181 q 306 229 326 233 l 279 225 q 154 192 197 208 q 119 183 132 183 q 92 194 103 183 q 71 271 85 204 q 85 304 65 292 q 135 345 107 319 q 211 422 164 371 q 317 558 258 472 q 432 750 375 644 q 489 803 457 799 q 496 803 493 803 q 539 794 514 803 q 579 772 564 785 q 582 758 582 768 q 550 710 579 753 q 414 514 446 557 q 235 325 354 436 q 376 338 308 336 q 444 492 408 415 q 524 628 478 564 q 582 690 567 690 l 585 690 l 590 685 q 533 488 599 669 q 481 331 506 414 q 608 300 576 314 q 663 258 660 275 l 663 257 l 661 253 q 624 242 660 242 q 611 243 622 242 q 511 249 551 249 q 456 246 479 249 q 421 72 422 88 q 385 11 413 24 z "},"5":{"ha":557,"x_min":-44,"x_max":551,"o":"m 201 7 q 182 6 193 6 q 167 7 174 6 q 68 40 115 11 q 15 83 39 58 q -19 197 -43 150 q 15 226 -12 213 q 74 244 43 240 l 75 244 q 85 242 82 244 q 101 201 89 222 q 176 132 129 153 q 204 125 190 125 l 206 125 l 207 124 q 215 125 208 124 q 222 126 219 125 q 242 129 236 126 q 319 168 285 138 q 352 206 338 185 q 376 249 367 228 q 390 292 385 271 q 394 332 394 314 q 390 367 394 350 l 386 381 l 378 393 q 363 415 374 403 q 346 432 356 424 q 258 464 307 464 q 189 451 221 464 q 143 426 157 438 q 107 392 129 414 q 74 361 85 368 q 71 361 72 361 q 61 367 64 361 q 52 416 51 376 q 64 494 53 456 q 117 633 83 560 q 163 728 136 678 q 151 744 149 735 q 183 763 153 754 q 219 790 196 790 q 226 789 224 790 l 233 789 q 397 771 335 771 q 501 783 438 771 l 508 785 q 519 785 515 785 q 547 763 542 785 q 546 717 550 751 q 532 667 542 682 q 518 657 526 658 q 486 656 507 656 q 389 663 440 656 q 288 681 347 667 l 282 682 q 260 669 269 682 q 218 608 236 636 q 154 499 181 551 q 225 533 186 522 q 285 540 254 540 q 371 522 332 540 q 403 504 392 513 q 435 476 421 493 q 461 443 444 468 l 464 439 q 486 385 479 417 q 488 299 493 343 q 465 212 483 256 q 419 129 447 168 q 300 33 371 65 q 267 21 283 25 l 256 18 q 233 11 240 13 l 201 7 z "},"6":{"ha":535,"x_min":-37,"x_max":499,"o":"m 335 63 q 294 33 311 44 q 238 10 278 22 q 154 -3 199 -3 q 125 -1 139 -3 q 39 32 75 3 q -11 108 3 61 q 1 310 -37 201 q 174 604 49 453 q 333 756 243 690 q 429 810 408 810 l 432 810 l 435 808 l 435 807 l 438 804 q 429 783 439 796 q 388 736 419 771 l 381 729 q 257 581 317 658 q 204 506 232 549 q 208 507 206 507 q 306 531 258 529 q 314 531 310 531 q 411 493 367 531 q 468 401 449 464 q 443 193 497 297 q 335 63 397 113 m 161 361 q 135 376 150 364 q 114 318 121 344 q 104 286 110 307 l 103 279 q 99 253 100 269 l 97 244 q 126 107 86 151 q 190 78 153 78 q 201 79 196 78 q 274 117 229 82 q 347 206 317 151 q 371 269 364 233 q 368 338 375 307 q 343 389 358 374 q 307 408 322 408 q 297 410 301 410 q 240 390 276 410 q 172 360 190 360 q 161 361 167 360 z "},"7":{"ha":694,"x_min":61,"x_max":631,"o":"m 76 -28 l 71 -24 q 92 70 63 -8 q 164 228 121 149 q 315 488 228 344 q 439 681 376 588 q 161 657 356 671 q 153 657 157 657 q 114 682 122 657 q 110 776 101 714 q 119 788 111 788 q 133 786 125 786 l 144 786 q 374 782 172 785 l 410 782 q 543 779 539 781 q 581 762 557 779 q 622 722 606 744 q 621 706 629 713 q 582 659 617 701 q 499 555 547 617 q 419 449 451 493 q 251 207 314 304 q 78 -28 97 -28 l 76 -28 z "},"8":{"ha":525,"x_min":-25,"x_max":503,"o":"m 157 -3 l 149 -3 q 21 56 67 0 q -21 188 -24 107 q 18 317 -18 254 q 136 442 60 389 q 96 515 107 471 q 107 640 82 574 q 149 710 122 678 q 188 747 168 732 q 240 775 211 765 q 343 797 294 797 l 351 797 q 464 744 424 793 q 499 626 503 694 q 457 514 493 568 q 381 432 425 467 q 389 424 385 429 q 444 325 431 383 q 431 179 460 256 q 383 99 413 135 q 339 56 363 74 q 279 24 311 33 q 157 -3 215 -3 m 304 397 q 218 360 265 389 q 138 292 171 331 q 99 223 111 263 q 100 147 88 183 q 150 101 113 113 q 185 96 165 96 q 232 103 206 96 q 272 115 246 106 q 300 132 285 119 q 338 174 325 151 q 353 360 397 283 q 328 387 342 378 q 310 396 315 396 l 304 396 l 304 397 m 381 658 q 314 699 368 699 q 282 694 299 699 q 249 685 271 692 q 228 672 240 681 q 197 639 210 658 q 169 557 174 601 q 182 479 165 517 q 188 468 183 475 q 344 551 301 510 q 379 603 368 574 q 385 629 385 619 q 381 658 385 643 z "},"9":{"ha":536,"x_min":4,"x_max":540,"o":"m 74 -19 l 69 -19 l 67 -17 q 74 6 64 -7 q 115 54 83 19 l 122 61 q 246 208 186 131 q 299 285 272 242 q 294 282 299 285 q 197 260 243 260 q 189 260 193 260 q 92 296 136 260 q 35 389 54 325 q 60 597 6 493 q 168 726 106 676 q 208 756 192 746 q 265 780 225 767 q 349 793 304 793 q 378 792 363 793 q 464 758 428 788 q 514 682 500 729 q 501 479 540 589 q 329 186 454 338 q 169 35 260 100 q 74 -19 94 -19 m 376 682 q 313 711 351 711 q 301 711 307 711 q 229 674 274 707 q 156 583 186 639 q 132 521 140 557 q 135 453 128 482 q 160 401 144 417 q 196 382 181 382 q 206 381 201 381 q 263 400 226 381 q 331 431 313 431 q 342 429 336 431 q 369 413 353 426 l 375 426 q 389 471 385 457 q 399 504 393 482 l 400 511 q 404 538 403 521 l 406 546 q 376 682 417 638 z "},"\u0000":{"ha":0,"x_min":0,"x_max":0,"o":""},"\n":{"ha":0,"x_min":0,"x_max":0,"o":""},"\r":{"ha":0,"x_min":0,"x_max":0,"o":""}," ":{"ha":444,"x_min":0,"x_max":0,"o":""},"!":{"ha":254,"x_min":-39,"x_max":297,"o":"m 276 861 q 282 810 297 853 l 281 806 q 229 651 272 778 q 161 447 172 485 q 121 331 149 392 q 72 269 93 269 l 71 269 q 46 285 54 272 q 54 422 28 314 q 61 449 60 442 q 111 649 69 489 q 156 828 149 796 q 192 874 164 869 q 206 875 197 875 q 276 861 240 875 m 74 160 q 83 147 79 154 q 88 135 86 140 q 89 129 89 131 q 89 106 92 117 l 88 101 l 86 99 l 81 99 q 42 44 76 61 q 19 38 32 39 q 11 36 15 36 l 7 36 q -8 40 -1 38 q -35 69 -26 50 q -39 90 -37 79 q -37 96 -39 92 l -37 100 q 1 169 -33 144 q 15 175 8 174 q 24 176 18 176 l 26 178 l 33 178 q 74 160 57 178 z "},"\"":{"ha":450,"x_min":67,"x_max":383,"o":"m 178 793 q 210 778 200 793 q 214 754 218 768 l 158 588 q 148 571 156 578 q 129 560 140 564 q 106 556 118 556 q 76 568 86 556 q 69 589 68 576 l 93 756 q 102 774 94 765 q 122 788 110 783 q 146 793 133 793 l 178 793 m 375 778 q 379 754 383 768 l 324 588 q 313 571 321 578 q 294 560 304 564 q 271 556 283 556 q 242 568 251 556 q 235 589 233 576 l 258 756 q 276 782 261 771 q 311 793 292 793 l 343 793 q 375 778 365 793 z "},"#":{"ha":756,"x_min":69,"x_max":728,"o":"m 726 432 q 676 412 721 424 q 579 394 632 400 q 558 304 572 357 l 615 310 l 622 311 q 636 311 629 311 q 674 296 665 311 q 676 265 676 289 q 669 221 675 240 q 663 215 668 215 q 653 217 658 217 l 632 215 l 622 215 q 533 217 585 215 q 483 65 511 142 q 439 18 467 24 q 432 18 435 18 q 344 38 389 18 q 340 43 340 40 l 339 43 l 340 46 q 351 67 344 51 q 356 75 354 74 l 363 89 q 425 222 400 167 l 424 222 q 299 228 371 222 q 292 204 297 221 q 240 69 269 138 q 201 0 211 0 l 201 1 q 221 238 172 58 q 124 257 169 242 q 69 286 72 275 q 143 296 71 296 q 192 296 151 296 q 240 296 232 296 q 268 383 249 329 q 226 381 253 381 q 178 382 193 381 q 129 403 136 382 q 128 415 128 406 q 129 433 128 424 q 134 456 131 443 q 142 478 138 468 q 147 483 143 483 q 171 479 154 481 l 178 479 q 268 471 193 478 l 300 468 q 361 618 336 564 q 411 668 381 664 q 415 668 413 668 q 492 643 451 668 q 496 639 496 642 l 496 638 l 494 635 q 482 614 490 629 q 476 604 478 606 q 399 457 433 528 q 465 455 425 457 q 511 453 506 453 q 579 643 564 643 q 585 640 583 643 q 599 577 596 628 q 593 465 603 526 l 590 449 q 592 449 592 449 q 594 449 593 449 q 677 445 632 449 q 726 436 722 442 l 726 432 m 457 300 q 489 388 476 351 q 363 383 433 385 q 325 293 331 307 q 360 295 342 294 q 402 297 379 296 q 436 299 425 299 l 457 300 z "},"$":{"ha":519,"x_min":-58,"x_max":522,"o":"m 500 735 q 514 617 521 681 q 444 440 504 542 q 413 433 433 422 q 338 492 379 451 q 336 496 335 494 q 349 508 336 496 q 375 535 361 521 q 406 572 389 549 q 435 619 424 596 q 456 718 458 668 q 378 692 417 707 q 186 576 265 647 q 126 505 151 547 q 114 418 101 463 q 136 378 118 400 q 182 336 154 357 q 233 299 210 315 q 285 265 257 283 q 322 240 314 246 q 365 195 351 221 q 378 146 379 169 q 368 100 376 122 q 347 62 360 78 q 324 38 335 46 q 260 6 293 17 q 201 -8 233 -3 l 201 -12 q 185 -81 192 -57 q 169 -137 179 -104 q 147 -185 158 -171 q 124 -197 136 -200 q 112 -185 115 -196 q 109 -152 108 -175 q 112 -111 110 -129 q 119 -56 114 -93 q 125 -12 122 -31 q -11 19 56 -8 q -53 69 -57 42 q -35 107 -51 81 q -3 150 -19 133 q 3 151 0 153 q 8 147 3 151 q 20 137 14 142 q 37 126 26 132 q 61 113 47 119 q 92 100 75 106 q 189 86 140 85 q 231 92 208 86 q 274 110 254 97 q 299 138 294 122 q 271 178 301 153 q 199 231 240 204 q 115 297 158 258 q 54 369 71 336 q 43 486 28 424 q 101 599 58 542 q 251 740 160 675 q 252 747 251 742 q 253 754 253 751 l 278 878 q 301 926 285 911 q 336 939 317 942 q 362 922 351 936 q 369 883 372 907 q 354 803 368 874 q 393 821 378 814 q 451 818 435 838 q 475 783 457 814 q 500 735 493 753 m 260 43 q 247 40 257 42 q 238 38 238 38 q 189 29 196 33 q 200 28 190 28 q 221 31 210 29 q 243 35 232 32 q 260 43 254 39 m 163 46 q 176 44 167 44 q 190 46 186 44 q 221 50 199 46 q 247 57 243 54 q 242 56 246 57 q 232 55 238 56 q 219 53 226 54 q 204 50 211 51 q 163 46 163 46 m 229 75 q 199 67 200 69 q 209 66 201 65 q 219 68 217 67 q 227 69 219 68 q 241 72 235 71 q 253 76 247 74 q 258 82 258 79 q 229 75 256 82 m 193 68 q 178 69 192 69 q 163 67 165 68 l 172 64 q 183 65 174 65 q 193 68 192 65 m 240 17 q 268 28 260 24 q 249 24 264 28 q 231 21 233 21 q 189 15 225 17 q 150 11 153 13 q 203 11 176 8 q 240 17 215 13 m 286 694 q 263 681 271 688 q 256 676 261 679 q 244 668 250 672 q 233 660 239 664 q 222 651 226 656 q 217 646 218 647 q 255 671 225 650 q 286 694 285 692 m 188 665 q 201 675 189 667 q 217 686 214 683 q 225 692 218 688 q 240 703 232 697 q 257 713 249 708 q 271 723 265 718 q 278 731 276 728 q 233 704 269 728 q 188 665 197 681 m 200 656 q 218 668 201 656 q 256 696 251 686 q 228 680 250 694 q 200 656 206 665 m 214 619 q 242 637 218 619 q 265 658 265 654 q 247 648 249 650 q 237 640 246 646 q 221 628 228 635 q 214 619 214 622 m 271 660 q 278 662 272 658 q 291 670 285 665 q 297 676 297 675 q 288 672 288 675 q 278 667 286 672 q 271 660 269 663 m 419 554 q 422 559 419 556 q 422 565 425 563 q 417 560 421 565 q 415 551 414 554 l 419 554 m 426 565 q 432 574 432 572 q 435 579 432 575 q 439 587 438 583 q 439 593 440 590 q 430 581 436 593 q 426 565 424 568 m 442 551 q 444 558 442 553 q 450 569 447 564 q 451 576 453 575 q 442 559 450 575 q 433 540 433 543 q 442 551 440 549 m 464 564 q 457 553 461 561 q 454 542 453 544 q 465 556 458 544 q 469 574 471 567 q 464 564 467 569 m 460 518 q 475 540 464 521 q 485 568 486 558 q 476 553 476 556 q 471 542 475 550 q 463 528 467 535 q 460 518 460 521 z "},"%":{"ha":869,"x_min":69,"x_max":832,"o":"m 732 847 l 718 824 q 374 276 500 475 q 231 57 249 78 q 183 15 207 29 q 149 0 160 0 l 147 0 l 144 1 q 351 378 140 13 q 606 810 561 743 q 671 871 643 868 q 708 874 690 874 l 724 872 q 735 867 731 872 q 732 847 739 857 m 507 596 q 443 494 467 535 q 457 518 454 513 q 485 561 461 525 q 507 596 499 583 m 461 503 q 485 540 472 519 q 461 503 471 519 m 469 493 q 456 468 458 474 q 469 493 457 472 m 444 426 q 456 444 446 429 q 479 482 465 460 q 500 517 493 504 q 490 501 492 506 q 474 476 488 497 q 444 426 446 433 m 471 488 q 514 556 472 490 l 510 550 q 471 488 481 511 m 519 544 q 538 574 521 546 q 535 571 536 572 q 533 568 535 569 q 519 544 519 547 m 542 581 q 543 583 542 581 q 542 581 542 581 m 190 463 q 182 463 186 463 q 88 519 115 468 q 70 598 71 551 q 79 681 69 644 q 101 742 89 718 q 150 814 126 786 q 201 861 175 843 q 261 890 231 881 q 299 896 282 896 q 313 894 306 896 q 328 917 318 907 q 332 918 329 918 l 336 917 q 363 893 354 901 q 394 818 388 867 q 389 703 404 763 q 301 522 357 581 q 190 463 244 463 m 154 565 q 176 526 160 543 q 200 518 186 518 q 246 540 221 518 q 296 620 275 567 q 324 711 317 674 q 308 829 338 793 q 272 847 294 847 q 264 846 268 847 q 194 783 232 840 q 185 765 190 775 q 172 738 179 756 q 158 702 164 721 q 149 662 153 683 q 147 615 146 640 q 154 565 147 590 m 821 407 q 815 292 831 351 q 727 110 783 169 q 617 50 671 50 q 608 51 613 50 q 514 108 542 57 q 497 187 497 140 q 506 270 496 233 q 528 331 515 307 q 576 403 553 375 q 629 450 601 432 q 688 479 657 469 q 726 485 708 485 q 739 483 732 485 q 754 506 744 496 q 758 507 756 507 l 760 507 l 763 506 q 789 482 781 492 q 821 407 814 456 m 750 300 q 735 418 765 382 q 699 436 721 436 q 690 435 694 436 q 621 372 658 429 q 608 349 615 361 q 592 314 601 338 q 578 267 582 290 q 573 213 575 244 q 581 154 571 182 q 603 115 586 132 q 626 107 613 107 q 672 129 647 107 q 722 208 701 156 q 750 300 743 261 z "},"&":{"ha":610,"x_min":-36,"x_max":544,"o":"m 393 682 q 415 709 408 692 q 417 742 421 726 q 385 763 410 763 q 374 761 379 763 q 329 528 360 667 q 313 451 322 493 q 382 426 339 439 q 396 421 396 422 q 396 417 397 421 q 388 406 394 413 q 373 394 382 400 q 350 383 364 388 q 321 379 336 379 l 318 379 q 290 360 296 379 q 266 258 278 307 q 239 148 254 208 q 218 69 224 88 q 228 69 222 69 q 238 68 233 68 q 246 68 242 68 q 257 67 251 67 q 410 110 326 67 l 443 126 l 468 142 q 493 153 488 153 l 494 153 q 496 150 496 150 q 497 149 497 150 q 450 82 500 132 q 276 -7 375 8 q 239 -10 258 -10 q 189 -4 213 -10 q 170 -56 181 -31 q 151 -96 160 -81 q 139 -111 143 -111 l 138 -111 l 136 -110 q 142 -57 133 -108 q 147 -18 146 -29 l 151 6 q 131 13 144 7 q 48 72 86 32 q -6 167 10 111 q 22 368 -35 272 q 128 465 61 431 q 168 479 150 475 q 159 486 165 482 q 141 511 153 490 q 122 558 129 532 q 119 651 111 604 q 158 750 129 706 q 239 828 192 797 q 313 864 276 851 q 319 910 315 897 q 331 929 322 922 q 354 936 339 936 q 392 926 371 936 q 396 917 397 924 q 390 876 393 907 l 390 865 q 456 853 419 867 q 504 816 482 840 q 533 767 526 792 q 535 688 544 726 q 496 615 525 642 q 456 601 479 601 q 415 622 438 601 q 386 661 392 642 q 393 682 383 675 m 185 181 q 222 369 214 325 q 201 365 213 368 q 129 325 158 354 q 97 274 110 306 q 86 210 85 243 q 105 147 88 178 q 150 99 122 117 q 167 89 156 96 q 185 181 169 100 m 251 493 q 293 743 286 689 l 286 740 q 257 722 264 728 q 206 649 218 693 q 210 556 193 604 q 251 493 221 524 z "},"'":{"ha":179,"x_min":54,"x_max":206,"o":"m 197 778 q 200 754 204 768 l 144 588 q 126 565 140 574 q 93 556 111 556 q 63 568 74 556 q 57 589 54 576 l 81 756 q 90 774 82 765 q 108 788 97 783 q 132 793 119 793 l 164 793 q 197 778 186 793 z "},"(":{"ha":492,"x_min":8,"x_max":425,"o":"m 421 886 q 418 875 425 878 q 389 853 411 872 l 381 844 q 277 731 336 806 q 175 569 218 656 q 106 372 131 485 q 97 222 93 304 q 163 0 110 104 q 193 -54 174 -21 q 219 -108 221 -101 q 214 -111 217 -111 q 135 -47 200 -111 q 69 46 96 0 l 63 64 q 24 175 31 135 l 22 181 q 13 251 13 225 l 10 300 q 11 335 10 311 q 13 353 13 349 q 67 585 18 453 q 169 786 99 672 q 263 910 222 865 q 349 968 313 968 q 358 967 353 968 q 392 940 372 965 q 421 886 413 915 m 68 492 q 80 529 71 504 q 90 557 89 554 q 125 636 101 586 q 149 681 138 660 q 113 611 128 646 q 68 492 85 556 m 94 532 q 114 576 97 542 q 119 590 115 581 q 125 604 124 599 l 108 567 q 90 521 99 547 l 94 532 m 140 563 q 143 571 143 571 q 132 546 133 550 q 125 524 131 542 q 104 465 110 483 q 110 481 107 471 q 124 520 118 504 q 140 563 129 536 m 133 576 q 153 617 142 593 q 144 603 146 607 q 117 539 126 568 q 133 576 122 553 m 158 599 q 160 603 158 599 q 165 613 163 607 q 172 624 168 618 q 178 638 175 631 q 185 650 182 644 q 179 642 181 643 q 172 628 179 639 q 158 599 157 601 z "},")":{"ha":513,"x_min":67,"x_max":483,"o":"m 479 606 l 482 558 q 481 522 482 546 q 479 504 479 508 q 425 272 474 406 q 322 71 393 185 q 229 -53 269 -8 q 143 -111 179 -111 q 133 -110 139 -111 q 99 -83 119 -108 q 71 -29 79 -57 q 72 -18 67 -21 q 103 4 81 -15 l 111 13 q 215 126 156 51 q 317 288 274 201 q 386 486 361 372 q 394 635 399 553 q 329 857 382 753 q 299 913 318 878 q 272 965 271 960 q 278 968 275 968 q 357 904 292 968 q 422 811 396 857 l 429 794 q 468 682 461 724 l 469 676 q 479 606 479 633 m 397 325 q 378 281 394 317 q 363 243 367 253 q 381 282 367 253 l 383 290 q 401 336 393 310 l 397 325 m 351 294 q 342 269 342 271 q 351 293 344 276 q 360 313 358 310 q 367 333 361 315 q 386 390 382 372 q 382 376 385 385 q 368 338 372 350 q 351 294 363 322 m 358 282 q 338 239 349 261 q 347 254 346 251 q 372 311 361 282 q 358 282 365 296 m 319 231 q 331 250 328 243 q 304 201 311 218 q 310 211 307 206 q 313 215 313 215 q 319 231 313 218 m 379 246 q 418 343 401 289 q 401 300 406 310 q 367 221 392 271 q 336 161 349 189 q 347 181 339 167 q 363 213 354 196 q 379 246 372 229 z "},"*":{"ha":446,"x_min":68,"x_max":378,"o":"m 375 753 l 376 750 q 367 733 378 744 q 340 713 356 721 q 315 700 333 710 q 279 680 290 685 q 274 663 268 675 q 306 563 311 567 q 300 561 304 561 q 257 583 281 561 q 208 640 239 600 l 200 631 q 164 599 171 606 q 108 567 129 567 q 103 568 104 567 q 154 664 92 578 l 163 676 q 165 683 165 679 q 160 690 164 688 l 154 693 q 107 721 115 717 q 83 737 94 728 q 69 751 71 746 l 69 753 l 69 756 q 101 765 74 765 q 122 763 113 765 l 183 749 q 188 747 186 747 q 200 757 196 747 l 206 772 q 224 822 221 814 q 251 861 235 861 q 260 858 256 861 q 265 825 267 849 q 264 804 265 822 q 260 757 261 771 q 263 749 260 751 q 271 746 265 746 l 300 751 q 333 758 325 757 q 351 760 342 760 q 375 754 369 760 l 375 753 z "},"+":{"ha":679,"x_min":68,"x_max":613,"o":"m 610 463 q 606 430 613 454 q 589 389 600 406 q 564 369 578 371 q 483 367 547 367 q 396 367 406 367 q 385 322 392 350 q 376 285 379 293 q 350 186 365 233 q 324 139 335 139 l 322 139 q 314 143 318 139 q 301 167 307 151 q 293 208 296 182 q 293 268 290 235 q 306 376 296 299 l 226 382 q 128 397 179 386 q 71 418 76 408 l 69 419 l 69 422 q 121 448 69 435 q 226 464 172 461 q 318 468 261 465 q 326 550 321 500 q 333 611 332 600 q 363 658 336 649 q 446 669 390 669 q 463 669 456 669 q 469 667 468 669 q 465 643 468 657 q 464 633 464 636 q 424 471 458 601 q 567 483 556 482 q 578 485 572 485 q 610 463 604 485 m 349 465 q 354 499 353 490 q 340 419 343 447 q 344 440 344 436 q 349 465 344 443 m 356 431 q 363 464 360 443 q 356 428 357 443 q 356 431 356 429 m 413 426 q 418 426 414 426 q 413 426 415 426 m 408 411 l 408 410 l 414 411 l 408 411 m 369 415 q 375 451 369 418 q 369 415 369 419 m 376 431 q 376 439 375 432 q 381 458 378 446 q 385 475 383 469 l 382 468 q 377 447 379 463 q 376 431 375 432 m 382 396 q 384 408 382 397 q 388 434 386 419 q 392 456 390 449 q 388 442 388 444 q 385 425 388 439 q 382 396 379 399 m 396 471 q 400 497 399 483 q 399 493 399 493 q 397 485 399 492 q 396 471 394 472 m 425 407 q 436 407 432 407 l 418 408 q 407 408 415 408 q 425 407 413 407 m 436 440 q 464 442 457 440 q 447 440 460 440 q 430 440 442 440 q 417 440 418 440 l 415 438 l 418 440 l 436 440 z "},",":{"ha":194,"x_min":-119,"x_max":100,"o":"m 88 143 q 99 113 100 129 q 60 10 96 60 q -19 -60 32 -32 q -79 -76 -46 -76 l -83 -75 q -108 -71 -97 -75 q -118 -58 -117 -67 q -75 -8 -118 -42 q -67 -1 -68 -3 q -29 50 -39 21 q -19 106 -17 79 q -4 149 -22 139 q 42 161 19 161 q 88 143 71 161 z "},"-":{"ha":603,"x_min":68,"x_max":542,"o":"m 406 313 q 435 314 406 313 q 488 315 464 315 q 526 299 513 315 q 540 261 539 283 q 531 226 540 242 q 506 208 522 210 q 472 208 494 208 q 271 215 419 208 q 214 218 221 218 q 153 224 185 219 q 99 235 122 229 q 71 247 76 240 l 69 250 q 71 257 69 253 q 119 282 81 268 q 200 299 158 296 q 288 306 228 301 q 406 313 347 310 m 344 232 q 363 233 360 232 q 357 233 360 233 q 351 233 354 233 q 346 233 347 233 q 341 233 343 233 q 331 233 339 233 q 317 233 321 233 q 306 232 307 233 q 311 233 307 233 q 326 233 314 233 q 344 232 338 232 m 358 263 q 372 263 368 263 q 367 263 371 263 q 353 263 364 263 q 336 264 342 264 l 333 264 q 335 264 335 264 q 358 263 343 263 m 383 243 l 367 244 q 351 244 363 244 q 336 243 339 244 q 340 244 336 244 q 358 244 344 244 q 376 243 371 243 q 383 243 381 243 m 378 231 q 380 231 378 231 q 385 231 382 231 q 390 231 388 231 q 389 231 390 231 q 388 231 388 231 q 383 231 385 231 q 381 231 382 231 q 374 231 375 231 q 369 229 369 231 q 372 231 369 231 q 378 231 374 231 m 388 275 q 406 278 403 275 q 394 276 404 276 q 370 277 389 276 q 342 278 351 278 q 321 276 329 278 q 324 276 322 276 q 332 276 326 276 q 340 276 338 276 q 349 276 344 276 q 364 276 353 276 q 388 275 381 275 z "},".":{"ha":178,"x_min":-46,"x_max":86,"o":"m 82 129 q 82 106 85 117 l 81 101 l 79 99 l 74 99 q 35 44 69 61 q 13 38 25 39 q 4 36 8 36 l 0 36 q -15 40 -8 38 q -42 69 -33 50 q -46 90 -44 79 q -44 96 -46 93 l -44 100 q -6 169 -40 144 q 8 175 1 174 q 17 176 11 176 l 19 178 l 26 178 q 67 160 50 178 q 74 151 71 156 q 78 141 76 146 q 81 133 81 136 q 82 129 82 129 z "},"/":{"ha":481,"x_min":-74,"x_max":414,"o":"m 407 832 q 408 821 413 826 q 392 790 403 814 l 385 779 q 328 679 368 750 q 92 253 131 328 q -3 84 47 168 q -62 0 -54 0 l -64 0 q -48 94 -72 13 q 15 261 -24 175 q 268 803 115 489 q 325 867 297 863 q 328 867 326 867 q 366 857 342 867 q 407 832 390 847 m 207 603 q 150 492 171 533 q 164 517 161 511 q 185 558 167 524 q 207 603 199 586 m 193 517 q 169 468 171 475 q 193 517 171 472 m 168 499 q 192 546 178 517 q 168 499 178 519 m 165 496 q 151 463 154 472 l 165 496 m 165 429 q 175 449 167 432 q 194 487 183 465 q 210 521 204 508 q 201 503 203 507 q 188 478 199 499 q 165 429 165 435 m 183 489 q 218 558 183 490 l 213 550 q 203 531 210 544 q 190 505 196 518 q 183 489 185 492 m 225 546 q 228 553 225 546 q 237 569 232 560 q 244 585 242 579 q 242 581 242 582 q 236 568 242 579 q 225 546 225 549 z "},":":{"ha":214,"x_min":-47,"x_max":210,"o":"m 65 160 q 74 147 71 154 q 79 135 78 140 q 81 129 81 131 q 81 106 83 117 l 79 101 l 78 99 l 72 99 q 33 44 68 61 q 11 38 24 39 q 3 36 7 36 l -1 36 q -17 40 -10 38 q -43 69 -35 50 q -47 90 -46 79 q -46 96 -47 92 l -46 100 q -7 169 -42 144 q 7 175 0 174 q 15 176 10 176 l 18 178 l 25 178 q 65 160 49 178 m 206 589 q 206 565 208 576 l 204 561 l 203 558 l 197 558 q 158 504 194 521 q 136 497 149 499 q 128 497 132 497 l 124 497 q 108 501 115 497 q 82 529 90 510 q 79 550 79 539 q 79 556 79 553 l 81 560 q 86 584 82 572 q 95 603 90 596 q 106 617 100 611 q 114 626 111 624 q 118 629 117 629 q 132 635 125 633 q 140 636 136 636 l 144 638 l 151 638 q 190 619 174 638 q 199 608 196 615 q 205 595 203 600 q 206 589 207 590 z "},";":{"ha":218,"x_min":-124,"x_max":211,"o":"m 42 160 q 89 140 72 160 q 99 108 101 126 q 57 8 94 57 q -25 -60 26 -33 q -82 -74 -51 -74 q -89 -72 -86 -74 q -114 -67 -103 -72 q -124 -54 -122 -62 q -79 -6 -124 -37 q -69 1 -71 0 q -31 51 -42 22 q -19 107 -18 79 q -17 131 -21 117 q -3 149 -12 144 q 42 160 19 160 m 207 589 q 207 565 210 576 l 206 561 l 204 558 l 197 558 q 160 504 194 521 q 138 497 150 499 q 129 497 133 497 l 125 497 q 108 501 117 497 q 83 529 92 510 q 79 550 81 539 q 81 556 79 553 l 82 560 q 93 597 83 579 q 109 622 103 615 q 119 629 115 628 q 133 635 126 633 q 142 636 136 636 l 144 638 l 151 638 q 192 619 175 638 q 199 610 196 615 q 203 601 201 606 q 206 592 206 596 q 207 589 207 589 m 133 553 q 135 556 135 553 q 131 550 131 553 l 133 553 m 154 551 q 151 549 153 549 q 147 539 146 543 q 149 543 147 540 l 154 551 m 150 556 q 148 551 150 554 q 144 546 146 549 q 143 542 143 543 q 147 549 147 547 q 150 556 150 551 m 154 531 q 161 539 158 535 q 157 536 157 536 q 149 528 157 533 q 142 521 143 522 q 147 525 143 522 q 154 531 151 528 m 165 546 q 167 549 165 546 q 165 546 165 547 z "},"<":{"ha":556,"x_min":-17,"x_max":503,"o":"m 458 604 q 481 569 467 596 q 501 515 494 542 q 501 508 503 511 q 479 500 493 506 l 471 497 q 438 485 460 493 q 306 436 353 456 q 140 364 193 393 l 118 351 q 192 322 149 343 q 304 264 235 301 q 342 244 335 249 q 429 192 386 224 q 475 150 472 161 l 476 149 l 475 146 q 451 139 474 139 q 324 165 397 139 l 297 175 q 168 219 213 206 q 22 256 88 244 q 1 263 8 258 q -10 274 -7 268 q -14 288 -12 279 q -13 331 -17 300 q -1 386 -10 361 q 169 483 -1 389 q 244 524 219 510 q 401 607 318 565 q 433 615 421 615 q 458 604 447 615 m 197 256 q 157 271 172 271 l 157 272 l 156 269 q 177 263 161 269 q 200 254 193 257 q 197 256 199 256 m 164 290 l 171 286 q 203 275 189 276 q 194 278 201 275 q 178 284 188 281 q 164 290 169 288 m 185 276 q 215 267 213 267 q 185 276 214 267 m 239 274 q 228 278 239 274 q 206 287 218 282 q 186 293 193 292 q 197 288 196 289 q 214 282 200 288 q 239 274 235 274 m 172 300 q 147 308 161 306 q 151 308 149 308 q 153 307 153 307 q 161 304 154 307 q 172 300 169 300 m 165 254 q 133 265 143 263 q 133 265 133 265 q 201 239 182 246 q 185 246 189 246 q 165 254 182 247 m 310 519 q 233 483 260 499 q 252 492 249 490 q 279 506 256 494 q 310 519 300 515 m 250 476 q 282 492 263 481 q 247 475 261 483 q 250 476 249 476 m 278 472 q 244 456 247 458 q 278 472 246 457 m 232 432 q 240 435 233 432 q 254 443 246 439 q 272 452 263 447 q 288 460 282 457 q 274 455 276 457 q 260 447 272 453 q 232 432 233 435 m 258 458 q 301 479 258 458 l 294 478 q 274 468 288 475 q 258 458 260 461 m 303 465 q 313 470 303 465 q 326 478 322 475 q 322 476 324 476 q 315 472 322 475 q 303 465 303 467 z "},"=":{"ha":633,"x_min":-26,"x_max":601,"o":"m 592 540 q 599 500 596 529 q 599 442 601 471 q 593 433 597 433 l 592 435 q 572 436 588 436 q 564 436 568 436 q 415 447 538 438 q 217 461 254 460 q 147 467 185 463 q 81 478 110 471 q 47 492 51 485 l 46 492 l 46 494 q 47 500 44 497 q 101 524 56 511 q 200 542 147 538 q 544 564 279 549 q 551 564 549 564 q 592 540 582 564 m 365 476 q 394 479 392 476 q 385 478 392 478 q 381 478 383 478 q 376 478 378 478 q 367 478 371 478 l 344 478 q 328 476 331 478 q 336 478 329 478 q 350 477 340 478 q 365 476 360 476 m 383 508 q 403 508 396 508 q 397 508 400 508 q 384 509 394 508 q 368 510 374 510 q 360 508 365 510 q 361 508 361 508 q 383 508 368 508 m 408 489 q 400 490 408 489 q 386 490 396 490 q 363 489 369 490 q 372 489 365 489 q 389 489 376 489 q 407 489 401 489 l 408 489 m 418 476 q 429 476 425 476 q 425 476 426 476 q 421 476 424 476 q 410 476 413 476 q 403 476 406 476 q 407 476 404 476 q 412 476 408 476 q 418 476 415 476 m 415 522 q 444 524 439 522 q 425 522 442 522 q 406 522 419 522 q 385 522 392 522 q 351 522 364 522 q 367 521 360 521 q 371 522 369 521 q 382 522 374 522 l 415 522 m 486 338 q 528 314 519 338 q 535 274 532 303 q 535 215 538 244 q 529 208 533 208 l 528 208 q 508 210 522 210 q 500 210 503 210 q 340 224 472 211 q 149 242 182 240 q 93 245 122 242 q 40 252 64 249 q -3 260 15 256 q -24 269 -21 265 l -25 271 l -25 274 q -24 278 -26 275 q 33 304 -15 290 q 132 322 81 318 q 379 333 179 326 q 481 338 463 338 l 486 338 m 307 254 q 328 257 325 254 q 321 256 325 256 q 314 256 318 256 q 308 256 310 256 q 303 256 306 256 q 290 256 300 256 q 274 257 279 257 q 260 256 261 257 q 267 256 260 256 q 285 255 271 256 q 307 254 299 254 m 324 285 q 340 286 335 285 q 334 286 338 286 q 317 287 331 286 q 296 288 303 288 q 294 287 296 288 q 293 286 293 286 q 294 286 294 286 q 324 285 304 285 m 353 265 l 333 267 q 314 268 328 268 q 296 267 299 268 q 301 267 297 267 q 323 266 307 267 q 344 265 339 265 q 353 265 350 265 m 356 253 q 363 253 360 253 l 361 253 l 358 253 l 356 253 q 350 253 353 253 q 342 254 343 254 q 336 253 336 254 q 340 253 336 253 q 347 253 342 253 q 356 253 351 253 m 360 299 q 381 300 376 299 q 367 299 378 299 q 338 299 360 299 q 303 300 315 300 q 278 300 288 300 q 279 300 278 300 q 281 300 281 300 q 292 299 285 300 q 301 299 299 299 q 311 300 307 300 q 331 299 317 300 q 360 299 351 299 z "},">":{"ha":603,"x_min":68,"x_max":588,"o":"m 586 467 q 584 424 588 454 q 574 368 581 393 q 401 272 572 365 q 326 231 343 239 q 169 149 253 189 q 138 139 150 139 q 114 150 125 139 q 91 186 106 158 q 69 239 76 214 q 71 246 68 243 q 93 254 78 249 l 100 257 q 133 269 110 261 q 267 318 218 299 q 432 392 379 361 q 451 401 433 392 q 381 432 419 413 q 267 490 338 453 q 229 510 238 506 q 142 563 185 532 q 96 604 99 593 l 96 606 l 96 608 q 121 615 97 615 q 247 589 174 615 l 274 581 q 404 536 356 550 q 549 499 482 510 q 566 494 560 497 q 576 486 572 490 q 583 478 581 482 q 586 467 585 474 m 401 468 q 368 481 381 481 l 368 482 l 367 479 q 390 471 369 479 q 418 461 411 463 l 401 468 m 371 500 q 374 499 372 500 q 413 485 394 488 q 403 488 410 485 q 387 494 396 490 q 371 500 378 499 m 332 482 q 346 476 332 481 q 374 465 360 471 q 392 460 388 460 q 381 464 388 461 q 374 467 375 467 q 357 472 371 467 q 332 482 338 482 l 332 483 l 332 482 m 399 454 q 402 453 399 454 q 409 451 406 451 q 417 449 413 450 q 424 446 421 447 q 421 447 422 446 q 418 449 419 449 q 411 451 417 449 q 400 454 403 454 l 399 454 m 406 501 q 438 489 429 492 q 438 489 438 489 q 367 515 388 510 q 386 508 385 508 q 406 501 389 507 m 333 318 q 278 289 281 296 q 297 300 296 300 q 311 307 299 301 q 333 318 326 314 m 325 279 q 322 278 322 278 q 297 267 314 275 q 278 256 281 258 q 286 260 279 257 q 306 269 293 264 q 325 279 318 275 m 304 290 q 258 269 268 276 l 276 278 q 304 290 288 281 m 239 274 q 247 278 242 275 q 249 278 249 278 q 257 282 250 279 q 265 286 264 285 q 239 274 243 279 m 249 226 q 267 235 251 228 q 305 253 283 243 q 339 271 326 264 q 319 263 322 265 q 292 249 315 260 q 249 226 251 231 z "},"?":{"ha":603,"x_min":68,"x_max":535,"o":"m 508 815 q 525 777 518 801 q 533 717 532 753 q 517 638 535 682 q 463 556 499 594 q 379 483 440 532 q 341 451 354 463 q 305 419 328 440 q 269 382 282 399 q 241 344 256 365 q 219 301 226 324 q 208 254 211 278 l 206 253 q 183 267 196 253 q 163 331 161 290 q 184 397 164 361 q 240 469 204 432 q 298 528 275 507 q 356 579 321 550 q 376 599 374 596 q 431 674 417 633 q 429 735 444 715 q 392 767 418 758 q 369 771 385 771 q 339 767 354 771 q 265 726 296 758 q 233 694 244 703 q 207 683 221 685 l 203 682 q 160 690 186 682 q 114 711 133 697 q 113 725 107 717 q 122 739 115 729 q 149 779 139 767 q 289 875 206 850 q 364 885 328 885 q 401 882 383 885 q 508 815 467 871 m 182 160 q 190 147 186 154 q 196 135 194 140 q 197 129 197 131 q 196 106 200 117 l 196 101 l 194 99 l 188 99 q 150 44 185 61 q 128 38 140 39 q 118 36 124 36 l 114 38 q 99 42 107 38 q 74 69 82 50 q 69 90 69 79 q 71 96 69 92 l 71 100 q 110 169 75 144 q 124 175 115 174 q 131 176 126 176 l 135 178 l 142 178 q 182 160 165 178 z "},"@":{"ha":996,"x_min":-33,"x_max":960,"o":"m 857 674 q 949 408 960 565 q 892 215 943 311 q 753 56 840 119 q 572 -8 667 -8 q 521 -3 546 -8 q 499 6 507 0 q 476 26 488 13 q 457 72 463 47 q 453 119 453 92 q 417 69 439 94 q 375 27 396 44 q 339 4 354 10 q 307 -1 324 -1 q 236 36 258 -1 q 213 186 201 96 q 237 292 217 229 q 293 415 257 356 q 383 528 333 482 q 471 589 422 564 q 521 603 501 603 q 551 592 540 603 q 560 579 556 588 q 567 560 564 571 q 572 535 569 549 q 576 510 575 522 q 585 533 578 519 q 631 571 606 571 q 636 569 633 571 q 675 556 647 569 q 722 525 703 542 q 726 518 726 522 q 711 497 721 511 l 707 492 q 608 331 651 413 q 549 183 578 274 q 533 58 519 92 q 546 46 538 49 q 585 40 564 40 q 745 115 661 40 q 868 293 829 190 q 897 436 894 364 q 866 578 899 508 q 767 688 833 647 q 543 753 661 753 q 258 653 390 753 q 76 400 126 553 q 40 185 39 288 q 79 10 42 83 q 268 -142 136 -101 q 422 -164 340 -164 q 578 -140 507 -164 q 696 -71 650 -115 q 713 -62 704 -62 q 738 -81 731 -62 q 732 -107 743 -94 q 598 -187 679 -158 q 422 -215 517 -215 q 208 -174 306 -215 q 23 5 79 -119 q -3 294 -33 129 q 101 562 24 447 q 292 738 178 676 q 543 800 406 800 q 663 785 606 800 q 770 742 721 771 q 857 674 819 714 m 594 364 q 590 350 588 351 q 603 379 597 361 q 599 374 599 375 q 594 364 599 371 m 535 308 q 539 319 538 318 q 558 363 550 339 q 532 304 538 326 q 535 308 533 306 m 557 272 q 582 339 578 322 q 574 322 574 325 q 568 306 572 319 q 557 272 554 276 m 560 313 q 563 322 558 314 q 573 343 567 331 q 582 363 579 356 l 574 353 q 564 331 569 347 q 560 313 558 315 m 389 415 q 379 401 378 404 q 401 429 399 425 q 394 424 396 425 q 389 415 394 422 m 325 383 q 351 421 346 411 q 311 360 321 385 q 311 361 311 360 q 321 376 318 374 l 325 383 m 351 388 q 375 417 372 413 q 365 408 367 410 q 340 371 350 396 q 351 388 342 375 m 368 390 q 356 374 357 378 q 347 361 354 372 q 329 324 326 328 q 338 338 329 325 q 356 367 346 351 q 368 390 365 383 m 331 425 q 293 363 304 390 q 297 367 294 364 q 314 393 313 389 q 344 436 318 404 l 353 447 q 371 469 367 464 q 331 425 347 449 m 475 261 q 504 351 489 308 q 564 492 529 419 q 546 488 557 492 q 479 457 508 476 q 393 379 435 431 q 330 281 356 335 q 296 193 304 228 q 278 72 275 111 q 300 44 281 44 q 392 108 332 44 q 475 261 451 175 m 515 304 q 529 335 528 329 q 543 367 529 339 q 561 410 558 400 q 515 304 524 344 z "},"A":{"ha":783,"x_min":-89,"x_max":840,"o":"m 778 789 q 685 493 728 653 q 668 428 679 469 q 754 401 718 417 q 760 388 763 399 q 747 379 757 378 q 735 381 744 379 q 717 385 726 383 q 692 390 707 388 q 661 393 676 392 q 622 186 632 272 q 617 76 615 118 q 625 24 619 33 q 615 5 628 13 q 596 11 603 -3 q 585 40 590 19 q 575 94 579 60 q 571 168 571 129 q 585 399 569 263 q 435 390 511 400 q 428 390 432 390 q 422 389 424 389 q 222 144 314 238 q 116 53 169 90 q 33 4 63 15 q -43 -9 -18 -12 q -78 10 -68 -6 q -87 54 -89 25 q -74 113 -87 79 q -72 115 -74 114 q -71 117 -71 117 q -67 115 -69 117 q -60 113 -64 114 q -50 113 -57 113 q -33 115 -43 114 q 71 164 8 122 q 288 363 164 226 q 236 349 258 356 q 129 308 169 329 q 82 306 96 294 q 58 332 74 313 q 38 369 43 351 q 39 374 36 372 q 157 415 111 404 q 360 447 244 439 q 472 590 415 514 q 574 733 529 667 q 649 846 618 799 q 700 928 679 893 q 711 947 706 940 q 713 951 711 949 q 714 953 714 953 q 731 964 719 964 q 740 965 735 965 q 765 963 749 967 q 802 950 782 958 q 836 931 822 942 q 839 925 840 928 q 778 789 817 893 m 342 433 q 308 431 338 435 q 276 422 278 426 q 297 425 294 424 q 319 428 300 426 q 342 433 339 431 m 299 292 q 247 232 253 247 q 287 271 257 239 q 324 319 317 303 q 299 292 306 300 m 318 399 q 319 400 318 399 q 321 401 321 401 q 317 401 319 401 l 313 400 q 290 397 307 400 q 269 392 272 393 q 318 399 293 393 m 269 404 q 297 410 272 406 q 324 415 321 414 q 283 410 319 417 q 244 400 246 403 q 257 402 246 400 q 269 404 268 404 m 272 424 q 256 422 269 425 q 240 417 242 419 q 251 417 249 417 q 261 419 251 418 q 272 424 271 421 m 240 371 q 251 372 242 371 q 276 376 261 374 q 304 382 292 379 q 306 383 304 382 q 308 388 307 386 q 308 387 308 388 q 307 386 307 386 q 287 383 303 386 q 257 377 271 381 q 240 371 243 374 m 307 361 q 267 319 301 357 q 233 275 233 281 l 235 275 q 260 300 258 297 q 274 317 261 304 q 297 343 286 331 q 307 361 307 356 m 203 243 q 215 255 203 243 q 226 271 226 267 q 216 263 225 271 q 198 244 207 254 q 188 232 189 235 q 203 243 201 240 m 217 176 q 278 235 228 183 q 342 313 328 288 q 329 300 339 310 q 312 281 319 290 q 301 269 304 272 q 259 223 297 263 q 217 176 221 183 m 717 682 q 715 674 717 681 q 711 662 713 667 q 711 653 710 657 q 716 663 713 654 q 722 682 719 672 q 722 694 724 692 l 717 682 m 707 647 q 699 621 699 625 q 691 592 697 618 q 686 563 685 567 q 700 604 690 565 q 707 647 710 643 m 593 457 q 649 751 613 597 q 465 450 560 590 q 590 442 529 450 q 592 449 592 443 q 593 457 592 454 m 633 588 q 647 631 646 625 q 658 676 647 635 q 668 725 669 718 q 658 692 665 718 q 642 634 650 667 q 633 588 633 601 m 660 615 q 674 674 678 661 q 660 634 669 667 q 653 588 651 601 q 660 615 656 596 m 692 657 q 688 642 690 653 q 683 622 685 632 q 682 608 681 611 q 703 679 700 656 q 692 657 694 661 z "},"B":{"ha":688,"x_min":-28,"x_max":731,"o":"m 717 839 q 731 764 731 803 q 708 674 731 725 q 635 558 685 624 q 531 465 603 515 q 546 461 540 463 q 586 432 572 451 q 602 348 610 397 q 563 251 594 299 q 389 90 499 154 q 174 19 282 28 q 36 33 96 13 q -25 90 -28 54 q -8 132 -25 103 q 28 181 8 161 q 33 182 32 183 q 107 143 64 154 q 299 156 194 119 q 493 276 414 193 q 544 353 532 315 q 551 386 551 369 q 547 406 551 397 q 506 426 538 424 q 467 421 489 428 q 443 414 456 418 q 333 372 376 381 q 275 388 289 361 q 268 408 272 393 q 225 282 239 338 q 213 233 217 257 q 210 199 210 208 q 211 183 211 189 q 209 181 211 183 q 203 175 207 178 q 197 169 200 172 q 189 167 193 167 q 182 171 185 167 q 171 210 175 181 q 171 279 167 240 q 206 469 176 364 q 263 638 228 556 q 319 757 299 721 q 364 783 338 789 q 405 765 375 781 q 454 733 435 750 q 457 728 458 731 q 310 497 374 625 q 363 507 335 500 q 549 594 467 533 q 626 669 593 625 q 653 713 644 693 q 607 871 699 822 q 493 886 569 892 q 283 814 378 882 q 185 728 242 786 q 132 706 157 697 q 90 729 118 711 q 46 767 63 747 q 46 772 43 769 q 52 779 47 774 q 63 790 57 785 q 81 806 69 796 q 103 825 92 815 q 129 847 114 835 q 161 869 144 858 q 285 938 219 911 q 443 969 367 968 q 604 946 538 972 q 672 903 642 932 q 717 839 703 874 m 381 946 q 359 943 378 947 q 322 932 340 939 q 303 921 303 925 q 328 928 326 926 q 355 937 331 931 q 381 946 379 943 m 376 904 q 365 901 375 904 q 353 899 354 899 q 326 890 344 897 q 306 878 307 882 q 321 883 306 878 q 353 894 336 888 q 376 904 369 900 m 296 921 q 277 915 293 922 q 260 903 261 907 q 272 907 271 904 q 285 912 274 907 q 296 921 296 917 m 315 906 q 272 882 274 889 q 285 888 274 883 q 300 896 297 893 q 332 908 304 899 q 363 921 360 918 q 315 906 351 921 m 305 855 q 310 857 305 855 q 325 864 315 860 q 356 876 335 868 q 385 888 378 883 q 349 879 354 883 q 279 843 282 850 q 287 847 279 843 q 305 855 294 850 m 335 592 q 331 583 335 590 q 328 574 326 575 q 336 584 331 574 q 340 599 342 594 l 335 592 m 265 575 q 278 603 265 578 q 290 635 292 629 q 279 615 288 631 q 261 579 271 600 q 251 549 251 558 q 265 575 264 571 m 278 561 q 293 599 296 589 q 278 574 289 593 q 269 544 268 554 q 272 549 269 546 q 275 556 274 553 q 278 561 276 560 m 310 582 q 302 566 307 578 q 299 550 297 554 q 322 593 319 582 q 310 582 313 583 m 314 554 q 306 537 314 553 q 301 518 299 521 q 315 543 304 519 q 324 571 326 567 q 314 554 314 557 m 360 118 q 335 107 344 111 q 278 85 283 92 q 299 90 282 85 q 335 103 315 94 q 360 118 354 111 m 258 108 q 282 110 278 110 q 306 118 289 111 q 325 129 324 125 q 310 125 324 129 q 280 116 296 121 q 258 108 264 111 m 357 161 q 317 146 350 160 q 282 128 283 132 q 307 135 301 132 q 322 142 308 136 q 345 152 335 147 q 357 161 356 157 m 275 129 q 256 126 272 131 q 238 118 240 121 q 250 119 249 118 q 263 122 251 119 q 275 129 275 125 m 299 69 q 372 104 349 85 q 351 96 369 103 q 329 88 333 89 q 282 71 321 81 q 235 56 238 58 q 299 69 258 57 m 522 556 q 494 540 518 554 q 471 522 471 526 q 489 531 488 529 q 499 537 490 532 q 514 547 507 542 q 522 556 521 551 m 439 510 q 449 511 447 510 q 458 516 450 513 q 465 522 467 519 q 452 518 464 524 q 439 510 440 513 m 458 503 q 475 506 472 504 q 492 514 481 507 q 504 525 504 521 q 483 515 501 524 q 458 503 464 507 m 517 504 q 495 494 510 503 q 479 482 481 485 q 507 494 485 482 q 535 515 529 506 q 529 513 533 515 q 522 508 525 510 q 517 504 518 506 m 494 467 q 547 501 538 488 l 547 503 q 518 486 518 486 q 479 465 515 483 q 494 467 482 465 z "},"C":{"ha":508,"x_min":-28,"x_max":553,"o":"m 513 283 q 538 293 525 300 q 539 265 551 286 q 353 81 464 151 q 121 31 235 7 q 52 60 86 36 q 3 118 18 83 q -25 260 -26 176 q 39 519 -19 375 q 154 728 88 633 q 263 862 207 807 q 357 942 319 917 q 475 979 436 997 q 510 949 496 969 q 529 903 524 928 q 538 863 535 878 q 540 835 540 847 q 508 686 544 765 q 435 570 478 621 q 369 511 392 519 q 356 521 363 508 q 351 539 349 533 q 363 556 354 542 q 381 590 371 569 q 402 640 392 611 q 418 694 413 668 q 424 796 431 753 q 417 822 421 810 q 332 753 372 793 q 181 566 251 676 q 76 336 111 456 q 60 210 57 265 q 97 118 63 143 q 102 113 99 115 q 110 109 106 111 q 117 106 114 107 l 142 96 l 168 92 q 177 91 172 92 q 187 90 182 90 q 194 90 192 90 q 297 114 243 92 q 447 214 371 146 q 513 283 476 242 m 511 775 q 510 767 511 774 q 513 761 510 761 q 516 770 515 761 q 515 781 517 779 l 511 775 m 506 746 q 503 733 506 744 q 503 719 500 721 q 510 738 506 721 q 510 758 514 756 q 506 746 506 747 m 490 782 q 488 767 488 769 q 486 758 488 765 q 484 744 485 751 q 485 736 483 738 q 490 759 488 738 q 490 782 493 781 m 469 771 q 464 736 461 740 q 465 742 464 738 q 467 747 467 746 q 471 759 469 750 q 469 771 472 768 m 451 790 q 449 779 451 790 q 444 756 446 768 q 444 739 443 744 q 451 756 451 753 q 452 766 450 757 q 454 781 454 775 q 451 790 454 788 m 68 483 q 89 526 79 510 q 99 545 90 531 q 115 574 107 560 q 128 600 122 588 q 136 617 135 613 q 99 556 126 607 q 68 483 71 506 m 128 507 q 157 571 158 568 q 133 532 139 547 q 122 508 132 529 q 103 467 111 486 q 96 443 94 447 q 101 453 97 444 q 113 478 106 463 q 128 507 121 494 m 203 639 q 188 621 189 625 q 176 601 188 619 q 165 579 164 583 q 176 593 167 581 q 193 620 185 606 q 203 639 201 635 m 136 572 q 149 594 142 582 q 161 615 156 607 q 172 632 167 624 q 178 645 176 640 q 182 651 181 650 q 149 601 158 621 q 115 542 138 583 q 93 490 93 500 q 100 504 93 492 q 117 536 107 517 q 136 572 126 556 m 47 483 q 55 499 50 489 q 65 519 60 508 q 76 539 71 529 q 82 553 81 549 q 122 625 90 572 q 163 693 163 689 q 104 606 131 650 q 47 483 60 532 z "},"D":{"ha":756,"x_min":13,"x_max":782,"o":"m 746 833 q 773 758 764 800 q 778 658 782 717 q 753 536 775 599 q 615 290 704 401 q 401 92 517 167 q 306 42 353 60 q 233 22 258 25 q 174 26 196 18 l 174 28 q 172 28 172 28 q 171 29 171 28 q 154 44 158 35 q 142 64 146 54 q 128 151 126 97 q 175 386 129 244 q 257 597 208 494 q 329 735 306 700 q 383 768 354 776 q 423 747 396 767 q 468 704 450 726 q 469 700 471 700 q 458 689 467 699 q 431 657 449 679 q 397 608 414 635 q 271 394 329 510 q 182 163 201 256 q 182 158 182 161 q 181 156 182 156 q 201 151 189 151 q 282 164 236 149 q 517 311 394 200 q 696 539 638 419 q 713 584 706 557 q 727 646 721 611 q 729 719 733 681 q 708 789 725 758 q 621 869 679 844 q 489 886 557 897 q 365 840 426 875 q 260 758 304 804 q 168 640 213 714 q 119 599 146 600 q 72 606 104 599 q 17 625 39 613 q 14 632 13 628 q 119 783 63 725 q 253 891 175 843 q 419 960 331 939 q 518 968 479 972 q 613 947 572 964 q 746 833 701 915 m 354 876 q 328 865 342 872 q 299 849 319 863 q 276 831 279 836 q 289 838 278 832 q 312 850 300 843 q 336 865 324 857 q 354 876 349 872 m 353 921 q 308 901 347 922 q 269 875 268 881 q 296 889 290 885 q 325 906 299 890 q 353 921 350 917 m 224 846 q 238 853 236 850 q 250 862 239 854 q 263 874 261 869 q 242 862 258 874 q 224 846 225 850 m 317 886 q 284 870 311 885 q 250 847 257 856 q 274 857 269 856 q 299 872 282 861 q 317 886 315 882 m 301 822 q 336 843 313 829 q 365 863 360 857 q 326 844 338 854 q 315 837 324 843 q 296 824 306 831 q 276 811 286 818 q 259 798 265 804 q 251 788 253 792 q 301 822 268 800 m 260 500 q 274 523 265 506 q 281 544 282 540 q 263 515 276 539 q 250 479 250 490 q 255 489 250 481 q 260 500 260 497 m 281 450 q 288 460 282 450 q 299 481 293 469 q 308 501 304 492 q 310 514 311 511 q 299 494 299 497 q 289 474 299 493 q 281 450 279 454 m 324 539 q 318 528 324 538 q 315 517 313 519 q 325 531 318 518 q 332 547 332 544 l 324 539 m 311 540 q 297 526 300 528 q 287 506 293 521 q 282 489 281 492 q 311 540 304 518 m 282 588 q 268 564 279 583 q 245 520 257 544 q 231 483 233 496 q 249 515 247 511 q 267 551 250 519 q 282 588 283 582 m 496 217 q 474 200 486 210 q 428 164 432 175 q 463 185 436 167 q 496 217 489 204 m 481 258 q 447 233 476 256 q 418 207 418 211 l 418 206 q 440 221 438 217 q 452 231 442 222 q 472 247 463 239 q 481 258 481 254 m 378 183 q 390 188 389 186 q 401 195 390 189 q 411 206 411 201 q 394 196 408 206 q 378 183 379 186 m 399 122 q 428 138 404 124 q 477 173 451 153 q 511 206 503 193 q 500 198 508 204 q 485 187 492 192 q 475 179 478 182 q 437 151 471 174 q 399 122 403 128 z "},"E":{"ha":494,"x_min":-54,"x_max":547,"o":"m 450 728 q 458 765 456 740 q 461 795 458 776 q 451 827 464 814 q 411 835 439 840 q 306 772 346 821 q 275 716 283 747 q 276 665 267 685 q 297 639 283 651 q 340 632 325 644 q 351 622 346 629 q 361 605 356 615 q 371 583 367 594 q 378 559 375 572 q 381 535 381 546 q 378 529 381 531 q 326 515 350 525 q 219 450 275 494 q 100 322 149 393 q 54 238 71 279 q 42 157 35 189 q 88 117 49 128 q 174 122 125 108 q 336 207 246 143 q 440 292 397 250 q 497 356 483 335 q 519 362 504 367 q 525 339 533 357 q 479 274 515 318 q 390 182 443 231 q 243 75 315 114 q 142 40 185 47 q 21 57 83 26 q -31 106 -12 74 q -50 171 -47 136 q -32 286 -54 221 q 64 457 -3 369 q 240 617 147 564 q 244 618 242 617 q 247 619 246 619 q 239 628 240 626 q 206 703 210 658 q 218 792 201 747 q 328 924 247 872 q 415 965 371 951 q 433 968 425 969 q 436 969 435 968 q 438 969 438 969 q 460 969 447 969 q 485 964 476 968 q 511 949 504 956 q 529 926 522 939 q 543 851 546 894 q 513 754 536 797 q 468 701 489 711 q 455 710 461 697 q 450 728 449 722 m 525 893 q 514 910 518 911 q 517 897 517 899 q 519 891 518 896 q 522 881 521 886 q 526 876 524 876 q 525 893 528 878 m 514 914 q 512 919 515 915 q 504 928 508 924 q 499 931 500 932 q 501 924 500 924 q 507 918 503 924 q 514 914 511 913 m 507 888 q 504 901 507 892 q 496 914 501 911 l 497 903 q 501 894 497 900 q 507 888 504 888 m 485 881 q 482 889 485 883 q 476 892 479 894 q 477 888 476 892 q 480 879 478 883 q 485 874 482 875 l 486 874 q 485 877 485 874 q 485 881 485 881 m -21 256 q -6 288 -18 264 q 6 314 6 313 q 39 372 11 331 q 74 425 72 422 q 22 357 51 403 q -21 256 -14 299 m 85 361 q 63 339 67 343 q 45 309 57 332 q 35 281 33 286 q 85 361 36 285 m 14 292 q 26 313 17 296 q 42 344 35 329 q 51 363 50 358 q 22 319 36 342 q -1 257 1 282 q 14 292 7 279 m 53 274 q 74 322 74 322 q 56 293 57 299 q 32 225 26 233 q 33 228 32 225 q 37 237 35 232 q 41 247 39 242 q 46 260 43 253 q 53 274 49 267 m 81 328 q 89 339 82 329 q 103 359 96 349 q 111 374 110 369 q 99 360 99 363 q 88 346 97 360 q 81 328 79 332 m 272 847 q 283 855 274 849 q 293 864 292 861 q 314 879 294 867 q 333 896 333 892 q 302 878 328 896 q 272 847 276 860 m 288 836 q 299 846 294 843 q 322 867 321 860 q 303 856 318 867 q 288 836 289 844 m 304 826 q 346 860 344 857 q 331 851 332 853 q 323 844 331 850 q 310 834 315 839 q 304 826 304 829 m 311 803 q 327 815 314 803 q 339 829 340 826 q 328 824 329 826 q 323 818 328 822 q 314 810 318 814 q 311 803 310 806 m 343 829 q 348 830 344 828 q 355 835 351 832 q 358 839 358 838 q 351 838 353 839 q 347 835 351 838 q 343 829 342 832 z "},"F":{"ha":615,"x_min":58,"x_max":826,"o":"m 821 975 q 822 963 826 972 q 804 949 818 954 q 504 904 751 921 q 454 901 493 904 q 455 899 454 900 q 456 899 456 899 q 467 872 460 892 q 467 866 467 869 q 469 860 468 863 q 469 854 469 857 q 470 849 469 851 q 471 843 471 846 q 471 827 471 840 q 471 813 471 814 l 469 792 q 457 715 465 756 q 435 624 449 676 q 586 601 551 617 q 591 589 593 600 q 582 578 589 578 q 418 568 517 582 q 382 454 404 518 q 268 150 332 306 q 192 40 228 54 q 142 40 181 33 q 85 64 104 46 q 83 72 81 67 q 215 350 128 147 q 294 543 261 456 q 190 507 217 522 q 158 514 171 500 q 119 583 133 546 q 119 588 118 586 q 200 610 164 603 q 324 624 253 619 q 364 774 339 667 q 381 883 389 881 q 366 882 375 883 q 329 877 357 881 q 276 871 301 874 q 218 865 251 868 q 160 862 185 863 q 113 863 135 861 q 83 868 92 864 q 62 895 65 879 q 77 926 58 911 q 135 943 96 940 q 408 953 163 946 q 683 964 654 961 q 793 979 758 969 q 821 975 811 985 m 319 610 q 312 610 318 611 q 298 609 306 610 q 285 607 290 608 q 279 603 279 606 q 293 604 290 603 q 297 605 293 604 q 306 606 301 606 q 314 608 310 607 q 319 610 318 608 m 275 604 q 266 605 275 607 q 256 601 257 603 l 263 600 q 269 602 263 601 q 275 604 275 603 m 301 560 q 303 565 303 564 q 300 564 300 564 q 288 561 297 563 q 269 558 278 560 q 258 554 260 557 q 301 560 283 557 m 307 575 q 308 576 307 575 q 308 578 308 578 q 306 578 307 578 q 304 578 304 578 q 288 576 299 578 q 276 572 278 575 q 289 573 279 572 q 307 575 299 574 m 275 586 q 292 589 276 586 q 310 593 308 592 q 283 590 307 594 q 258 583 260 586 q 275 586 272 585 m 315 533 q 324 550 321 543 q 319 550 321 550 q 315 533 315 538 m 424 749 q 410 694 417 719 q 389 625 397 657 l 393 625 q 424 749 424 715 m 372 625 q 400 733 401 721 q 395 716 400 732 q 383 676 390 700 q 369 629 376 651 q 369 627 369 629 q 368 625 368 625 q 372 625 369 625 m 368 706 q 349 625 347 628 q 367 676 364 664 q 372 698 367 679 q 381 733 376 717 q 388 766 385 750 q 389 786 390 782 q 385 773 389 785 q 377 741 382 761 q 368 706 372 721 m 339 528 q 350 556 343 538 q 346 556 349 556 q 339 528 339 531 m 365 488 q 393 564 372 501 q 391 563 393 564 q 388 563 389 563 q 365 488 367 497 m 414 624 q 443 754 442 717 q 437 728 442 746 q 426 692 432 710 q 419 667 421 674 q 408 625 418 657 q 410 624 408 625 q 414 624 413 624 z "},"G":{"ha":675,"x_min":-37,"x_max":679,"o":"m 665 458 q 672 453 668 460 q 677 438 676 446 q 675 428 678 431 q 569 383 656 410 q 525 321 544 354 q 450 153 479 247 q 419 -33 419 53 q 436 -128 419 -100 q 426 -144 438 -135 q 407 -146 414 -153 q 387 -112 399 -137 q 367 -51 375 -86 q 358 136 349 32 q 363 171 360 146 q 290 97 328 132 q 194 36 240 56 q 58 40 125 6 q 3 90 26 57 q -25 161 -19 124 q -24 301 -36 221 q 182 756 19 538 q 314 894 247 842 q 414 954 361 933 q 494 968 456 974 q 558 951 533 963 q 594 926 582 939 q 618 889 614 904 q 625 867 622 876 q 628 846 628 851 q 589 679 633 774 q 497 550 551 600 q 465 524 483 535 q 436 508 447 513 q 419 501 425 503 q 410 507 414 500 q 405 521 406 514 q 407 532 404 528 q 452 606 415 539 q 515 745 489 674 q 506 838 540 817 q 487 842 497 842 q 467 841 476 843 q 447 833 458 839 q 426 821 435 826 q 403 806 417 815 q 382 790 390 796 q 360 771 374 783 q 205 597 281 706 q 83 367 129 488 q 51 239 58 296 q 64 129 43 165 q 96 97 75 108 q 138 86 117 85 q 232 121 179 88 q 367 243 297 165 q 378 256 368 244 q 396 325 386 296 q 406 353 399 335 q 279 354 318 347 q 254 386 253 358 q 259 410 256 393 q 269 449 263 426 q 282 489 275 472 q 283 492 282 490 q 284 493 283 493 q 288 491 285 493 q 297 487 292 489 q 308 483 301 485 q 322 478 314 481 q 340 472 331 475 q 479 454 403 458 q 603 452 556 450 q 665 458 650 454 m 599 776 q 597 769 599 776 q 599 761 596 763 q 603 772 601 761 q 601 783 604 782 l 599 776 m 596 758 q 591 745 590 747 q 588 731 592 743 q 586 717 583 719 q 592 727 589 717 q 597 747 596 738 q 596 758 599 756 m 575 769 q 572 752 575 768 q 569 735 568 736 q 574 747 571 735 q 578 771 578 760 q 578 786 579 782 q 575 769 575 772 m 557 774 q 550 756 554 769 q 549 735 546 742 q 553 747 553 743 q 557 761 556 751 q 557 774 558 771 m 539 796 q 536 783 539 796 q 531 758 533 771 q 531 739 529 744 q 538 757 539 751 q 538 763 538 758 q 540 772 539 767 q 541 781 540 776 q 542 790 542 786 q 539 796 542 794 m 86 515 q 92 528 88 519 q 102 545 97 536 q 108 557 107 554 q 160 644 157 636 q 120 587 150 636 q 86 515 90 538 m 146 536 q 179 599 179 596 q 153 560 158 572 q 144 544 153 558 q 129 516 136 529 q 117 490 122 503 q 111 472 111 476 q 146 536 111 472 m 226 664 q 211 647 213 651 q 197 628 210 646 q 186 607 185 611 q 208 633 190 608 q 226 664 225 658 m 158 600 q 179 635 167 615 q 199 665 192 654 q 207 678 206 675 q 172 631 188 656 q 111 521 113 536 q 119 534 113 522 q 136 565 125 546 q 158 600 147 585 m 128 635 q 65 517 79 561 q 103 583 79 540 q 147 654 107 594 q 190 721 188 714 q 128 635 154 678 m 397 439 q 388 442 396 442 q 379 440 381 442 l 385 438 q 391 437 385 438 q 397 439 397 436 m 414 372 q 417 378 414 372 q 410 379 411 379 q 388 379 408 378 q 367 378 368 381 q 414 372 381 372 m 422 393 q 422 394 422 393 q 424 396 422 394 q 419 396 422 396 q 415 396 417 396 q 402 397 411 397 q 389 396 393 397 q 422 393 403 388 m 392 414 q 401 413 394 414 q 415 413 408 413 q 425 414 422 413 q 401 417 422 415 q 378 415 379 418 q 392 414 389 413 m 411 433 q 424 433 413 433 q 436 436 436 432 q 418 439 435 438 q 400 436 401 440 q 411 433 410 432 z "},"H":{"ha":747,"x_min":8,"x_max":792,"o":"m 754 424 q 776 438 761 442 q 785 414 790 435 q 731 261 767 349 q 661 121 696 179 q 600 42 632 72 q 547 8 572 17 q 474 17 508 -4 q 403 140 418 50 q 403 276 394 197 q 424 400 410 333 q 343 399 382 400 q 263 397 288 397 q 233 303 243 338 q 192 107 196 175 q 183 58 188 71 q 165 38 178 46 q 126 17 161 33 q 65 -4 85 -4 q 60 3 61 -4 q 57 89 51 40 q 90 238 64 151 q 147 394 110 297 q 21 392 36 392 q 11 403 13 393 q 19 417 10 414 q 165 440 38 421 q 188 497 175 464 q 215 561 201 529 q 238 619 228 593 q 306 818 289 749 q 313 863 311 847 q 310 892 314 881 q 297 907 306 903 q 283 912 289 911 q 271 913 278 913 q 143 876 199 907 q 92 836 106 856 q 74 831 86 829 q 63 836 67 831 q 64 853 60 842 q 119 910 72 875 q 238 963 167 946 q 281 969 254 967 q 308 969 288 969 q 336 960 329 964 q 372 913 358 949 q 379 883 378 892 q 379 856 379 857 q 343 657 378 789 q 282 457 324 590 q 288 458 285 458 q 296 459 292 458 q 303 461 300 460 q 443 479 369 471 q 458 533 451 510 q 539 736 482 608 q 589 844 556 772 q 622 903 608 886 q 651 922 636 919 q 701 922 667 926 q 758 901 736 917 q 760 893 763 899 q 706 785 742 854 q 674 726 696 767 q 631 648 651 686 q 593 574 611 610 q 558 492 578 539 q 599 494 588 494 q 643 478 633 497 q 651 442 647 468 q 651 397 654 417 q 649 394 650 394 q 526 399 629 397 q 499 303 510 346 q 481 167 481 222 q 488 110 481 136 q 507 76 496 85 q 556 87 524 60 q 614 153 588 114 q 688 281 649 204 q 754 424 701 307 m 546 525 q 540 509 546 522 q 535 489 535 496 q 538 490 536 489 q 556 543 556 529 q 546 525 546 529 m 514 501 q 508 486 511 493 q 511 488 510 488 q 513 488 513 488 q 533 551 533 549 q 514 501 518 518 m 168 381 q 172 394 168 383 l 168 394 q 160 364 158 369 q 168 381 168 378 m 182 357 q 189 374 183 358 q 197 394 194 389 q 193 394 194 394 q 182 357 182 361 m 193 444 q 199 458 197 456 q 211 494 199 461 q 222 532 224 526 q 213 515 219 531 q 199 478 207 499 q 188 443 192 457 l 189 443 l 193 444 m 231 493 q 211 447 228 489 q 214 447 213 447 q 215 447 215 447 q 231 493 231 486 m 213 326 q 217 339 214 329 q 227 365 221 349 q 239 396 233 381 l 238 396 l 236 396 l 233 396 q 213 326 211 336 m 240 451 q 253 497 251 485 q 239 464 250 492 q 233 450 238 460 q 240 451 238 451 m 260 454 q 272 497 269 483 q 254 453 257 464 q 260 454 256 454 m 426 413 q 427 415 426 414 q 428 417 428 417 q 425 417 425 417 q 413 416 422 417 q 396 415 404 415 q 386 413 388 414 q 401 411 388 411 q 426 413 415 411 m 431 429 q 431 431 431 431 q 432 432 432 432 q 401 429 406 431 q 431 429 404 429 m 435 444 q 435 446 435 444 q 436 449 435 447 q 394 443 404 449 q 413 444 408 444 q 435 444 421 443 m 438 458 q 439 463 439 461 q 390 457 403 461 q 419 457 415 457 q 438 458 424 458 z "},"I":{"ha":306,"x_min":11,"x_max":344,"o":"m 325 925 q 342 857 338 900 q 331 739 343 808 q 298 602 317 671 q 252 447 279 533 q 217 336 225 361 q 158 114 169 185 q 143 57 150 72 q 122 33 136 42 q 18 8 54 4 q 14 17 14 10 q 24 104 13 51 q 69 263 36 168 q 144 460 88 317 q 228 685 200 604 q 258 797 249 751 q 265 851 265 828 q 266 863 267 854 q 265 874 265 872 q 263 888 264 886 q 211 899 254 911 q 147 849 176 888 q 92 713 104 792 q 92 635 86 678 q 81 613 94 618 q 60 626 67 607 q 51 669 54 643 q 55 749 47 696 q 86 853 63 801 q 149 933 111 903 q 199 961 171 951 q 229 968 200 963 q 265 968 242 971 q 325 925 304 963 m 229 515 q 212 471 222 503 q 201 432 201 439 q 225 491 208 447 q 243 554 242 535 q 235 533 240 549 q 229 515 229 517 m 213 589 q 199 558 210 586 q 179 501 189 531 q 172 469 169 472 q 188 507 186 503 q 201 547 188 510 q 213 589 214 583 m 154 421 q 161 440 154 422 q 165 461 168 458 q 153 434 163 460 q 144 403 144 408 q 154 421 154 417 m 168 425 q 185 456 182 450 q 199 492 190 465 q 207 524 207 518 q 200 508 206 521 q 188 481 194 496 q 176 449 182 465 q 168 425 171 432 m 197 363 q 263 554 253 500 q 239 493 242 501 q 217 431 239 489 q 197 363 196 372 z "},"J":{"ha":575,"x_min":-158,"x_max":557,"o":"m 515 368 q 546 365 536 371 q 549 350 556 358 q 521 338 543 342 q 468 322 503 335 q 413 211 439 261 q 181 -121 304 14 q 104 -196 146 -161 q 1 -253 44 -240 q -36 -258 -28 -258 q -48 -256 -39 -257 q -63 -253 -57 -256 q -75 -249 -69 -251 q -107 -225 -101 -232 q -129 -197 -117 -217 q -128 -69 -157 -140 q -6 89 -94 3 q 131 199 50 143 q 347 319 236 272 q 381 399 368 364 q 446 626 431 526 q 455 698 451 658 q 458 790 458 738 q 446 878 458 842 q 407 918 433 914 q 343 897 376 922 q 283 833 310 872 q 232 749 256 793 q 194 668 208 704 q 176 614 181 632 q 171 511 164 557 q 170 488 174 496 q 157 472 167 481 q 143 463 154 471 q 121 449 132 456 q 94 433 110 442 q 65 421 78 425 q 60 424 61 421 q 46 476 50 451 q 51 579 40 524 q 165 815 75 701 q 385 968 285 967 q 478 938 440 968 q 531 860 515 908 q 549 750 546 811 q 545 628 553 689 q 526 510 538 567 q 504 417 515 454 q 486 364 493 379 q 515 368 504 368 m 106 671 q 110 682 106 672 q 111 694 114 692 q 103 679 108 693 q 99 661 97 665 l 106 671 m 131 686 q 139 706 133 692 q 144 724 144 719 q 130 700 140 721 q 118 671 119 679 q 131 686 128 685 m 128 718 q 138 740 128 721 q 147 761 149 758 q 128 731 143 760 q 117 697 113 701 q 128 718 126 714 m 165 713 q 153 690 160 707 q 147 669 146 674 q 152 679 147 671 q 162 696 157 688 q 171 715 167 704 q 175 731 175 725 q 165 713 174 728 m 154 631 q 172 673 154 633 q 193 725 189 713 q 176 697 178 707 q 168 679 175 694 q 156 649 161 664 q 154 631 151 635 m 403 268 q 372 219 378 228 q 315 115 322 135 q 359 184 324 124 q 403 268 394 244 m 31 -147 q 243 118 128 -69 q 318 257 283 186 q 200 183 257 224 q -24 -26 54 79 q -62 -94 -51 -65 q -65 -156 -76 -132 q -50 -175 -62 -164 q -31 -179 -40 -182 q 31 -147 -6 -178 m 239 74 q 296 161 282 132 q 351 261 340 240 q 360 278 354 269 q 356 276 358 278 q 351 275 353 275 q 329 232 340 253 q 276 138 310 196 q 239 74 243 81 m 260 72 q 296 128 278 97 q 335 194 308 144 q 364 254 363 243 q 317 173 363 250 q 260 72 272 96 m 332 106 q 381 199 382 188 q 363 171 378 194 q 346 140 349 147 q 325 106 343 133 q 290 51 307 78 q 271 18 274 24 q 332 106 288 32 m 390 213 q 415 256 394 215 q 436 306 436 297 q 419 276 421 281 q 404 244 418 272 q 390 213 390 217 z "},"K":{"ha":713,"x_min":42,"x_max":757,"o":"m 697 957 q 726 922 707 950 q 754 867 746 893 q 754 863 756 863 q 663 806 728 854 q 483 656 581 747 q 319 483 389 567 q 326 426 319 454 q 406 267 346 344 q 532 144 461 192 q 617 101 563 124 q 638 88 632 96 q 643 65 643 79 q 621 -39 639 7 q 617 -42 619 -43 q 609 -39 615 -42 q 596 -33 603 -36 q 578 -26 589 -31 q 557 -15 568 -21 q 533 0 546 -8 q 507 18 519 8 q 353 189 417 83 q 275 404 286 301 q 274 424 274 411 q 250 389 261 406 q 224 303 233 338 q 182 107 186 176 q 173 60 178 72 q 156 39 168 47 q 117 18 151 35 q 57 -3 76 -3 q 50 4 51 -3 q 47 90 42 42 q 81 239 54 153 q 112 328 93 278 q 147 418 131 379 q 189 522 163 457 q 228 619 215 586 q 296 818 279 749 q 303 863 300 840 q 300 893 304 882 q 289 908 296 904 q 274 913 282 911 q 261 913 265 914 q 133 876 189 907 q 83 836 96 856 q 64 831 76 829 q 53 836 57 831 q 54 853 50 842 q 110 910 64 875 q 228 961 157 946 q 271 969 244 965 q 299 969 279 969 q 326 960 319 964 q 363 914 349 949 q 369 883 368 892 q 369 857 369 857 q 333 657 368 789 q 304 561 321 614 q 392 683 346 625 q 531 847 456 768 q 636 946 607 925 q 697 957 674 974 m 213 533 q 190 479 208 528 q 174 425 171 431 q 189 460 188 454 q 201 495 189 463 q 213 533 214 528 m 158 382 q 165 399 158 383 q 168 418 171 415 q 157 394 165 417 q 150 365 149 371 q 158 382 158 379 m 174 358 q 178 371 174 361 q 185 389 182 381 q 189 401 189 397 q 195 419 190 406 q 206 448 200 433 q 216 476 211 463 q 221 493 221 490 q 194 426 217 488 q 174 358 172 364 m 204 328 q 218 379 221 376 q 204 328 203 336 m 206 390 q 243 499 240 468 q 236 481 242 494 q 231 465 231 467 q 214 425 224 453 q 206 390 204 397 m 438 108 q 447 97 438 106 q 460 88 457 88 q 454 96 457 96 q 450 100 453 96 q 444 107 447 104 q 438 108 440 110 m 444 190 q 463 168 458 169 q 474 156 464 167 q 494 136 485 144 q 508 129 504 128 q 482 157 508 129 q 444 190 456 185 m 432 176 q 444 163 438 169 q 458 146 447 157 q 474 135 469 135 q 465 145 474 135 q 448 165 457 156 q 432 176 439 174 m 451 124 q 438 138 447 129 q 426 146 429 146 q 430 140 426 144 q 439 128 433 135 q 450 116 444 122 q 460 108 456 110 q 451 124 453 121 m 427 126 q 426 127 427 126 q 424 130 425 129 q 410 145 422 131 q 393 160 397 160 q 412 133 393 154 q 436 114 431 111 q 432 119 435 115 q 427 126 429 122 m 472 750 q 499 774 496 769 q 514 788 501 776 q 538 811 526 800 q 550 826 549 822 q 510 793 540 821 q 472 750 479 765 m 489 740 q 492 744 489 742 q 499 751 496 747 q 504 754 503 754 q 515 764 508 757 q 529 778 522 771 q 536 789 536 785 q 523 778 532 786 q 502 759 514 771 q 488 740 490 747 l 489 740 m 547 774 q 527 753 546 772 q 507 731 508 735 q 524 746 510 732 q 553 774 539 760 q 568 790 568 789 q 547 774 549 775 m 563 774 q 546 765 549 767 q 531 751 540 763 q 521 738 521 740 q 542 753 525 739 q 563 774 558 768 m 508 701 q 534 724 513 703 q 554 750 556 746 q 538 736 539 739 q 523 721 538 735 q 508 701 508 707 m 560 751 q 573 760 563 750 q 585 774 583 769 q 575 768 575 769 q 567 760 574 767 q 560 751 560 754 z "},"L":{"ha":611,"x_min":-56,"x_max":556,"o":"m 524 58 q 543 8 556 33 q 516 -27 539 -1 q 472 -68 493 -53 q 467 -69 468 -71 q 459 -60 467 -69 q 439 -39 451 -51 q 410 -15 426 -26 q 251 46 350 29 q 146 56 203 54 q 128 36 139 43 q 22 11 58 7 q 18 19 18 13 q 19 49 18 29 q -37 39 -12 44 q -50 51 -44 38 q -47 71 -56 65 q 26 97 -31 81 q 29 110 26 99 q 37 141 32 122 q 48 181 42 160 q 61 224 54 201 q 74 265 68 247 q 148 462 92 319 q 231 686 204 604 q 263 799 250 744 q 269 851 269 829 q 265 883 269 872 q 251 898 260 893 q 233 902 242 903 q 215 899 225 901 q 151 849 181 888 q 96 713 108 792 q 96 635 90 679 q 85 613 99 619 q 64 628 71 607 q 55 671 58 644 q 59 750 51 697 q 90 853 67 803 q 153 933 115 903 q 203 961 175 951 q 233 968 204 963 q 269 968 246 971 q 328 925 308 961 q 346 857 342 900 q 333 739 347 810 q 301 603 321 672 q 255 449 282 535 q 221 338 228 363 q 165 128 181 208 q 225 133 199 132 q 417 111 332 139 q 488 81 443 103 q 524 58 513 65 m 267 556 q 243 494 244 501 q 221 431 242 489 q 201 364 200 374 q 267 556 257 501 m 232 517 q 216 472 226 503 q 206 433 206 440 q 229 492 213 449 q 246 554 246 536 q 232 517 242 543 m 215 590 q 192 531 211 585 q 175 471 174 476 l 176 471 q 190 508 190 503 q 204 547 192 511 q 215 590 217 583 m 210 525 q 201 502 208 521 q 184 460 193 483 q 172 426 175 436 q 189 457 186 451 q 203 493 194 467 q 210 525 211 519 m 149 404 q 158 422 158 418 q 160 430 158 424 q 165 442 163 436 q 169 455 168 449 q 169 463 171 461 q 158 435 167 461 q 149 404 149 410 m 310 93 q 314 91 310 92 q 322 90 318 90 q 326 89 325 89 q 346 83 332 86 q 364 81 360 79 q 310 93 325 100 m 363 51 q 350 60 353 58 q 335 65 346 63 q 321 65 324 68 q 331 61 322 64 q 349 55 339 58 q 363 51 358 51 m 342 44 q 326 51 329 51 q 317 53 325 51 q 302 56 308 56 q 292 54 296 57 q 317 47 294 51 q 342 44 339 40 m 344 42 q 356 35 346 39 q 368 33 365 32 l 361 39 q 353 42 361 39 q 344 42 346 44 m 338 104 q 355 99 342 104 q 381 91 368 94 q 399 89 394 88 q 358 104 393 93 q 310 111 324 115 q 338 104 333 104 z "},"M":{"ha":844,"x_min":-110,"x_max":956,"o":"m 856 329 q 876 342 863 346 q 885 318 890 339 q 878 300 885 318 q 867 265 872 282 q 851 224 861 249 q 828 169 842 199 q 797 111 814 140 q 740 32 772 65 q 699 -4 721 11 q 668 -18 676 -17 q 632 -24 646 -25 q 568 8 589 -28 q 549 79 551 35 q 558 197 547 125 q 675 603 586 349 q 657 575 675 603 q 610 503 639 547 q 546 406 581 460 q 476 299 511 353 q 411 201 440 246 q 363 128 382 157 q 342 100 343 100 q 299 94 329 96 q 239 96 269 92 q 235 100 235 97 q 242 148 236 111 q 258 240 247 185 q 285 369 268 296 q 321 510 303 443 q 376 699 344 599 q 253 458 294 535 q 64 150 149 260 q -18 55 24 94 q -78 6 -60 15 q -100 8 -92 -3 q -97 31 -108 19 q 10 161 -46 74 q 151 440 75 264 q 235 639 190 529 q 308 820 279 749 q 344 908 336 892 q 399 967 368 964 q 443 957 411 967 q 494 932 475 947 q 497 926 499 929 q 490 900 496 925 q 473 833 483 875 q 452 742 463 790 q 431 638 442 693 q 413 538 419 582 q 379 283 390 407 q 439 390 381 289 q 565 606 497 490 q 654 750 633 721 q 806 956 786 939 q 831 966 815 964 q 864 966 847 968 q 897 958 881 964 q 928 946 914 953 q 951 932 943 939 q 953 925 956 929 q 822 668 846 718 q 657 253 710 418 q 628 140 638 189 q 625 54 614 65 q 647 44 633 42 q 674 53 661 47 q 700 73 686 60 q 722 96 714 86 q 738 115 731 106 q 785 188 763 150 q 819 251 807 226 q 842 301 832 276 q 856 329 853 325 m 228 569 q 250 614 249 608 q 272 661 251 618 q 292 713 292 704 q 275 678 288 704 q 247 619 263 653 q 228 569 232 585 m 246 567 q 260 594 249 572 q 276 628 265 604 q 286 657 288 651 q 264 613 279 646 q 246 567 249 581 m 274 533 q 297 577 278 536 q 314 624 317 618 q 299 594 300 599 q 285 565 299 593 q 274 533 272 538 m 268 568 q 296 626 272 574 q 318 682 319 678 q 301 646 303 650 q 284 608 300 643 q 268 568 268 574 m 319 629 q 331 649 322 631 q 340 674 340 668 q 331 660 331 663 q 324 645 331 658 q 319 629 318 632 m 303 342 q 306 355 303 343 q 306 368 308 367 q 300 350 303 367 q 299 331 297 333 l 303 342 m 308 374 q 315 397 315 394 q 317 412 315 400 q 322 435 319 424 q 322 449 324 446 q 312 411 319 446 q 308 374 304 376 m 328 357 q 333 389 328 360 q 338 422 339 418 q 327 374 335 418 q 321 328 319 331 q 328 357 328 353 m 353 403 q 345 376 349 396 q 344 351 342 356 q 353 388 347 361 q 357 426 360 415 q 353 403 354 410 m 356 308 q 376 428 376 394 q 367 390 367 394 q 360 351 367 388 q 356 308 353 314 m 657 422 q 674 467 663 436 q 685 506 685 499 q 661 448 678 493 q 643 385 644 403 q 657 422 653 411 m 672 350 q 696 410 676 356 q 713 468 715 464 q 697 431 699 438 q 689 408 696 428 q 676 372 682 389 q 672 350 671 354 m 740 535 q 731 517 731 519 q 727 505 731 514 q 720 488 724 496 q 718 476 717 479 q 731 504 721 479 q 740 535 740 529 m 719 542 q 700 494 703 507 q 690 466 699 490 q 673 419 681 442 q 665 392 665 397 q 694 470 669 403 q 719 542 719 538 m 699 671 q 696 667 696 668 q 688 656 696 665 q 682 643 679 647 q 693 657 683 643 q 697 663 694 658 q 699 671 699 668 m 588 615 q 614 649 613 643 q 625 663 617 651 q 642 686 633 675 q 658 708 651 697 q 667 724 665 719 q 627 674 658 715 q 588 615 596 633 m 606 608 q 621 629 617 624 q 641 654 628 636 q 654 676 654 672 q 628 646 647 671 q 606 608 608 621 m 667 664 q 660 655 665 661 q 650 641 656 649 q 639 626 644 633 q 630 613 633 619 q 626 604 626 607 q 659 648 631 610 q 688 689 688 686 q 667 664 669 668 m 628 572 q 654 606 632 575 q 675 640 676 636 q 658 619 660 624 q 642 598 657 618 q 628 572 628 578 m 692 575 q 679 546 689 569 q 658 492 669 522 q 636 431 646 463 q 624 383 626 400 q 647 444 646 440 q 670 509 649 451 q 692 575 692 567 z "},"N":{"ha":914,"x_min":-106,"x_max":1006,"o":"m 1001 883 q 1003 878 1004 881 q 997 873 1001 876 q 984 863 992 869 q 969 849 976 857 q 903 769 939 818 q 735 501 824 664 q 592 208 654 353 q 572 160 585 193 q 550 100 560 126 q 531 51 540 74 q 517 28 521 29 q 474 19 504 22 q 414 22 443 17 q 410 26 410 22 q 421 172 419 117 q 422 467 421 196 q 436 757 422 639 q 274 463 347 590 q 71 165 164 278 q -14 74 28 111 q -74 25 -56 36 q -96 28 -87 17 q -93 51 -104 39 q 17 178 -40 94 q 171 450 88 281 q 228 571 199 507 q 281 688 257 635 q 324 787 304 742 q 357 865 343 832 q 375 908 371 899 q 428 965 399 963 q 474 958 442 967 q 526 933 506 949 q 528 928 529 932 q 525 924 528 926 q 493 814 496 874 q 492 786 492 800 q 503 521 488 683 q 517 392 508 465 q 526 293 525 318 q 585 416 549 340 q 710 658 622 492 q 857 913 799 825 q 926 951 890 963 q 963 928 938 949 q 1001 883 989 907 m 251 575 q 276 618 275 613 q 299 665 278 622 q 321 715 321 707 q 251 575 263 610 m 271 571 q 285 599 278 585 q 303 631 292 607 q 314 660 314 654 q 271 571 275 601 m 296 538 q 322 581 301 540 q 340 625 343 621 q 325 599 326 601 q 310 569 324 596 q 296 538 296 542 m 306 588 q 326 621 310 593 q 344 661 342 649 q 328 639 331 643 q 315 613 324 632 q 306 588 306 593 m 346 631 q 358 651 349 632 q 368 674 368 669 q 358 661 358 664 q 351 647 358 660 q 346 631 344 633 m 439 403 q 439 361 438 400 q 444 319 440 322 q 444 347 446 343 q 443 374 444 349 q 439 403 442 400 m 444 272 l 446 286 q 445 300 446 288 q 442 314 444 313 q 441 294 440 313 q 444 272 442 276 m 467 275 q 467 308 467 303 q 464 343 465 311 q 461 379 463 375 q 462 326 460 374 q 467 275 464 278 m 485 306 q 485 343 486 308 q 479 389 483 378 q 479 363 479 369 q 479 344 479 356 q 481 321 479 333 q 485 306 482 308 m 504 263 q 503 326 506 276 q 497 394 501 376 q 497 353 496 358 q 499 308 497 349 q 504 263 500 268 m 708 606 q 732 646 731 640 q 745 672 733 651 q 767 710 757 692 q 778 735 778 729 q 742 676 769 725 q 708 606 714 626 m 726 603 q 740 628 728 604 q 758 657 747 636 q 769 683 769 678 q 747 646 764 676 q 726 603 729 615 m 783 671 q 773 653 782 669 q 756 621 764 636 q 747 603 749 606 q 778 653 753 608 q 803 703 803 699 q 783 671 785 676 m 753 569 q 767 589 756 571 q 787 626 778 607 q 794 649 796 646 q 779 625 782 631 q 766 598 779 622 q 753 569 753 574 m 800 653 q 813 671 803 654 q 822 692 822 688 q 813 681 814 683 q 806 668 813 679 q 800 653 799 657 z "},"O":{"ha":692,"x_min":-14,"x_max":714,"o":"m 488 978 q 593 944 549 971 q 660 876 638 917 q 694 794 683 835 q 707 706 704 753 q 658 432 714 575 q 499 171 603 289 q 378 67 439 104 q 214 26 292 15 q 142 53 172 32 q 101 99 113 74 q 81 153 89 125 q 76 201 74 181 q 76 232 78 222 q 11 206 38 210 q 6 208 6 204 q -3 241 1 219 q -10 307 -7 263 q -4 396 -12 351 q 115 714 15 557 q 230 858 165 794 q 361 951 294 921 q 488 978 431 985 m 636 513 q 617 453 633 500 q 605 417 617 444 q 580 363 593 390 q 565 331 567 335 q 608 419 581 349 q 636 513 640 500 m 49 521 q 53 535 49 522 q 56 551 58 549 q 47 531 53 550 q 43 507 42 511 l 49 521 m 61 557 q 72 585 71 579 q 84 613 72 588 q 94 643 96 639 q 73 601 89 640 q 61 557 57 561 m 65 501 q 68 509 67 504 q 72 519 69 514 q 75 529 74 524 q 76 536 76 535 q 90 574 78 542 q 101 610 101 606 q 79 557 93 597 q 65 501 63 508 m 113 586 q 103 568 108 581 q 95 543 99 556 q 93 528 92 531 q 101 546 93 528 q 115 583 108 564 q 124 611 122 603 q 113 586 119 603 m 124 568 q 115 543 122 565 q 101 502 107 521 q 99 478 96 483 q 108 508 99 482 q 128 565 117 533 q 143 608 139 596 q 124 568 126 581 m 372 164 q 517 363 454 239 q 583 572 568 467 q 503 908 631 864 q 360 885 432 933 q 217 717 283 833 q 122 460 143 593 q 114 375 115 417 q 148 443 129 411 q 184 496 167 475 q 215 530 201 517 q 238 550 228 543 q 262 557 253 558 q 271 545 271 556 q 258 525 271 535 q 198 446 235 507 q 142 299 161 385 q 133 196 128 236 q 176 113 140 135 q 239 97 204 93 q 308 117 274 100 q 372 164 342 135 m 521 328 q 557 393 550 371 q 569 423 558 396 q 588 469 581 450 q 606 546 607 528 q 601 534 604 544 q 595 511 599 524 q 586 481 592 499 q 574 447 581 463 q 542 375 563 419 q 521 328 522 331 m 540 325 q 564 368 558 356 q 575 388 568 374 q 588 417 582 401 q 598 447 593 433 q 603 464 603 460 q 599 457 601 463 q 593 443 596 451 q 585 424 590 435 q 575 403 581 413 q 563 374 571 392 q 549 344 554 357 q 540 325 543 332 m 601 349 q 629 422 633 411 q 619 400 628 419 q 608 376 610 381 q 595 348 607 369 q 572 306 583 326 q 560 279 561 285 q 601 349 572 290 m 650 483 q 642 459 650 481 q 636 433 635 438 q 651 468 640 435 q 660 508 661 501 q 650 483 650 488 z "},"P":{"ha":679,"x_min":24,"x_max":744,"o":"m 710 885 q 726 733 744 822 q 678 607 714 667 q 515 436 618 508 q 290 342 407 358 q 225 160 249 244 q 197 31 218 139 q 181 21 196 21 q 165 32 167 21 q 171 154 163 78 q 217 378 182 260 q 247 469 231 422 q 278 558 263 517 q 305 628 293 599 q 328 685 317 657 q 342 715 340 713 q 385 751 358 753 q 428 740 397 750 q 481 715 460 729 q 483 710 485 713 q 463 675 481 707 q 421 602 444 643 q 366 501 397 561 q 310 388 335 442 q 309 385 310 386 q 307 382 308 383 q 461 460 389 407 q 592 596 539 518 q 651 785 656 693 q 622 857 650 835 q 543 882 596 878 q 496 883 521 885 q 454 878 463 879 q 376 849 417 869 q 337 826 356 838 q 301 802 318 814 q 272 780 285 790 q 247 758 260 769 q 226 740 233 746 q 210 724 219 733 q 200 713 200 714 q 155 672 171 682 q 124 661 139 661 q 75 672 106 663 q 28 699 44 682 q 28 707 24 701 q 56 744 38 722 q 120 808 75 767 q 217 885 165 850 q 438 979 333 963 q 508 982 464 983 q 576 974 544 981 q 649 946 619 963 q 710 885 689 924 m 447 960 q 414 956 444 963 q 381 943 383 949 q 390 944 385 944 q 403 947 400 946 q 425 954 404 949 q 447 960 446 957 m 526 924 q 479 925 514 928 q 439 917 444 922 q 494 921 485 921 q 535 919 510 921 q 567 918 560 918 q 526 924 546 922 m 568 899 q 538 905 560 901 q 508 908 515 908 q 442 901 453 904 q 382 879 393 892 q 392 883 383 879 q 410 889 400 886 q 435 895 419 892 q 464 900 450 899 q 568 899 499 904 m 553 957 q 572 953 561 956 q 591 950 583 951 q 600 949 599 949 q 574 958 597 953 q 529 965 551 964 q 505 965 517 965 q 483 965 493 965 q 466 963 472 964 q 458 960 460 961 q 504 960 476 960 q 553 957 518 961 m 354 529 q 349 519 354 528 q 347 507 344 510 q 356 522 350 508 q 361 538 363 535 l 354 529 m 343 504 q 332 485 332 488 q 324 464 332 483 q 317 440 315 444 q 326 456 318 442 q 339 486 333 471 q 343 504 344 501 m 268 472 q 284 503 283 500 q 299 538 285 507 q 311 574 313 568 q 287 525 304 563 q 268 472 269 488 m 286 468 q 294 488 290 478 q 306 511 299 494 q 313 532 314 528 q 296 501 307 524 q 286 468 285 479 m 328 522 q 316 497 326 521 q 306 468 306 472 q 325 508 308 472 q 340 547 342 544 q 328 522 329 526 z "},"Q":{"ha":726,"x_min":-14,"x_max":714,"o":"m 611 153 q 631 129 626 153 q 636 26 639 68 q 633 22 636 22 q 551 40 578 32 q 433 108 493 61 q 378 67 404 83 q 214 26 292 15 q 171 39 208 28 q 132 63 167 40 q 103 96 128 65 q 85 133 99 101 q 76 232 71 178 q 11 206 38 210 q 6 208 6 204 q -3 241 1 219 q -10 307 -7 263 q -4 396 -12 351 q 115 714 15 557 q 230 858 165 794 q 361 951 294 921 q 488 978 431 985 q 593 944 549 971 q 660 876 638 917 q 694 794 683 835 q 707 706 704 753 q 659 434 714 576 q 501 174 604 292 q 554 158 531 163 q 611 153 574 154 m 540 325 q 564 368 558 356 q 588 417 572 379 q 603 464 603 456 q 598 453 601 463 q 588 430 594 444 q 575 403 582 415 q 563 374 571 392 q 549 344 554 357 q 540 325 543 332 m 601 349 q 629 422 633 411 q 623 409 628 419 q 614 389 618 399 q 608 376 610 379 q 583 327 606 368 q 560 279 561 286 q 601 349 572 290 m 660 508 q 650 483 650 488 q 642 458 650 481 q 636 433 635 436 q 645 451 639 435 q 656 486 651 468 q 660 508 660 504 m 636 513 q 617 453 632 499 q 609 428 617 447 q 592 390 601 408 q 575 353 583 371 q 565 331 567 335 q 608 419 581 349 q 636 513 640 500 m 588 469 q 606 546 607 528 q 603 538 604 544 q 599 521 601 531 q 592 500 596 511 q 584 474 589 489 q 574 447 579 460 q 542 375 563 419 q 521 328 522 331 q 557 393 550 371 q 569 423 558 396 q 588 469 581 450 m 49 521 q 53 535 49 522 q 56 551 58 549 q 47 531 53 550 q 43 507 42 511 l 49 521 m 61 557 q 72 585 71 579 q 78 601 72 588 q 90 627 85 614 q 94 643 94 640 q 73 601 89 640 q 61 557 57 561 m 76 536 q 90 574 78 542 q 101 610 101 606 q 79 557 93 597 q 65 501 63 508 q 72 519 67 504 q 76 536 76 533 m 113 586 q 99 555 107 578 q 93 528 92 532 q 98 540 93 529 q 108 564 103 551 q 119 590 114 576 q 124 611 124 604 q 113 586 119 603 m 99 478 q 105 498 99 481 q 118 535 111 515 q 133 577 125 556 q 143 608 140 599 q 124 568 126 581 q 119 555 122 565 q 112 533 115 544 q 104 510 108 522 q 99 490 100 499 q 99 478 97 481 m 421 215 q 517 363 475 279 q 583 572 568 467 q 503 908 631 864 q 360 885 432 933 q 217 717 283 833 q 122 458 143 593 q 114 375 115 417 q 178 488 142 443 q 238 550 214 533 q 262 557 253 558 q 271 545 271 556 q 258 525 271 535 q 226 490 246 515 q 181 412 207 465 q 142 299 154 358 q 133 196 128 236 q 176 111 140 135 q 239 97 204 93 q 308 117 274 100 q 372 164 342 135 q 310 245 333 204 q 288 304 288 286 q 301 313 288 313 q 318 310 315 314 q 358 264 328 290 q 421 215 385 239 m 482 142 q 492 135 485 140 q 503 128 494 132 q 515 126 513 124 q 501 136 513 129 q 482 142 489 143 m 492 93 q 481 101 482 101 q 469 108 479 101 q 456 111 458 114 q 472 99 456 108 q 492 93 488 90 m 493 90 q 501 84 493 88 q 511 82 508 81 l 506 86 q 500 90 506 86 q 493 90 494 93 m 476 124 q 497 111 476 121 q 519 103 517 101 q 515 106 519 104 q 506 110 508 110 q 491 117 504 111 q 476 124 478 124 m 504 147 q 514 143 506 147 q 530 136 522 139 q 540 136 538 133 q 532 140 539 136 q 518 147 525 143 q 502 155 511 151 q 489 158 493 158 q 504 147 501 147 z "},"R":{"ha":819,"x_min":18,"x_max":790,"o":"m 781 82 q 790 66 789 81 q 781 49 790 51 q 732 42 767 44 q 632 47 697 40 q 510 74 567 54 q 346 168 417 107 q 275 244 306 201 q 229 107 246 168 q 217 58 222 83 q 208 18 211 33 q 203 -12 206 3 q 200 -29 200 -26 q 183 -40 199 -40 q 167 -28 168 -39 q 174 101 164 21 q 221 335 185 211 q 240 396 229 364 q 260 456 250 428 q 280 511 269 483 q 299 562 290 539 q 317 607 308 585 q 333 644 326 629 q 344 672 339 658 q 351 689 350 685 q 397 726 369 728 q 442 714 410 725 q 497 689 475 703 q 500 683 501 686 q 469 630 499 682 q 396 498 439 578 q 318 344 353 418 q 317 342 318 344 l 317 340 q 476 422 401 367 q 614 564 558 482 q 678 761 682 665 q 646 838 675 814 q 564 864 618 860 q 514 865 540 867 q 469 858 479 861 q 388 828 431 850 q 347 805 367 817 q 309 780 326 793 q 278 756 292 767 q 251 733 265 746 q 231 715 238 721 q 214 698 224 708 q 203 686 204 688 q 156 643 172 654 q 124 632 140 632 q 72 644 104 633 q 22 672 40 654 q 22 681 19 675 q 53 720 33 697 q 119 787 72 743 q 221 867 167 831 q 453 965 343 947 q 526 969 479 971 q 599 960 564 967 q 674 931 643 949 q 738 867 715 907 q 756 708 774 800 q 704 575 743 638 q 533 396 642 472 q 383 319 464 346 q 404 281 392 299 q 521 167 442 218 q 601 124 557 142 q 684 97 646 106 q 745 85 722 89 q 781 82 768 82 m 463 946 q 428 941 460 949 q 392 928 396 933 q 403 929 397 929 q 416 933 414 932 q 440 939 418 933 q 463 946 461 943 m 546 907 q 497 908 533 911 q 454 900 460 906 q 513 904 511 904 q 554 903 528 904 q 588 901 581 901 q 546 907 565 907 m 590 881 l 590 882 q 558 888 581 885 q 526 892 535 892 q 457 885 468 886 q 394 861 407 874 q 404 865 394 861 q 424 871 414 868 q 449 877 433 874 q 479 883 465 881 q 590 881 517 888 m 574 942 q 594 938 582 940 q 613 935 606 936 q 624 935 621 933 q 596 943 619 938 q 549 950 572 949 q 515 951 531 953 q 488 949 499 950 q 475 946 476 947 q 522 946 493 946 q 574 942 538 947 m 365 493 q 360 483 365 493 q 358 471 356 474 q 367 486 360 472 q 372 503 374 500 l 365 493 m 353 467 q 342 447 343 450 q 333 426 342 446 q 325 401 324 406 q 342 434 329 404 q 353 467 356 464 m 274 433 q 291 467 290 464 q 306 503 292 471 q 319 540 321 535 q 307 516 317 535 q 286 472 297 497 q 274 433 275 446 m 293 429 q 303 451 297 438 q 315 475 307 457 q 321 497 322 493 q 304 465 315 489 q 293 431 293 442 l 293 429 m 338 488 q 325 459 336 485 q 314 429 314 433 q 335 472 318 433 q 350 513 351 510 q 338 488 338 490 m 439 206 q 436 211 440 207 q 428 218 432 215 q 421 221 424 221 q 425 214 424 214 q 431 209 425 214 q 439 206 436 204 m 442 126 q 420 144 424 143 q 397 163 417 146 q 372 182 376 181 q 401 152 375 175 q 442 126 428 129 m 450 144 q 443 150 449 146 q 436 154 438 154 q 407 176 413 176 q 415 167 407 174 q 433 152 422 160 q 450 144 443 144 m 419 189 q 425 185 421 188 q 433 178 429 182 q 442 172 438 175 q 451 166 447 168 q 457 164 454 164 q 448 172 456 165 q 431 185 440 178 q 415 197 422 192 q 406 203 407 203 q 419 189 415 190 m 451 189 q 465 180 453 189 q 481 172 478 171 q 462 190 479 176 q 440 201 444 203 q 451 189 449 190 z "},"S":{"ha":472,"x_min":-65,"x_max":558,"o":"m 535 836 q 549 708 558 778 q 543 674 547 692 q 534 641 539 656 q 523 610 529 626 q 511 583 517 594 q 499 560 506 572 q 489 541 493 547 q 480 527 485 535 q 475 519 475 519 q 440 511 463 500 q 426 520 436 514 q 406 535 417 526 q 382 554 394 543 q 360 575 369 565 q 358 578 357 578 q 365 585 358 579 q 381 600 372 592 q 400 621 389 608 q 422 647 411 633 q 444 677 433 660 q 464 711 456 694 q 486 818 489 764 q 403 790 444 807 q 196 665 282 740 q 133 588 160 633 q 118 496 107 543 q 143 453 124 476 q 192 407 163 429 q 248 367 222 385 q 304 329 274 349 q 344 304 335 310 q 395 242 382 278 q 400 176 408 207 q 376 122 392 146 q 344 86 361 97 q 275 51 311 63 q 143 31 215 31 q -15 65 63 33 q -60 119 -65 89 q -42 160 -58 132 q -6 207 -25 189 q -1 208 -3 210 q 4 203 0 207 q 13 196 8 200 q 26 186 18 192 q 44 175 35 181 q 67 164 54 169 q 94 153 81 158 q 200 138 147 136 q 274 153 236 139 q 318 193 313 168 q 305 221 319 204 q 266 255 290 238 q 210 294 242 272 q 150 339 179 317 q 94 390 121 361 q 56 443 68 418 q 43 568 26 501 q 106 690 58 628 q 195 785 144 740 q 294 860 246 831 q 371 905 342 890 q 421 929 400 919 q 483 926 464 947 q 508 888 488 921 q 535 836 528 854 m 275 92 q 251 85 268 89 q 199 76 207 81 q 236 78 206 74 q 275 92 267 82 m 171 94 q 187 93 176 93 q 201 94 197 93 q 213 95 204 94 q 233 98 222 96 q 251 102 243 100 q 263 107 260 104 q 254 106 261 107 q 237 102 247 104 q 217 99 226 100 q 171 94 172 94 m 243 125 q 210 117 213 121 q 222 116 214 115 q 232 118 229 117 q 244 120 232 118 q 265 126 257 122 q 275 133 274 129 q 243 125 271 132 m 204 118 q 188 119 203 119 q 171 117 174 119 l 182 114 q 194 115 183 114 q 204 118 204 115 m 256 64 q 285 75 276 69 q 244 67 247 68 q 199 61 238 64 q 157 57 161 58 q 215 57 188 54 q 256 64 228 58 m 231 740 q 270 767 238 744 q 304 792 303 789 q 279 778 288 785 q 272 772 278 776 q 259 764 265 768 q 247 755 253 760 q 235 746 240 750 q 231 740 231 742 m 197 761 q 213 772 199 763 q 229 783 226 781 q 263 806 233 788 q 296 831 293 825 q 247 802 286 828 q 197 761 208 776 m 213 750 q 218 754 214 751 q 226 760 222 757 q 232 764 231 763 q 272 794 268 783 q 242 776 265 792 q 213 750 218 761 m 226 711 q 256 731 231 713 q 282 754 282 750 q 263 743 264 744 q 251 734 261 740 q 234 721 242 728 q 226 711 226 714 m 288 754 q 303 762 290 754 q 317 772 315 769 q 306 769 307 771 q 297 763 306 768 q 288 754 288 758 m 449 642 q 451 647 449 643 q 451 653 454 651 q 446 647 450 653 q 443 639 442 642 l 449 642 m 456 654 q 461 663 461 660 q 466 672 461 663 q 468 683 471 681 q 459 670 465 683 q 456 654 453 657 m 471 639 q 475 647 472 640 q 481 658 478 653 q 483 667 483 664 q 472 647 481 664 q 464 626 463 629 q 471 639 471 636 m 496 651 q 489 640 493 649 q 486 629 485 632 q 497 643 489 631 q 501 661 504 656 l 501 663 q 496 651 499 657 m 492 603 q 508 626 496 606 q 518 656 519 646 l 518 657 q 508 640 508 642 q 499 622 508 638 q 492 603 490 606 z "},"T":{"ha":529,"x_min":-100,"x_max":696,"o":"m 679 914 q 690 870 685 903 q 693 813 696 838 q 690 808 693 808 q 399 818 661 810 q 381 786 388 800 q 265 501 314 663 q 201 193 218 346 q 192 21 196 144 q 176 5 190 7 q 160 18 163 3 q 149 175 149 79 q 171 467 147 321 q 244 757 196 621 q 269 824 256 790 q -86 838 -51 836 q -97 853 -96 839 q -87 869 -99 867 q 307 908 -53 876 q 311 917 310 914 q 367 965 336 967 q 410 952 379 965 q 460 922 440 939 q 460 921 460 921 q 626 935 597 933 q 679 914 668 939 m 218 597 q 233 640 232 635 q 249 687 235 646 q 264 735 264 728 q 238 671 257 724 q 218 597 219 618 m 236 597 q 246 624 242 614 q 264 683 267 672 q 255 663 261 679 q 242 627 249 647 q 236 597 236 607 m 257 600 q 276 655 260 607 q 293 707 293 703 q 279 674 281 683 q 272 653 278 671 q 262 620 267 636 q 257 600 257 604 m 269 569 q 285 612 272 574 q 294 653 297 650 q 283 628 285 631 q 275 600 283 626 q 269 569 267 574 m 300 658 q 308 677 301 660 q 314 699 315 694 l 307 686 q 302 674 307 686 q 300 658 297 661 m 436 879 q 433 875 433 878 q 447 879 444 876 q 436 879 444 879 m 422 860 q 421 857 421 858 q 474 860 471 857 l 474 861 q 444 861 449 861 q 422 860 442 860 m 435 839 q 411 840 414 842 q 409 838 410 840 q 407 835 408 836 q 435 839 432 836 m 439 836 q 456 835 440 835 q 475 838 471 835 l 463 840 q 451 840 463 839 q 439 836 440 840 m 444 893 q 485 897 479 894 q 449 899 476 899 q 444 893 447 899 z "},"U":{"ha":542,"x_min":-15,"x_max":749,"o":"m 568 121 q 590 131 576 135 q 597 108 603 126 q 568 53 586 79 q 517 0 544 19 q 468 -19 496 -15 q 404 -11 440 -24 q 364 24 374 3 q 347 82 350 49 q 357 210 343 133 q 367 249 358 214 q 310 172 340 208 q 243 100 281 135 q 146 39 188 51 q 15 86 60 13 q -14 214 -12 132 q 17 447 -15 308 q 75 647 39 539 q 168 881 122 783 q 240 961 204 956 q 285 951 257 963 q 335 918 314 940 q 335 911 338 914 q 316 885 331 907 q 276 815 301 863 q 225 715 250 768 q 175 577 204 671 q 122 383 146 483 q 94 208 99 282 q 117 125 89 133 q 199 150 154 118 q 285 235 244 182 q 354 331 326 289 q 400 410 382 374 q 457 538 432 471 q 513 682 483 608 q 564 807 543 756 q 589 868 585 858 q 616 917 604 903 q 643 935 628 932 q 690 932 657 938 q 744 913 722 926 q 746 906 747 910 q 724 860 743 897 q 682 775 706 824 q 622 653 658 726 q 554 515 585 579 q 432 222 469 335 q 404 96 408 147 q 408 50 403 65 q 424 31 411 38 q 450 24 438 25 q 474 26 463 22 q 494 35 486 31 q 513 48 503 39 q 526 62 522 57 q 538 75 531 67 q 568 121 547 88 m 475 479 q 483 494 476 481 q 490 513 489 508 q 501 534 494 519 q 513 565 507 549 q 519 585 519 581 q 495 534 513 572 q 475 479 478 496 m 504 444 q 528 497 508 450 q 546 549 549 543 q 531 517 532 522 q 516 482 529 514 q 504 444 503 450 m 565 590 q 557 574 564 589 q 551 556 550 558 q 565 578 556 557 q 574 606 575 600 q 565 590 565 593 m 551 588 q 533 563 538 567 q 519 531 529 554 q 511 503 510 508 q 521 522 513 506 q 539 559 529 539 q 551 588 549 579 m 526 646 q 490 567 517 629 q 457 481 463 506 q 481 533 479 526 q 504 589 482 539 q 526 646 526 639 m 133 560 q 126 540 133 558 q 122 518 119 522 q 133 547 124 521 q 142 579 143 574 q 133 560 133 564 m 31 417 q 40 447 31 419 q 50 482 49 475 q 72 550 51 490 q 93 619 93 610 q 58 526 85 603 q 31 417 32 449 m 50 419 q 52 428 50 421 q 56 440 54 435 q 59 451 57 446 q 61 460 61 457 q 88 547 88 526 q 65 488 81 536 q 50 419 50 439 m 82 386 q 101 449 85 393 q 117 510 118 506 q 101 471 103 476 q 97 454 101 468 q 90 427 93 440 q 83 401 86 414 q 82 386 81 389 z "},"V":{"ha":540,"x_min":-29,"x_max":629,"o":"m 594 947 q 614 960 600 961 q 625 940 628 958 q 575 767 618 875 q 429 467 524 631 q 260 199 353 329 q 129 26 168 69 q 58 -17 89 -22 q 17 4 44 -14 q -25 44 -11 22 q -25 50 -28 47 q 48 435 -4 71 q 100 903 100 800 q 126 964 100 953 q 168 973 138 969 q 228 972 199 976 q 232 968 232 972 q 210 622 233 807 q 163 332 188 436 l 139 228 q 325 458 246 347 q 518 767 440 618 q 594 947 571 868 m 178 699 q 176 685 178 699 q 178 671 175 671 q 182 690 181 672 q 182 713 183 708 l 178 699 m 175 665 q 169 638 169 642 q 167 609 169 635 q 167 581 164 583 q 174 622 169 583 q 175 665 178 661 m 158 672 q 155 647 156 665 q 156 624 154 629 q 162 658 157 631 q 165 694 167 685 q 158 672 160 676 m 118 640 q 122 684 118 643 q 122 732 126 725 q 111 599 107 632 q 118 640 118 631 m 133 628 q 137 657 135 636 q 138 685 139 678 q 129 600 124 624 q 133 628 131 613 m 314 349 q 305 335 313 346 q 294 322 297 325 q 271 291 286 313 q 254 264 256 269 q 287 303 264 274 q 314 349 310 333 m 293 386 q 282 373 292 385 q 262 347 272 361 q 243 319 251 332 q 235 304 235 306 q 256 329 254 325 q 275 356 257 331 q 293 386 293 381 m 199 258 q 210 271 210 268 q 220 283 211 271 q 228 299 229 296 q 212 281 225 299 q 199 258 199 264 m 276 336 q 224 268 232 283 q 244 288 240 285 q 264 313 251 294 q 276 336 276 331 m 236 210 q 285 270 247 219 q 332 343 322 321 q 300 301 304 307 q 267 256 297 296 q 236 210 238 217 z "},"W":{"ha":871,"x_min":-3,"x_max":949,"o":"m 943 931 q 947 926 947 929 q 907 757 942 865 q 786 451 860 607 q 695 294 757 390 q 558 113 633 199 q 443 29 483 28 q 409 47 424 29 q 388 95 394 64 q 379 161 382 126 q 378 242 376 196 q 383 322 381 288 q 392 399 386 357 q 401 459 399 442 q 407 497 403 476 q 408 504 408 503 q 403 492 407 503 q 397 475 399 481 q 263 196 335 319 q 164 46 206 96 q 97 7 128 -1 q 1 193 6 29 q 1 199 1 197 q 31 493 -1 313 q 73 693 47 588 q 117 860 99 799 q 144 949 135 921 q 193 1006 164 1001 q 235 998 210 1007 q 289 968 261 989 q 292 964 292 965 q 281 946 289 963 q 258 896 272 929 q 228 825 243 863 q 124 526 169 679 q 54 217 67 340 q 53 111 47 153 q 122 190 89 149 q 297 460 210 300 q 436 758 375 601 q 496 929 463 825 q 554 933 497 939 q 635 914 611 928 q 638 910 639 913 q 571 699 607 819 q 497 440 535 578 q 442 204 460 303 q 439 94 424 106 q 481 131 447 88 q 563 254 515 174 q 660 432 611 335 q 751 647 710 529 q 808 868 792 765 q 840 926 815 917 q 883 933 854 931 q 943 931 911 936 m 521 668 q 517 655 521 667 q 515 640 513 643 q 523 659 518 642 q 526 681 528 676 l 521 668 m 511 635 q 503 610 503 615 q 497 583 503 608 q 493 554 490 558 q 505 595 496 558 q 511 635 514 632 m 497 644 q 490 621 493 639 q 488 599 486 603 q 507 665 504 636 q 497 644 499 649 m 478 661 q 465 623 474 654 q 458 578 457 592 q 465 604 460 586 q 474 635 468 614 q 478 661 479 657 m 440 594 q 439 578 439 583 q 451 619 451 614 q 457 640 451 624 q 440 594 450 622 m 163 718 q 160 710 163 717 q 156 697 157 703 q 157 689 154 692 q 165 708 158 690 q 169 731 171 726 l 163 718 m 151 683 q 142 656 142 661 q 134 628 142 654 q 128 597 126 601 q 143 640 132 601 q 151 683 154 679 m 138 694 q 128 668 133 688 q 125 644 124 649 q 138 678 128 650 q 150 715 147 706 q 138 694 139 697 m 103 651 q 114 683 107 661 q 119 711 121 706 q 105 669 115 701 q 94 624 94 638 q 99 638 96 626 q 103 651 103 649 m 117 763 q 105 731 114 757 q 86 672 96 706 q 76 624 76 639 q 90 668 90 663 q 105 714 92 672 q 117 763 118 756 m 304 357 q 299 349 303 356 q 293 338 296 343 q 289 331 290 333 q 258 275 258 288 q 284 313 267 283 q 304 357 301 343 m 278 390 q 253 351 274 388 q 233 310 232 314 q 250 335 249 331 q 256 346 251 338 q 266 363 261 354 q 274 379 271 371 q 278 390 278 388 m 215 278 q 223 291 215 279 q 228 306 231 303 q 215 288 225 306 q 206 267 206 271 q 215 278 215 276 m 228 278 q 246 296 243 293 q 260 321 251 303 q 269 343 269 339 q 228 278 233 289 m 249 222 q 287 282 257 232 q 322 353 317 332 q 297 311 300 319 q 272 268 296 307 q 249 222 249 229 m 751 554 q 769 596 767 586 q 778 622 769 600 q 792 663 786 643 q 796 688 799 683 q 789 667 796 686 q 774 629 782 649 q 760 588 767 610 q 751 554 753 565 m 781 578 q 792 610 785 588 q 799 638 800 632 q 769 551 771 576 q 775 565 771 554 q 781 578 779 576 m 815 628 q 802 592 814 624 q 790 554 790 560 q 812 608 794 558 q 828 663 829 658 q 815 628 815 633 m 800 522 q 819 565 804 525 q 831 608 833 604 q 819 581 819 585 q 808 552 818 578 q 800 522 799 526 m 835 614 q 844 633 838 614 q 850 656 850 651 l 843 643 q 838 629 843 642 q 835 614 833 617 z "},"X":{"ha":576,"x_min":-117,"x_max":768,"o":"m 693 932 q 731 906 707 929 q 765 858 756 883 q 764 853 767 854 q 760 849 764 853 q 751 844 756 846 q 719 818 736 831 q 618 726 672 776 q 332 446 485 603 q 322 436 324 438 q 317 310 318 360 q 319 193 315 243 q 343 94 326 125 q 367 69 350 81 q 399 65 379 63 q 465 110 428 69 q 549 240 506 156 q 582 317 568 279 q 601 331 588 333 q 611 308 615 329 q 524 101 579 190 q 457 28 490 51 q 401 5 433 10 q 336 13 369 0 q 258 115 283 39 q 236 229 244 160 q 229 339 232 279 q 56 149 126 229 q -31 42 6 90 q -81 -25 -68 -6 q -103 -32 -90 -37 q -108 -8 -115 -26 q -1 160 -85 43 q 224 450 86 283 q 228 454 226 453 q 224 643 226 604 q 196 863 219 793 q 182 915 183 901 q 186 942 181 928 q 211 978 190 950 q 254 1021 236 1013 q 263 1017 258 1022 q 306 933 290 981 q 332 764 328 867 q 331 578 336 693 q 611 889 529 811 q 661 928 639 917 q 693 932 676 935 m 251 489 q 251 516 251 494 q 253 559 251 538 q 253 600 254 581 q 250 625 253 619 q 249 606 250 622 q 248 569 249 589 q 247 524 247 550 q 246 476 246 497 q 248 481 246 478 q 251 483 250 483 q 251 489 251 488 m 269 506 q 268 558 271 550 q 264 499 265 536 q 267 502 265 500 q 269 506 268 504 m 296 536 q 296 576 297 565 q 290 542 290 547 q 289 529 289 538 q 292 533 290 531 q 296 536 294 535 m 311 556 q 310 604 314 596 l 307 583 q 308 569 308 582 q 307 550 307 556 q 310 553 308 551 q 311 556 311 554 m 349 569 q 390 611 385 603 q 431 654 393 614 q 472 701 469 694 q 452 683 468 699 q 416 646 436 667 q 376 603 396 625 q 349 569 357 582 m 475 639 q 450 619 454 624 q 425 595 442 614 q 408 571 408 576 q 419 582 410 574 q 439 601 428 590 q 460 622 450 611 q 475 639 471 633 m 367 563 q 380 576 369 565 q 392 588 390 586 q 422 618 401 596 q 444 646 442 640 q 403 606 432 636 q 367 563 374 576 m 381 519 q 422 560 386 522 q 457 603 457 597 q 431 578 433 582 q 406 551 429 576 q 381 519 382 525 m 465 607 q 485 624 468 607 q 503 647 501 642 q 489 636 490 639 q 476 623 488 635 q 465 607 464 611 z "},"Y":{"ha":663,"x_min":-11,"x_max":757,"o":"m 753 953 q 754 946 757 951 q 711 854 753 942 q 610 631 669 767 q 508 371 551 496 q 399 -31 432 161 q 374 -236 372 -174 q 358 -296 379 -282 q 316 -316 347 -304 q 261 -329 285 -328 q 256 -326 257 -329 q 250 -162 246 -219 q 303 139 256 -26 q 361 319 326 224 q 256 178 308 239 q 156 92 199 115 q 65 83 106 63 q 30 112 46 92 q 7 153 14 132 q -8 294 -11 203 q 10 424 -4 351 q 69 649 29 525 q 171 908 117 792 q 247 999 210 992 q 293 992 265 1003 q 343 958 324 981 q 343 951 346 956 q 322 922 339 947 q 278 843 306 896 q 224 732 250 790 q 135 510 172 621 q 78 253 83 354 q 81 193 75 217 q 88 169 82 182 q 94 157 90 161 q 118 154 103 149 q 167 185 138 163 q 326 363 244 249 q 380 440 354 399 q 427 519 406 481 q 468 597 449 558 q 504 672 488 635 q 534 739 521 708 q 558 799 547 769 q 576 847 569 829 q 590 883 583 865 q 596 903 596 901 q 651 975 622 968 q 669 976 656 976 q 696 973 682 975 q 726 965 710 971 q 753 953 742 960 m 126 556 q 119 533 126 554 q 115 510 113 513 q 127 542 118 513 q 136 576 136 571 q 126 556 126 560 m 113 550 q 96 514 99 519 q 83 472 90 503 q 76 433 75 440 q 85 460 76 436 q 101 512 93 485 q 113 550 110 539 m 24 390 q 33 427 25 397 q 43 464 42 457 q 65 542 44 475 q 88 618 86 610 q 53 519 69 576 q 24 390 26 436 m 54 440 q 79 539 81 526 q 58 472 74 526 q 43 394 42 417 q 54 440 51 433 m 94 456 q 88 429 94 453 q 78 385 82 406 q 76 361 74 365 q 110 500 111 490 l 108 500 q 94 456 97 469 m 285 -44 q 287 -31 285 -44 q 286 -17 289 -18 q 283 -28 285 -18 q 281 -46 281 -37 q 282 -58 281 -54 l 285 -44 m 290 -11 q 296 15 296 13 q 300 44 294 19 q 303 72 306 68 q 296 51 300 71 q 290 13 292 31 q 290 -11 288 -6 m 306 -19 q 310 6 308 -12 q 310 29 313 24 q 303 -3 308 24 q 297 -40 297 -31 q 306 -19 304 -22 m 326 -32 q 335 7 329 -24 q 339 50 340 38 l 338 50 q 335 37 338 47 q 332 24 333 26 q 327 -6 329 15 q 326 -32 325 -28 m 344 -50 q 353 38 347 -8 q 347 10 347 15 q 344 -16 347 6 q 339 -53 340 -37 q 340 -78 338 -68 q 343 -56 340 -75 q 343 -53 343 -56 q 344 -50 343 -51 m 538 671 q 513 608 532 658 q 513 594 514 603 q 538 671 539 661 m 506 529 q 523 569 513 540 q 532 606 533 599 q 493 494 494 529 q 506 529 499 510 m 522 461 q 545 516 526 467 q 561 571 564 565 q 546 536 547 540 q 539 515 546 532 q 527 481 532 497 q 522 461 522 465 m 528 521 q 545 563 531 526 q 564 611 560 599 q 549 583 551 589 q 535 551 543 575 q 528 521 526 526 m 515 500 q 542 571 519 508 q 565 639 565 633 q 547 594 549 600 q 531 549 546 592 q 515 500 515 507 m 567 578 q 578 603 569 579 q 588 631 588 626 q 578 614 578 618 q 571 597 578 613 q 567 578 564 581 z "},"Z":{"ha":838,"x_min":0,"x_max":833,"o":"m 722 164 q 774 135 765 161 q 776 92 776 128 q 768 32 775 57 q 764 29 767 28 q 643 50 669 47 q 400 67 533 65 q 257 62 353 68 q 91 49 161 56 q 15 42 21 43 q 3 53 6 40 q 7 72 1 65 q 344 503 17 83 q 674 924 672 922 q 136 853 354 878 q 88 872 99 849 q 77 916 83 883 q 72 974 71 949 q 75 978 72 978 q 775 965 671 978 q 829 938 800 963 q 831 931 833 935 q 663 715 824 918 q 344 317 503 513 l 188 121 q 353 147 267 138 q 585 166 460 163 q 722 164 711 169 m 301 938 q 320 938 307 936 q 336 942 333 939 q 313 942 332 942 q 283 942 293 943 q 301 938 297 938 m 338 918 q 314 918 331 919 q 294 914 297 917 q 322 913 296 913 q 357 918 349 914 q 338 918 346 918 m 300 957 q 285 958 299 958 q 268 954 271 957 l 279 953 q 289 953 279 953 q 300 957 299 953 m 261 894 q 310 894 274 893 q 361 900 347 896 l 361 901 q 329 901 333 903 q 296 899 326 900 q 261 894 265 897 m 325 953 q 346 955 326 954 q 367 958 365 956 q 335 960 364 961 q 304 954 306 958 q 325 953 322 953 m 493 583 q 503 597 494 586 q 514 611 513 608 q 539 642 522 619 q 557 671 556 665 q 522 628 546 658 q 493 583 499 599 m 511 544 q 531 565 515 546 q 562 606 547 585 q 575 631 576 626 q 553 604 556 608 q 533 576 553 601 q 511 544 513 550 m 614 678 q 601 665 603 668 q 592 651 601 664 q 582 635 582 639 q 592 645 585 636 q 607 665 600 654 q 614 678 614 675 m 532 596 q 560 628 538 601 q 588 667 582 656 q 567 646 571 650 q 546 620 560 639 q 532 596 532 601 m 576 728 q 475 590 494 628 q 510 632 506 625 q 543 677 511 635 q 576 728 575 719 m 522 83 q 500 86 503 88 q 476 86 499 86 q 453 82 453 86 q 488 81 457 81 q 522 83 519 81 m 465 122 q 476 122 467 122 q 488 121 486 121 q 536 122 528 115 q 505 126 528 125 q 465 122 482 126 m 526 81 q 544 78 529 79 q 561 81 558 78 l 550 83 q 538 84 549 83 q 526 81 528 85 m 474 103 q 517 101 478 101 q 561 104 557 101 q 533 106 540 107 q 515 105 528 104 q 490 105 503 106 q 474 103 476 104 m 497 138 q 537 138 501 139 q 574 140 572 138 q 524 144 564 143 q 461 140 485 144 q 497 138 493 138 z "},"[":{"ha":426,"x_min":-7,"x_max":360,"o":"m 156 -111 q 147 -111 153 -111 q 61 -81 96 -111 q 3 38 15 -42 q 4 178 -7 97 l 6 190 q 135 832 53 710 q 243 921 171 886 q 328 950 292 946 l 332 950 q 350 938 344 950 q 356 893 358 921 q 342 850 353 865 q 313 828 336 843 q 303 822 304 824 q 288 813 297 818 q 254 792 267 801 q 214 749 231 775 q 197 708 203 728 q 138 424 193 696 q 81 144 82 151 q 78 25 71 60 q 90 -22 81 -1 q 113 -57 99 -43 q 182 -90 136 -79 q 196 -96 194 -93 l 194 -97 l 196 -100 q 156 -111 190 -108 z "},"\\":{"ha":617,"x_min":65,"x_max":554,"o":"m 464 261 q 528 94 503 176 q 546 1 553 13 l 542 0 q 483 85 533 0 q 388 253 432 169 q 151 678 347 331 q 94 779 106 760 l 89 790 q 71 821 76 814 q 72 832 67 826 q 92 846 81 839 q 115 858 104 853 q 135 865 125 863 q 151 867 144 867 q 154 867 153 867 q 211 803 182 863 q 464 261 364 489 m 236 585 q 238 581 236 583 q 238 581 238 581 q 236 585 238 582 m 243 571 q 257 546 254 549 q 244 568 254 549 q 243 570 243 569 q 243 571 243 571 m 267 550 l 261 557 q 299 489 286 508 q 284 517 297 492 q 267 550 271 543 m 269 521 q 317 431 304 444 q 292 478 314 435 q 279 503 281 499 q 269 521 278 507 m 313 497 l 331 464 q 286 547 321 485 q 313 497 303 513 m 342 469 l 344 464 q 271 604 328 497 q 294 558 279 589 q 315 517 313 524 q 342 469 319 508 z "},"]":{"ha":449,"x_min":67,"x_max":432,"o":"m 97 -111 l 93 -111 q 75 -99 82 -111 q 70 -54 67 -82 q 85 -11 74 -26 q 117 14 90 -4 l 122 17 q 139 26 128 21 q 171 47 158 39 q 211 90 194 64 q 229 132 222 111 q 288 415 232 143 q 344 696 343 688 q 349 815 354 779 q 313 896 340 868 q 243 929 289 918 q 229 935 231 932 l 231 938 l 229 939 q 269 950 235 947 q 278 950 274 950 q 364 919 329 950 q 422 801 410 881 q 421 661 432 743 l 419 650 q 292 7 372 131 q 182 -82 254 -47 q 97 -111 133 -107 z "},"_":{"ha":760,"x_min":42,"x_max":718,"o":"m 646 -43 q 698 -57 679 -43 q 718 -90 717 -71 q 713 -112 718 -101 q 695 -129 707 -122 q 668 -137 683 -136 q 619 -139 651 -139 q 301 -129 535 -139 l 240 -128 q 194 -126 211 -126 q 150 -123 178 -125 q 107 -118 122 -121 q 74 -111 92 -115 q 49 -99 57 -107 q 42 -83 42 -92 q 51 -67 42 -74 q 84 -58 61 -61 q 126 -53 107 -54 q 182 -50 144 -51 q 228 -47 215 -49 q 557 -43 300 -43 l 646 -43 z "},"a":{"ha":514,"x_min":-17,"x_max":601,"o":"m 568 307 q 589 310 576 318 q 594 290 601 303 q 543 185 569 236 q 486 88 513 125 q 439 33 463 56 q 422 20 432 26 q 399 8 413 14 q 374 2 386 3 q 347 6 361 1 q 301 35 317 15 q 276 88 282 58 q 274 157 269 118 q 263 139 264 139 q 258 131 261 136 q 233 92 243 106 q 203 57 224 78 q 158 21 182 36 q 107 6 131 7 q 50 21 78 4 q -6 115 4 49 q 24 299 -15 197 q 106 439 53 374 q 265 565 175 524 q 350 568 326 593 q 369 535 358 561 q 382 485 379 510 q 407 533 392 504 q 460 579 432 581 q 503 567 472 579 q 554 538 535 554 q 556 532 557 535 q 443 350 490 436 q 369 189 393 256 q 354 110 354 143 q 363 82 353 89 q 384 77 374 75 q 400 83 394 79 q 442 124 419 99 q 504 208 468 156 q 533 253 517 229 q 556 289 549 276 q 568 307 564 301 m 356 197 q 364 218 357 200 q 377 255 371 236 q 382 276 383 274 q 371 253 372 258 q 366 237 371 250 q 358 212 361 224 q 356 197 354 200 m 396 308 q 390 297 396 308 q 388 282 385 285 q 397 300 390 283 q 404 321 404 317 l 396 308 m 383 308 q 369 289 371 292 q 359 264 365 282 q 354 242 353 246 q 383 308 382 306 m 335 306 q 354 358 356 351 q 332 310 349 350 q 335 306 333 308 m 142 350 q 139 345 142 349 q 133 338 136 342 q 128 330 131 333 q 128 324 126 326 q 140 340 129 325 q 153 360 151 356 q 142 350 143 353 m 86 286 q 129 351 118 335 q 111 333 114 338 q 96 310 106 329 q 86 286 86 292 m 121 319 q 106 296 107 301 q 97 281 104 294 q 85 255 90 267 q 82 239 81 243 q 103 279 83 239 q 121 319 122 317 m 35 271 q 41 285 36 275 q 51 304 46 294 q 58 317 57 314 q 86 365 61 329 q 115 410 115 407 q 72 353 89 381 q 33 271 40 304 l 35 271 m 53 269 q 67 297 57 279 q 99 357 97 351 q 72 318 92 351 q 53 269 53 285 m 308 307 q 321 343 314 322 q 374 465 344 403 q 246 415 308 457 q 143 313 192 379 q 79 171 94 246 q 78 101 69 131 q 107 75 85 78 q 160 99 128 72 q 208 150 188 124 q 255 217 233 183 q 291 278 276 251 q 307 306 306 304 q 308 307 307 306 m 332 250 q 353 307 354 297 q 335 269 347 300 q 322 224 322 238 q 332 250 328 239 z "},"b":{"ha":476,"x_min":-36,"x_max":492,"o":"m 482 504 q 481 397 490 461 q 419 225 465 315 q 367 139 397 181 q 316 76 336 97 q 281 42 296 54 q 189 14 222 -6 q 160 50 176 21 q 140 107 143 79 q 142 111 139 111 q 192 135 164 117 q 289 228 242 167 q 379 388 347 303 q 397 476 397 439 q 397 485 397 481 q 392 499 396 490 q 382 510 389 507 q 361 508 375 513 q 328 488 347 503 q 269 432 300 465 q 186 315 225 381 q 140 221 160 268 q 106 65 111 110 q 94 32 101 42 q 74 19 86 22 q -31 19 15 10 q -35 25 -35 21 q 23 226 -35 39 q 104 474 81 413 q 206 710 149 593 q 288 868 263 828 q 344 910 315 914 q 354 906 347 908 q 369 900 361 904 q 387 891 378 896 q 406 880 396 886 q 424 867 415 874 q 426 846 433 858 q 224 475 304 656 q 282 542 257 519 q 324 574 304 563 q 388 592 347 592 q 450 564 425 588 q 482 504 475 542 m 106 256 q 131 325 131 308 q 121 303 125 313 q 110 278 117 296 q 106 256 104 260 m 169 585 q 190 621 190 618 q 211 660 192 625 q 231 703 231 696 q 198 647 222 692 q 169 585 174 603 m 188 581 q 192 587 189 582 q 197 597 194 592 q 200 603 200 601 q 216 631 206 611 q 225 656 226 650 q 205 621 221 649 q 188 581 189 593 m 442 399 q 432 367 436 375 q 407 299 407 303 q 429 344 414 306 q 442 399 444 382 m 393 381 q 379 333 378 335 q 393 363 392 354 q 399 379 393 363 q 407 409 404 396 q 407 426 410 422 q 405 419 407 425 q 399 401 403 413 q 393 381 396 389 m 363 297 q 369 310 363 297 q 374 328 376 324 q 362 307 371 326 q 353 283 353 288 q 363 297 363 293 m 376 297 q 392 319 389 317 q 405 349 397 328 q 410 375 413 369 q 407 367 410 374 q 399 350 404 360 q 390 331 394 340 q 382 311 386 321 q 376 297 378 301 m 433 307 q 461 401 460 365 q 452 373 460 394 q 443 347 444 351 q 421 292 443 339 q 399 240 399 246 q 433 307 418 272 z "},"c":{"ha":326,"x_min":-12,"x_max":411,"o":"m 396 308 q 407 305 403 310 q 410 292 411 300 q 400 260 407 281 q 376 203 393 239 q 335 132 358 168 q 221 21 279 54 q 121 3 169 -8 q 68 24 93 6 q 29 67 43 42 q 8 261 -12 144 q 72 419 25 343 q 133 493 97 460 q 189 540 168 526 q 228 563 210 554 q 317 568 290 592 q 343 513 331 556 q 343 400 360 453 q 321 377 338 383 q 289 379 304 371 l 264 390 q 297 456 285 421 q 215 410 254 440 q 126 301 163 369 q 90 149 86 221 q 113 88 93 108 q 163 71 131 67 q 279 147 218 78 q 347 236 321 193 q 379 300 372 279 q 396 308 381 306 m 118 335 q 112 322 118 333 q 107 306 106 310 q 119 324 110 307 q 128 346 128 342 q 118 335 118 338 m 24 236 q 28 251 25 240 q 35 273 32 263 q 39 288 39 283 q 61 340 42 300 q 85 390 85 389 q 49 326 67 368 q 24 236 24 272 m 43 238 q 51 269 43 242 q 74 335 74 333 q 54 293 63 314 q 43 238 40 256 m 89 314 q 78 287 85 307 q 74 263 71 267 q 106 335 75 271 q 89 314 92 317 m 78 214 q 81 221 79 215 q 85 238 82 226 q 90 257 88 249 q 103 300 103 299 l 101 301 q 90 274 90 281 q 87 262 90 272 q 81 244 83 251 q 78 225 79 236 q 78 214 76 214 z "},"d":{"ha":542,"x_min":-17,"x_max":667,"o":"m 565 303 q 589 311 576 318 q 593 286 601 304 q 546 194 551 206 q 489 101 514 138 q 443 46 464 65 q 351 13 396 3 q 306 54 321 22 q 296 89 296 79 q 292 123 293 104 q 294 175 292 142 q 269 133 282 151 q 241 93 250 106 q 209 58 232 81 q 160 21 186 35 q 110 6 138 7 q 53 18 82 4 q 11 61 28 33 q 1 87 6 74 q -6 113 -3 100 q 22 297 -17 194 q 106 438 53 374 q 265 565 174 524 q 350 568 326 592 q 379 506 367 554 q 504 832 432 663 q 564 903 533 897 q 590 902 572 904 q 628 892 607 900 q 663 874 650 885 q 665 868 667 871 q 499 533 585 721 q 392 263 426 374 q 360 136 367 188 q 358 119 358 129 q 358 108 358 110 q 358 94 358 96 q 372 72 361 78 q 408 85 389 68 q 451 131 426 100 q 510 215 475 161 q 535 255 522 233 q 556 287 549 276 q 565 303 563 297 m 390 425 q 404 460 400 449 q 432 535 433 518 q 409 483 426 525 q 390 425 392 442 m 419 390 q 433 419 422 393 q 452 470 443 444 q 460 500 461 496 q 444 465 446 471 q 438 444 444 461 q 425 410 431 426 q 419 390 419 394 m 488 560 q 478 543 478 547 q 471 526 478 542 q 465 507 464 510 q 478 531 468 508 q 488 560 488 554 m 465 568 q 447 525 450 533 q 437 498 446 521 q 420 455 428 475 q 413 431 413 435 q 442 500 417 438 q 465 568 467 563 m 439 600 q 421 560 435 593 q 391 485 407 528 q 371 425 375 443 l 372 425 q 378 441 372 428 q 389 465 385 454 q 394 481 393 476 q 417 539 396 486 q 439 600 439 592 m 142 349 q 133 338 142 349 q 126 324 125 326 q 140 340 129 324 q 153 360 151 356 q 142 349 142 351 m 86 286 q 128 351 99 306 q 110 333 113 336 q 94 309 104 328 q 86 286 85 290 m 121 318 q 104 294 106 299 q 97 279 104 293 q 85 253 90 265 q 82 238 81 242 q 103 278 82 238 q 121 318 122 317 m 33 271 q 46 294 36 275 q 57 317 56 313 q 86 364 61 328 q 115 408 115 407 q 71 351 89 381 q 33 271 40 304 m 53 268 q 65 296 53 271 q 99 356 97 349 q 84 337 94 353 q 63 300 74 321 q 53 268 53 279 m 315 289 q 365 464 333 368 q 246 415 304 454 q 142 311 190 378 q 79 171 94 244 q 79 101 69 129 q 108 75 85 78 q 164 97 131 74 q 215 147 194 122 q 315 289 264 204 z "},"e":{"ha":379,"x_min":-17,"x_max":435,"o":"m 421 294 q 431 291 426 296 q 433 276 435 286 q 406 215 429 257 q 344 124 383 172 q 225 19 285 50 q 128 0 178 -6 q 74 18 108 1 q 51 38 71 19 q 33 58 40 46 q 7 254 -15 135 q 74 411 25 338 q 226 556 133 504 q 313 565 282 586 q 349 517 336 550 q 365 458 361 485 q 335 322 374 382 q 228 225 299 261 q 146 196 194 207 q 108 213 115 192 q 107 251 106 222 q 90 143 86 192 q 113 86 93 104 q 168 71 133 68 q 292 143 225 79 q 403 286 365 213 q 421 294 406 293 m 213 289 q 218 290 218 289 q 222 292 219 290 q 227 294 225 293 q 228 297 229 296 q 225 297 228 297 q 220 294 222 296 q 215 292 218 293 q 213 289 213 290 m 253 297 q 247 294 253 297 q 233 288 240 292 q 225 283 226 285 q 236 285 225 282 q 246 290 239 286 q 253 297 253 294 m 242 301 q 248 306 243 303 q 256 312 253 308 q 260 318 260 315 q 244 309 258 318 q 232 297 231 300 q 242 301 242 300 m 263 283 q 239 268 240 272 q 258 276 244 268 q 272 290 271 283 q 263 283 264 285 m 226 246 q 255 258 232 246 q 283 281 278 271 q 264 269 268 274 q 245 258 263 267 q 226 246 228 249 m 217 403 q 126 293 160 357 q 126 292 126 293 q 125 290 125 290 q 167 293 143 289 q 272 343 226 303 q 321 449 321 388 q 321 454 321 450 q 321 458 321 458 q 217 403 264 442 m 119 326 q 112 313 119 325 q 107 299 104 301 q 119 317 110 300 q 128 338 129 333 q 119 326 119 329 m 39 281 q 61 333 40 290 q 86 383 83 375 q 49 319 72 369 q 24 229 22 264 q 31 256 24 235 q 39 281 39 276 m 51 263 q 63 294 51 265 q 75 326 75 322 q 54 286 72 324 q 42 232 39 246 q 44 241 42 235 q 48 254 46 247 q 51 263 50 261 m 72 254 q 106 326 78 275 q 89 306 92 310 q 78 279 85 299 q 72 254 71 260 m 81 236 q 78 207 74 214 q 79 214 78 207 q 83 231 81 221 q 90 250 86 242 q 96 269 92 258 q 101 285 100 279 q 101 293 103 292 q 89 267 89 269 q 81 236 89 264 z "},"f":{"ha":213,"x_min":-46,"x_max":394,"o":"m 390 875 q 358 802 389 871 q 290 653 326 733 q 203 447 253 572 q 111 207 153 321 q 106 188 110 200 q 101 174 101 175 q 108 178 107 176 q 143 203 126 189 q 186 242 168 222 q 217 281 197 254 q 242 294 229 299 q 244 264 256 290 q 214 219 229 239 q 167 174 194 197 q 129 146 150 160 q 89 122 108 132 q 96 103 90 117 q 104 81 101 90 q 121 8 114 47 q 117 -186 138 -108 q 81 -244 101 -226 q 61 -256 69 -253 q 38 -261 47 -260 q 14 -257 25 -260 q -7 -244 6 -254 q -40 -175 -31 -224 q -44 -111 -44 -147 q -6 132 -40 -14 q 38 286 14 207 q 82 428 61 365 q 126 556 103 492 q 165 663 149 621 q 196 743 181 704 q 215 792 211 782 q 285 899 251 885 q 332 903 294 906 q 390 885 369 900 q 390 875 393 882 m 157 396 q 148 372 157 394 q 142 344 139 349 q 157 380 144 346 q 169 421 169 414 q 157 396 158 401 m 122 467 q 78 349 113 446 q 36 214 43 253 q 50 252 38 218 q 64 294 63 286 q 94 380 67 304 q 122 467 121 456 m 72 -107 q 74 -14 76 -65 q 64 54 72 13 q 40 -46 49 -4 q 31 -164 26 -121 q 38 -193 32 -185 l 44 -190 q 63 -154 56 -178 q 72 -107 68 -137 m 74 268 q 108 376 108 356 q 80 302 101 363 q 56 217 58 242 q 74 268 58 225 m 85 176 q 113 256 89 185 q 135 333 136 326 q 115 283 117 290 q 106 253 114 278 q 90 205 97 228 q 85 176 83 182 z "},"g":{"ha":475,"x_min":-19,"x_max":564,"o":"m 525 274 q 549 288 535 292 q 553 260 563 283 q 504 181 539 226 q 379 56 453 115 q 335 21 360 40 q 203 -197 267 -119 q 132 -254 168 -237 q 71 -262 104 -269 q 40 -251 51 -258 q 11 -218 21 -240 q 18 -150 1 -187 q 43 -114 29 -131 q 101 -60 67 -86 q 138 -34 119 -46 q 183 -7 157 -22 q 218 13 210 8 q 221 15 219 14 q 224 17 222 15 q 271 132 247 71 q 251 104 258 114 q 231 78 244 94 q 201 49 217 63 q 168 25 186 36 q 63 14 115 -8 q 17 51 35 25 q -4 106 0 76 q 21 292 -18 185 q 103 435 51 372 q 264 565 172 522 q 350 568 326 592 q 372 528 360 560 q 383 471 383 497 q 381 467 383 467 q 244 414 307 457 q 143 313 185 372 q 78 165 92 240 q 81 97 69 121 q 113 75 89 75 q 169 103 135 76 q 222 154 189 118 q 331 306 311 249 q 385 469 376 443 q 446 589 417 575 q 488 587 457 594 q 544 564 519 579 q 546 556 549 563 q 453 294 507 435 q 381 121 415 200 q 465 197 433 163 q 525 274 508 244 m 100 274 q 118 315 119 314 q 103 290 103 294 q 97 280 101 289 q 89 263 93 271 q 82 245 85 254 q 81 233 79 236 q 83 240 81 235 q 92 256 86 246 q 100 274 97 267 m 150 357 q 139 346 140 349 q 135 339 139 344 q 127 328 131 333 q 125 319 124 322 q 139 337 128 321 q 150 357 150 353 m 83 282 q 126 349 97 301 q 108 331 111 333 q 101 321 106 328 q 93 306 97 314 q 86 292 89 299 q 83 282 83 285 m 32 265 q 54 313 51 304 q 70 340 57 319 q 97 381 83 361 q 113 407 111 401 q 69 349 88 378 q 32 265 38 299 m 50 264 q 64 292 53 269 q 96 353 94 346 q 81 333 92 350 q 60 296 71 317 q 50 264 50 275 m 156 -114 q 161 -106 158 -111 q 165 -97 164 -100 q 104 -154 125 -128 q 85 -185 92 -168 l 86 -185 q 90 -185 89 -185 q 121 -160 103 -182 q 156 -114 136 -144 m 315 175 q 251 33 306 153 q 257 36 253 35 l 260 39 q 315 175 315 161 m 301 94 q 297 87 300 93 q 290 70 294 81 q 279 50 285 60 q 283 53 281 51 q 288 56 286 54 q 301 94 301 88 m 258 -86 q 306 0 268 -79 q 301 -2 304 0 q 297 -6 299 -4 q 283 -34 294 -14 q 266 -68 272 -54 q 258 -86 260 -82 m 315 74 q 340 138 340 132 q 335 126 339 135 q 327 109 331 117 q 320 93 324 101 q 315 82 317 85 q 311 71 314 79 q 313 72 311 71 q 315 74 315 74 m 351 99 q 361 131 361 125 q 350 108 350 113 q 344 93 350 106 q 347 96 344 94 q 351 99 350 97 z "},"h":{"ha":508,"x_min":-7,"x_max":596,"o":"m 561 307 q 583 310 571 318 q 589 290 594 303 q 538 183 561 231 q 479 86 506 125 q 432 33 456 54 q 426 28 432 33 q 415 19 419 22 l 393 8 q 380 5 389 7 q 368 3 371 3 q 342 6 350 3 q 294 35 311 15 q 268 85 275 57 q 263 178 258 122 q 297 340 269 247 q 329 428 311 383 q 292 356 310 394 q 196 161 226 215 q 101 31 142 63 q 44 13 69 7 q 18 33 32 15 q 4 60 13 40 q -3 133 -6 93 q 11 226 -1 172 l 15 246 l 18 261 l 26 292 q 43 350 31 308 q 114 561 71 444 q 210 810 157 682 q 275 899 243 889 q 324 897 290 903 q 376 874 357 890 q 378 867 381 871 q 267 638 336 786 q 174 424 214 522 q 128 301 146 356 q 107 239 117 271 l 94 200 q 92 151 86 165 q 110 156 97 143 q 125 174 117 161 l 133 183 l 138 189 l 143 199 q 175 250 168 240 q 203 301 185 268 q 231 350 222 335 q 399 572 333 540 q 424 582 410 582 q 467 570 436 582 q 518 542 499 558 q 521 536 522 539 q 419 353 478 475 q 356 190 374 260 q 344 111 343 143 q 350 86 346 94 q 361 74 353 78 q 365 74 363 74 q 368 72 367 74 l 376 74 l 383 76 l 393 83 q 435 124 413 97 q 497 208 461 156 q 520 244 508 225 q 539 273 532 263 q 552 293 546 283 q 561 307 558 303 m 103 282 q 128 349 107 289 q 147 415 149 410 q 129 374 131 381 q 122 348 129 369 q 108 307 114 326 q 103 282 101 288 m 167 468 q 159 447 167 467 q 153 424 151 428 q 167 454 156 426 q 178 489 178 482 q 167 468 167 472 m 153 464 q 135 429 138 436 q 119 389 129 418 q 110 353 108 360 q 153 464 142 429 m 54 317 q 61 338 56 322 q 72 367 67 353 q 79 386 78 381 q 105 458 81 394 q 129 532 129 522 q 109 482 125 522 q 75 391 93 442 q 53 317 57 340 l 54 317 m 74 319 q 80 339 74 321 q 88 363 86 357 q 119 454 119 435 q 94 391 113 442 q 74 319 75 340 m 374 308 q 369 297 374 308 q 367 282 364 285 q 376 300 369 283 q 381 321 382 317 l 374 308 m 288 219 q 289 227 288 222 q 292 237 290 232 q 297 247 294 242 q 299 257 299 253 q 301 264 300 261 q 309 290 301 269 q 324 331 317 311 q 329 356 331 350 q 304 294 322 346 q 288 219 286 242 m 314 247 q 331 306 332 294 q 315 266 325 297 q 306 221 304 235 q 307 226 306 222 q 310 234 308 231 q 312 242 311 238 q 314 247 313 246 m 347 288 q 339 263 344 281 q 336 240 333 244 q 360 308 358 299 q 347 288 350 290 m 340 196 q 353 238 343 201 q 361 276 364 274 q 351 251 351 256 q 347 235 351 249 q 340 210 343 222 q 340 196 338 199 z "},"i":{"ha":253,"x_min":-4,"x_max":378,"o":"m 300 307 q 321 310 308 318 q 326 290 333 303 q 275 183 300 232 q 217 88 244 125 q 171 33 193 54 q 154 19 154 21 q 131 8 143 14 q 123 6 128 7 q 113 4 118 6 q 106 3 108 3 q 79 6 88 4 q 32 35 49 15 q 7 85 13 57 q 1 179 -4 124 q 38 340 8 247 q 114 533 68 433 q 165 582 138 582 q 209 570 178 582 q 260 542 240 558 q 263 536 264 539 q 160 353 217 471 q 94 190 114 260 q 83 111 82 143 q 88 86 83 93 q 100 74 92 78 q 103 74 100 74 q 107 72 106 74 l 114 74 l 121 76 l 131 83 q 172 124 151 97 q 236 208 200 156 q 259 244 247 225 q 278 273 271 263 q 291 293 285 283 q 300 307 297 303 m 114 310 q 109 297 114 308 q 106 282 104 285 q 115 300 108 283 q 121 321 121 317 l 114 310 m 26 221 q 31 233 28 224 q 38 252 35 243 q 40 264 40 261 q 56 310 42 271 q 69 356 71 350 q 56 326 67 351 q 36 268 46 300 q 26 221 26 236 m 44 221 q 53 247 47 229 q 71 306 72 294 q 54 267 65 299 q 44 221 43 235 m 86 297 q 79 277 86 296 q 69 244 72 258 q 65 225 65 229 q 75 253 67 228 q 91 302 83 278 q 99 329 99 326 q 86 297 88 301 m 92 251 q 88 236 92 249 q 81 212 83 224 q 79 196 78 200 q 93 238 82 201 q 101 276 104 274 q 92 251 92 257 m 215 679 q 201 695 206 685 q 201 717 197 706 q 228 771 222 760 q 283 815 254 817 q 326 801 296 815 q 374 768 356 786 q 376 764 378 765 q 315 660 371 757 q 279 649 303 639 q 215 679 236 669 z "},"j":{"ha":265,"x_min":-250,"x_max":390,"o":"m 275 274 q 299 288 285 292 q 303 260 313 283 q 254 181 289 226 q 129 56 203 115 q 85 21 110 40 q -47 -197 17 -119 q -118 -254 -82 -237 q -179 -262 -146 -269 q -210 -251 -199 -258 q -239 -218 -229 -240 q -232 -150 -249 -187 q -207 -114 -221 -131 q -149 -60 -183 -86 q -112 -34 -131 -46 q -67 -7 -93 -22 q -32 14 -40 8 q -29 15 -31 14 q -26 17 -28 15 q 49 206 11 99 q 135 469 83 303 q 193 594 169 583 q 238 590 204 600 q 296 567 271 581 q 297 558 300 564 q 203 294 261 447 q 132 121 165 200 q 215 197 183 163 q 275 274 258 244 m -94 -114 q -89 -106 -92 -111 q -85 -97 -86 -100 q -146 -154 -125 -128 q -164 -185 -158 -168 q -160 -185 -160 -185 q -128 -160 -147 -182 q -94 -114 -114 -144 m 65 175 q 1 33 56 153 q 6 36 3 35 q 10 39 8 38 q 65 175 65 161 m 51 94 q 48 87 51 93 q 40 70 44 81 q 31 50 35 60 q 33 53 32 51 l 38 56 q 51 94 51 88 m 8 -86 q 56 0 18 -79 q 51 -2 54 0 q 47 -6 49 -4 q 34 -34 44 -14 q 17 -68 24 -54 q 8 -86 10 -82 m 76 81 q 85 104 83 96 q 69 76 75 88 q 71 76 71 76 q 74 79 72 78 q 76 81 75 81 m 65 74 q 90 138 92 132 q 85 126 89 135 q 77 109 81 117 q 70 93 74 101 q 65 82 67 85 q 61 71 64 79 q 63 72 61 71 q 65 74 65 74 m 101 99 q 111 131 111 125 q 100 108 100 113 q 94 93 100 106 q 97 96 94 94 q 101 99 100 97 m 386 782 q 389 778 390 779 q 346 667 385 771 q 338 655 343 660 q 326 649 332 650 q 313 649 319 647 q 244 668 249 667 q 228 681 233 671 q 225 703 222 692 q 242 760 238 749 q 289 814 260 811 q 333 806 301 815 q 386 782 365 797 z "},"k":{"ha":442,"x_min":-4,"x_max":500,"o":"m 476 306 q 490 310 481 314 q 497 296 499 306 q 453 181 486 254 q 399 86 426 124 q 354 39 385 67 q 310 18 333 19 q 272 24 286 17 q 246 42 257 31 q 204 88 226 56 q 160 168 193 104 q 124 226 142 206 q 114 194 115 203 q 106 83 106 154 q 103 47 106 58 q 97 31 101 38 q 83 16 94 24 q 61 8 72 8 q 44 12 50 10 q 31 19 38 14 q 22 26 24 25 q 6 50 18 31 q 0 72 3 61 q -4 110 -4 96 q -1 148 -3 129 q 3 187 0 167 q 10 221 7 207 q 18 258 13 235 q 26 290 24 281 q 36 326 29 300 q 46 357 43 351 q 115 565 72 449 q 211 811 160 688 q 276 899 244 889 q 324 897 290 903 q 378 874 357 890 q 379 868 381 871 q 268 640 338 790 q 158 385 192 469 q 294 494 225 456 q 396 533 363 533 q 417 528 408 535 q 424 517 426 522 q 401 501 421 507 q 322 465 378 501 q 211 367 265 429 q 189 339 204 358 q 190 338 189 339 q 192 338 192 338 q 247 251 224 310 q 265 202 254 235 q 282 154 276 169 q 303 115 293 128 q 325 97 314 103 q 363 117 342 97 q 403 168 383 138 q 438 227 422 199 q 465 281 453 256 q 476 306 476 306 m 56 325 q 62 339 58 328 q 69 359 65 350 q 77 378 74 368 q 82 392 81 388 q 96 433 83 400 q 120 498 108 467 q 132 536 132 529 q 92 437 122 517 q 56 325 61 357 m 90 368 q 110 418 97 383 q 122 460 122 453 q 97 397 115 447 q 76 326 78 347 q 83 347 76 329 q 90 368 89 364 m 135 368 q 149 421 150 417 q 132 379 133 386 q 118 339 132 378 q 125 347 122 343 q 131 365 128 363 q 135 368 131 368 m 113 360 q 156 469 144 431 q 136 436 140 442 q 127 413 133 429 q 116 380 121 396 q 113 360 111 364 m 169 474 q 165 461 169 471 q 157 442 160 451 q 156 429 154 432 q 169 460 158 432 q 179 493 179 488 q 169 474 169 478 m 265 146 q 261 158 267 147 q 253 171 256 169 q 254 161 253 163 q 258 153 256 161 q 265 146 261 144 m 247 65 q 237 81 244 68 q 228 96 229 93 q 211 126 224 99 q 194 157 199 154 q 211 115 199 139 q 247 65 226 79 m 258 79 l 258 81 q 247 97 249 94 q 224 133 231 131 q 236 106 225 128 q 258 79 247 83 m 242 139 q 244 133 242 138 q 251 122 247 128 q 258 110 254 117 q 264 101 261 104 q 269 97 267 97 q 266 102 269 97 q 258 115 263 107 q 250 129 254 122 q 232 161 233 161 q 242 139 239 143 m 272 124 q 277 116 272 124 q 287 103 282 108 q 294 99 292 97 q 282 119 294 100 q 265 140 267 140 q 272 124 269 125 z "},"l":{"ha":251,"x_min":0,"x_max":376,"o":"m 275 300 q 297 308 285 315 q 301 283 310 301 q 254 192 261 203 q 199 99 224 135 q 153 44 172 63 q 61 10 106 0 q 15 51 29 21 q 4 86 6 76 q 1 121 1 101 q 15 246 0 171 q 86 499 36 351 q 214 829 139 656 q 272 900 242 894 q 319 895 286 903 q 372 872 351 888 q 374 865 376 869 q 208 532 293 719 q 100 261 136 372 q 69 133 75 185 q 68 124 68 129 q 67 114 68 119 q 67 106 67 108 q 68 92 67 93 q 82 69 69 75 q 118 83 97 65 q 160 128 135 97 q 219 213 185 158 q 244 252 231 231 q 265 284 258 274 q 275 300 271 294 m 100 422 q 114 457 111 450 q 142 533 142 515 q 133 516 139 529 q 120 485 128 503 q 106 450 113 468 q 100 422 100 432 m 129 388 q 142 416 132 390 q 162 468 153 442 q 169 497 171 494 q 154 463 156 468 q 146 442 153 460 q 133 408 139 425 q 129 388 128 392 m 197 557 q 188 542 188 544 q 181 524 188 540 q 175 504 174 508 q 188 529 178 506 q 197 557 197 553 m 175 565 q 156 522 158 531 q 145 496 154 518 q 129 453 136 474 q 122 428 122 432 q 151 499 126 436 q 175 565 175 561 m 149 597 q 112 515 139 582 q 81 422 85 449 q 88 438 82 425 q 98 463 93 451 q 104 478 103 474 q 127 537 106 485 q 149 597 149 589 z "},"m":{"ha":747,"x_min":-11,"x_max":835,"o":"m 800 307 q 822 310 810 318 q 828 290 833 303 q 776 183 800 231 q 718 86 744 125 q 671 33 694 54 q 665 28 671 33 q 654 19 658 22 l 632 8 q 619 5 628 7 q 607 3 610 3 q 579 6 589 4 q 533 35 550 15 q 507 85 514 57 q 501 178 497 124 q 532 326 507 243 q 502 271 526 314 q 465 206 478 228 q 432 148 453 185 q 392 80 411 111 q 356 19 374 49 l 336 -12 l 301 7 q 268 43 278 21 q 260 76 263 57 q 260 129 257 94 q 274 215 263 165 q 317 356 289 276 q 340 422 328 388 q 103 35 201 228 l 85 -1 l 46 15 q 13 42 26 25 q -4 78 0 60 q -8 135 -11 106 q 7 225 -7 174 q 54 368 22 288 q 124 524 83 439 q 155 572 142 558 q 183 586 168 585 q 230 578 197 586 q 282 554 263 569 q 283 546 285 551 q 268 522 282 544 q 233 462 254 499 q 190 386 211 425 q 117 231 143 297 q 104 196 111 217 q 267 410 186 313 q 397 551 349 508 q 433 578 413 575 q 438 578 433 578 q 447 576 442 578 q 476 571 463 575 q 529 542 503 563 q 532 538 533 539 q 449 378 507 501 q 383 221 408 290 q 374 194 381 215 q 444 297 400 232 q 500 378 489 363 q 622 554 603 529 q 623 556 622 556 q 624 557 624 556 q 663 582 640 582 q 706 570 675 582 q 757 542 738 558 q 760 536 761 539 q 657 353 717 475 q 594 190 613 260 q 583 111 582 143 q 588 86 583 94 q 600 74 592 78 q 603 74 601 74 l 607 72 l 614 74 l 622 76 l 632 83 q 674 124 651 97 q 736 208 700 156 q 765 253 750 229 q 789 289 781 276 q 800 307 797 301 m 22 188 q 41 248 24 197 q 58 306 58 299 q 29 231 43 272 q 11 129 7 167 q 14 147 11 135 q 19 172 17 160 q 22 188 22 185 m 36 169 q 56 243 56 243 q 37 193 49 235 q 29 133 25 151 q 36 169 31 150 m 76 161 q 85 211 86 210 q 74 179 75 188 q 67 142 69 156 q 69 145 68 143 q 72 149 71 147 q 74 153 74 151 q 74 156 74 153 q 76 161 75 158 m 67 210 q 75 238 69 221 q 83 264 81 256 q 86 274 86 272 q 69 233 72 244 q 50 144 44 158 q 67 210 58 186 m 90 218 q 101 241 93 219 q 108 267 108 263 q 100 251 100 254 q 94 235 100 250 q 90 218 88 221 m 279 135 q 287 163 281 140 q 293 189 293 185 q 309 246 293 197 q 325 301 325 294 q 297 224 317 288 q 279 135 278 161 m 299 138 q 306 171 301 153 q 324 242 325 232 q 308 194 319 233 q 299 138 296 154 m 336 208 q 354 272 354 271 q 340 232 342 240 q 319 146 317 154 q 322 156 319 147 q 328 181 324 165 q 336 208 332 196 m 368 250 q 363 234 368 249 q 360 217 358 219 q 369 239 363 218 q 376 265 376 260 l 368 250 m 613 308 q 608 297 613 308 q 606 282 603 285 q 613 300 607 283 q 619 321 619 317 l 613 308 m 525 219 q 533 241 526 222 q 540 264 539 260 q 555 310 540 269 q 568 356 569 350 q 555 325 565 350 q 535 267 544 300 q 525 219 525 235 m 553 247 q 569 306 571 294 q 553 266 564 297 q 544 221 543 235 q 549 235 546 224 q 553 247 551 246 m 586 288 q 577 263 582 281 q 574 240 572 244 q 599 308 597 299 q 586 288 589 290 m 579 196 q 582 206 579 197 q 588 225 585 214 q 595 247 592 236 q 600 267 599 258 q 600 276 601 275 q 590 251 590 256 q 586 235 590 249 q 579 210 582 222 q 579 196 576 199 z "},"n":{"ha":479,"x_min":-11,"x_max":567,"o":"m 533 307 q 554 310 542 318 q 560 290 567 303 q 508 183 532 231 q 450 86 478 125 q 404 33 426 54 q 398 28 404 33 q 388 19 392 22 l 364 8 q 351 5 360 7 q 339 3 343 3 q 313 6 321 4 q 265 35 282 15 q 240 85 246 57 q 233 178 229 124 q 265 326 240 243 q 88 19 138 99 l 68 -12 l 33 7 q 1 43 11 21 q -8 76 -4 57 q -8 129 -10 94 q 7 215 -4 165 q 49 356 22 276 q 110 514 76 436 q 167 578 136 574 q 210 571 182 579 q 263 542 236 563 q 264 538 265 539 q 182 378 240 501 q 115 221 140 290 q 107 194 114 215 q 176 297 132 232 q 233 378 221 363 q 356 554 335 529 q 356 556 356 556 q 357 557 357 556 q 396 582 374 582 q 419 577 403 582 q 456 563 436 572 q 490 542 476 553 q 492 536 493 539 q 390 353 449 475 q 326 190 346 260 q 315 111 314 143 q 321 86 317 94 q 332 74 325 78 q 336 74 333 74 q 340 72 339 74 l 347 74 l 354 76 l 364 83 q 406 124 383 97 q 468 208 433 156 q 497 253 482 229 q 521 289 513 276 q 533 307 529 301 m 13 135 q 19 163 14 140 q 26 189 25 185 q 42 246 26 197 q 58 301 58 294 q 30 224 50 288 q 13 135 10 161 m 31 138 q 39 171 33 153 q 57 242 58 232 q 40 194 51 233 q 31 138 28 154 m 51 146 q 54 156 51 146 q 61 181 57 165 q 69 208 65 196 q 88 272 88 271 l 86 272 q 72 232 74 240 q 51 146 50 153 m 78 161 q 88 210 90 208 q 78 179 78 185 q 74 163 76 176 q 68 142 71 150 q 72 147 69 143 q 76 151 75 150 q 78 161 76 154 m 101 250 q 96 234 101 249 q 93 217 90 219 q 103 239 96 218 q 108 265 110 260 l 101 250 m 344 308 q 340 297 344 308 q 338 282 335 285 q 347 300 340 283 q 351 321 353 317 l 344 308 m 258 219 q 263 233 260 224 q 269 251 267 243 q 272 264 272 260 q 287 310 272 269 q 301 356 301 350 q 276 294 294 346 q 258 219 258 242 m 276 221 q 285 247 282 239 q 301 306 304 294 q 286 266 297 297 q 276 221 275 235 m 317 296 q 297 225 297 228 q 307 252 299 226 q 323 302 315 278 q 331 329 331 326 q 317 296 318 301 m 311 196 q 319 217 313 199 q 330 254 325 235 q 333 276 335 274 q 324 251 324 256 q 319 235 322 249 q 313 210 315 222 q 311 196 310 199 z "},"o":{"ha":411,"x_min":-3,"x_max":410,"o":"m 378 443 q 399 308 410 390 q 336 139 388 217 q 271 63 307 94 q 171 7 221 18 q 103 10 139 -3 q 44 50 67 22 q 4 163 10 92 q 36 354 -1 254 q 168 547 82 472 q 261 582 226 597 q 294 549 274 576 q 319 496 314 522 q 318 490 321 492 l 317 490 q 322 490 321 490 q 378 443 356 478 m 43 185 q 48 225 43 192 q 53 263 53 258 q 40 214 46 246 q 43 149 35 171 q 43 167 43 154 q 43 185 43 181 m 39 267 q 45 292 40 278 q 52 315 50 307 q 54 328 54 324 q 28 247 36 286 q 26 140 13 183 q 28 203 25 144 q 39 267 26 222 m 85 135 q 85 144 86 136 q 84 161 85 151 q 85 183 83 171 q 86 206 85 192 q 88 225 88 221 q 86 233 88 229 q 79 201 79 211 q 85 135 75 140 m 97 275 q 94 265 97 274 q 90 251 92 257 q 90 240 89 244 q 99 264 93 243 q 104 290 104 285 l 97 275 m 343 293 q 346 417 365 368 q 310 461 336 443 q 301 485 294 469 q 185 388 236 454 q 111 242 132 321 q 100 154 97 190 q 124 94 101 110 q 147 85 135 86 q 183 93 163 85 q 256 146 219 110 q 343 293 318 207 z "},"p":{"ha":526,"x_min":-79,"x_max":538,"o":"m 519 506 q 533 444 533 475 q 518 336 536 397 q 433 171 492 250 q 340 72 390 111 q 258 18 290 33 q 157 14 186 -15 q 139 56 147 24 q 135 114 131 88 q 138 118 135 118 q 185 125 168 121 q 283 178 235 139 q 393 299 347 226 q 432 381 418 340 q 444 461 450 428 q 433 486 442 478 q 417 497 424 497 q 406 496 411 497 q 399 492 406 494 q 388 488 392 490 q 350 464 375 482 q 225 339 282 413 q 125 158 150 244 q 119 150 124 154 q 69 -43 86 43 q 54 -181 57 -108 q 53 -181 53 -181 q 53 -186 53 -185 q 28 -239 53 -228 q -17 -248 15 -243 q -74 -250 -49 -253 q -78 -246 -78 -250 q -60 -103 -75 -183 q 3 164 -37 28 q 92 425 44 310 q 125 499 107 463 q 139 544 133 526 q 151 571 144 561 q 165 583 158 581 q 181 588 171 586 q 225 580 193 588 q 279 560 257 572 q 281 554 282 557 q 225 431 246 479 q 272 485 249 461 q 347 549 310 524 q 372 563 361 557 l 386 568 l 404 572 q 440 572 408 574 q 474 557 468 563 q 519 506 506 538 m -15 -3 q -14 10 -17 -1 q -14 24 -11 22 q -17 14 -15 22 q -20 -3 -19 6 q -21 -14 -21 -11 l -15 -3 m -10 28 q -4 51 -4 51 q 1 77 -4 54 q 3 103 6 100 q -7 66 0 100 q -11 28 -14 32 l -10 28 m 8 13 q 14 44 8 17 q 18 76 19 72 q 8 29 17 72 q 3 -17 0 -14 q 8 13 8 8 m 125 285 q 141 328 128 289 q 153 371 154 368 q 142 343 143 346 q 133 315 142 342 q 125 285 125 289 m 474 331 q 469 319 472 328 q 461 303 465 311 q 452 285 457 294 q 444 270 447 276 q 442 261 442 264 q 468 306 449 267 q 486 364 488 346 q 474 331 483 349 m 436 346 q 418 299 418 300 q 435 328 432 317 q 440 340 435 329 q 448 361 444 351 q 453 381 451 371 q 454 393 456 390 q 436 346 453 390 m 385 250 q 396 263 396 260 q 401 271 397 264 q 409 284 406 278 q 411 293 413 290 q 406 287 411 293 q 397 274 401 281 q 389 260 393 267 q 385 250 385 253 m 436 296 q 429 283 433 290 q 422 269 425 275 q 415 258 418 264 q 409 248 411 251 q 406 242 407 244 q 404 238 404 239 q 428 274 424 263 q 451 319 436 288 q 465 358 467 351 q 461 347 465 357 q 450 323 457 338 q 436 296 443 308 m 469 268 q 506 365 501 325 q 494 336 504 358 q 483 310 485 314 q 454 253 478 292 q 444 236 450 246 q 433 220 438 226 q 426 208 429 214 q 424 200 424 203 q 469 268 447 229 z "},"q":{"ha":511,"x_min":-18,"x_max":556,"o":"m 551 560 q 553 554 554 557 q 410 201 464 364 q 342 -44 364 71 q 326 -181 329 -110 q 325 -182 325 -181 q 325 -186 325 -185 q 300 -239 325 -228 q 256 -248 288 -243 q 199 -250 224 -253 q 194 -247 194 -250 q 213 -103 197 -183 q 263 117 231 0 q 169 25 218 56 q 64 14 117 -8 q 19 51 36 25 q -3 106 1 76 q 22 292 -18 185 q 104 435 53 372 q 265 565 174 522 q 351 568 328 592 q 373 529 361 560 q 385 472 385 499 q 397 499 392 488 q 411 544 406 526 q 424 570 417 561 q 437 583 431 579 q 453 586 443 586 q 476 584 460 588 q 514 574 492 581 q 551 560 536 568 m 151 357 q 140 346 142 349 q 136 339 140 344 q 128 328 132 333 q 126 319 125 322 q 140 337 129 321 q 151 357 151 353 m 86 282 q 95 297 86 283 q 114 326 104 311 q 128 349 124 342 q 110 331 113 333 q 94 305 104 324 q 86 282 85 286 m 119 315 q 104 290 106 294 q 99 280 103 289 q 90 263 94 271 q 83 245 86 254 q 82 233 81 236 q 86 240 83 235 q 94 256 89 246 q 101 274 99 267 q 119 315 121 314 m 33 265 q 57 313 53 304 q 85 361 58 321 q 114 407 113 401 q 71 349 89 378 q 33 265 39 299 m 51 264 q 65 292 54 269 q 97 353 96 346 q 71 313 90 347 q 51 264 51 279 m 257 -3 q 258 10 256 -1 q 258 24 261 22 q 253 6 256 22 q 251 -14 250 -10 l 257 -3 m 263 28 q 268 51 268 51 q 273 77 268 54 q 275 103 278 100 q 265 66 272 100 q 261 28 258 32 l 263 28 m 278 19 q 283 44 281 28 q 283 63 285 60 q 274 34 281 58 q 269 1 268 10 q 278 19 276 17 m 364 425 q 383 469 374 449 q 382 467 382 467 q 246 414 308 457 q 144 313 186 372 q 79 165 93 240 q 82 97 71 122 q 114 75 90 75 q 171 103 136 76 q 224 154 196 122 q 306 264 268 204 q 364 425 336 357 m 397 285 q 413 328 400 289 q 425 371 426 368 q 414 343 415 346 q 406 315 414 342 q 397 285 397 289 m 411 258 q 424 292 414 261 q 432 326 435 324 q 422 306 422 308 q 415 283 422 304 q 411 258 408 263 m 436 331 q 442 347 438 332 q 447 364 447 361 l 440 354 q 437 343 440 353 q 436 331 433 333 z "},"r":{"ha":354,"x_min":49,"x_max":442,"o":"m 408 308 q 429 312 417 319 q 435 292 442 304 q 383 185 408 233 q 325 89 353 126 q 279 35 301 56 q 263 21 263 21 q 239 10 251 15 q 226 6 235 8 q 214 4 218 4 q 188 7 196 6 q 140 36 157 17 q 115 86 121 58 q 110 179 104 125 q 146 342 117 249 q 200 485 169 414 q 198 484 200 485 q 194 483 196 483 q 58 482 125 463 q 49 498 50 485 q 55 528 49 511 q 69 563 61 546 q 83 590 76 579 q 90 601 89 601 q 99 595 90 601 q 117 582 107 589 q 143 569 126 575 q 176 565 160 564 q 226 576 194 565 q 268 588 257 586 q 368 543 311 592 q 371 538 372 540 q 268 354 325 472 q 203 192 222 260 q 192 113 190 144 q 196 88 192 94 q 208 75 200 79 q 211 74 208 75 q 215 74 214 74 l 222 75 l 229 78 l 240 85 q 281 125 260 99 q 344 210 308 156 q 373 253 357 229 q 397 290 389 278 q 408 308 404 303 m 144 554 q 140 558 144 557 q 135 557 136 558 q 138 554 135 557 q 140 553 138 554 q 144 554 143 551 m 156 494 q 143 497 143 497 q 130 500 142 497 q 117 499 118 503 q 133 494 121 497 q 156 494 146 490 m 156 513 q 149 514 151 513 q 142 516 147 515 q 133 514 136 517 q 142 510 135 513 q 156 513 150 508 m 150 550 q 157 549 151 550 q 164 551 163 547 q 155 554 163 553 q 144 553 147 556 q 150 550 150 549 m 222 310 q 217 298 222 310 q 215 283 213 286 q 224 301 217 285 q 229 322 231 318 l 222 310 m 135 222 q 142 242 135 224 q 149 265 149 261 q 165 312 150 272 q 178 357 179 351 q 153 296 172 347 q 135 222 135 244 m 154 222 q 161 249 160 242 q 179 307 181 296 q 163 268 174 300 q 153 222 151 236 l 154 222 m 194 297 q 188 278 194 297 q 178 245 182 260 q 174 226 174 231 q 183 254 175 229 q 200 303 192 279 q 207 331 208 328 q 194 297 196 303 m 200 253 q 196 238 200 250 q 189 213 192 225 q 188 197 186 201 q 201 239 190 203 q 210 278 213 275 q 200 253 200 257 z "},"s":{"ha":321,"x_min":-31,"x_max":346,"o":"m 328 581 q 336 558 332 575 q 342 519 340 542 q 343 479 344 497 q 340 475 343 475 q 260 450 289 475 q 231 376 233 425 q 238 321 231 343 q 244 289 238 317 q 253 247 250 261 q 238 85 265 150 q 185 19 221 46 q 114 -8 150 -7 q 3 32 46 -12 q -28 88 -21 56 q -17 103 -31 100 q 3 96 -3 107 q 25 64 10 78 q 93 43 53 39 q 164 89 142 46 q 176 190 185 125 q 171 215 175 194 q 163 247 167 236 q 131 360 132 336 q 129 363 131 363 q 91 322 118 360 q 42 243 64 283 q 22 229 33 229 q 6 240 10 229 q 10 264 3 251 q 55 345 17 275 q 130 472 93 415 q 194 551 167 528 q 253 588 219 572 q 328 581 310 608 m 167 296 q 163 316 165 300 q 158 336 160 332 q 154 381 154 346 q 155 400 154 389 q 156 416 156 411 q 156 425 156 421 q 150 367 147 396 q 167 296 150 324 m 182 304 q 181 312 182 307 q 178 322 179 317 q 176 328 176 326 q 169 381 172 375 q 170 344 167 375 q 182 304 174 314 m 188 378 q 199 318 190 324 q 197 325 199 318 q 194 342 196 332 q 192 363 192 353 q 190 382 190 371 q 190 399 190 393 q 190 407 190 406 q 188 378 186 394 m 208 394 q 209 383 210 393 q 211 374 208 374 q 213 388 213 375 q 213 404 214 401 l 208 394 m 210 347 q 212 335 210 346 q 217 314 214 324 q 224 303 221 304 q 217 336 224 306 q 210 368 211 367 l 208 368 q 210 347 207 350 z "},"t":{"ha":290,"x_min":39,"x_max":417,"o":"m 353 596 q 374 583 368 596 q 374 559 379 571 q 353 547 368 547 l 253 547 q 251 542 253 546 q 249 536 249 538 q 140 265 176 376 q 110 138 115 189 q 108 131 108 135 q 108 124 108 126 q 107 117 107 121 q 107 110 107 113 q 107 96 107 99 q 122 75 110 79 q 158 88 138 71 q 200 133 175 103 q 260 218 225 164 q 284 258 271 236 q 304 290 297 279 q 314 304 311 300 q 338 313 325 319 q 342 289 350 307 q 294 197 301 208 q 239 104 263 140 q 193 49 213 68 q 100 15 146 6 q 54 57 69 25 q 44 92 46 82 q 42 126 42 107 q 54 251 40 176 q 125 503 76 357 q 142 547 131 518 l 75 547 q 54 559 60 547 q 54 583 49 571 q 75 596 60 596 l 158 596 q 254 835 203 714 q 313 906 282 900 q 359 901 326 908 q 413 876 392 893 q 414 871 415 874 q 275 596 349 753 l 353 596 m 121 428 q 126 439 122 431 q 133 456 129 447 q 140 472 136 464 q 143 483 143 479 q 169 547 144 489 l 164 547 q 121 428 126 458 m 140 426 q 153 463 146 440 q 182 538 182 521 q 158 486 175 528 q 140 426 142 444 m 169 393 q 181 422 171 396 q 201 473 192 447 q 210 503 211 499 q 193 468 194 474 q 189 453 193 465 q 180 430 185 442 q 172 407 175 418 q 169 393 168 396 m 175 453 q 213 543 206 519 q 196 515 199 521 q 183 483 192 507 q 175 453 174 458 m 215 510 q 232 547 219 513 l 228 547 l 226 546 q 223 536 226 544 q 217 520 219 528 q 215 510 214 513 z "},"u":{"ha":514,"x_min":-4,"x_max":601,"o":"m 568 307 q 589 310 576 318 q 596 290 601 303 q 543 183 568 231 q 485 86 513 125 q 439 33 463 54 q 433 28 439 33 q 422 19 426 22 l 400 8 q 386 5 394 7 q 374 3 378 3 q 347 6 356 4 q 300 35 317 15 q 275 85 281 57 q 268 169 265 121 q 218 88 242 121 q 172 33 194 54 q 167 29 169 32 q 161 24 164 26 q 154 19 158 22 l 132 8 q 119 5 128 7 q 107 3 110 3 q 81 6 89 4 q 33 35 50 15 q 7 85 14 57 q 1 178 -3 124 q 38 340 8 247 q 113 533 67 433 q 164 582 135 582 q 188 577 171 582 q 224 563 204 572 q 258 542 244 553 q 260 538 261 539 q 158 353 217 475 q 94 190 114 260 q 83 111 82 143 q 89 86 85 94 q 100 74 93 78 q 104 74 101 74 q 108 72 107 74 l 115 74 l 122 76 l 132 83 q 174 124 151 97 q 236 208 201 156 q 260 243 249 226 q 304 339 288 286 l 304 340 q 379 533 333 433 q 431 582 401 582 q 474 570 443 582 q 525 542 506 558 q 526 536 528 539 q 425 353 483 475 q 363 190 381 260 q 351 111 349 143 q 356 86 351 94 q 368 74 360 78 q 371 74 368 74 q 375 72 374 74 l 382 74 l 389 76 l 400 83 q 440 124 419 97 q 504 208 468 156 q 527 244 515 225 q 546 273 539 263 q 559 293 553 283 q 568 307 565 303 m 113 308 q 108 297 113 308 q 106 282 103 285 q 115 300 108 283 q 119 321 121 317 l 113 308 m 26 219 q 30 233 26 224 q 37 251 33 243 q 40 264 40 260 q 55 310 40 269 q 68 356 69 350 q 44 294 63 346 q 26 219 25 242 m 53 247 q 69 306 72 294 q 54 266 65 297 q 44 221 43 235 q 49 235 46 224 q 53 247 53 246 m 88 288 q 81 274 85 283 q 76 253 78 264 q 75 240 74 243 q 100 308 97 299 q 88 288 89 290 m 79 196 q 92 238 82 201 q 101 276 103 274 q 90 251 92 256 q 86 235 90 249 q 80 210 82 222 q 79 196 78 199 m 379 308 q 375 297 379 308 q 372 282 371 285 q 381 300 375 283 q 388 321 388 317 l 379 308 m 336 356 q 318 313 332 349 q 322 310 321 311 q 336 356 336 350 m 313 221 q 319 247 314 228 q 336 306 339 294 q 328 286 335 301 q 317 251 322 271 q 313 221 311 231 m 351 296 q 348 283 351 294 q 341 260 344 271 q 335 239 338 250 q 332 225 332 228 q 342 252 333 226 q 358 302 350 278 q 365 329 365 326 q 351 296 353 301 m 346 196 q 360 237 350 201 q 368 276 371 272 q 358 251 358 256 q 354 235 358 249 q 347 210 350 222 q 346 196 344 199 z "},"v":{"ha":390,"x_min":11,"x_max":422,"o":"m 419 558 q 411 478 421 525 q 363 333 396 413 q 271 163 324 244 q 208 78 240 114 q 157 29 182 46 q 88 13 122 6 q 15 113 28 31 q 11 164 13 129 q 13 207 11 186 q 33 347 18 268 q 75 506 51 429 q 126 575 94 568 q 169 571 143 578 q 199 558 183 567 q 224 542 201 557 q 226 540 225 540 q 226 539 226 539 q 215 518 224 536 q 192 463 207 500 q 164 386 178 426 q 121 231 135 299 q 118 115 99 121 q 153 132 131 113 q 199 181 176 151 q 247 249 222 211 q 287 313 271 286 q 314 358 303 340 q 369 480 350 424 q 388 560 388 536 q 403 575 389 574 q 419 558 418 576 m 36 167 q 42 228 35 176 q 49 285 50 279 q 33 208 40 254 q 39 101 25 140 q 36 139 36 133 q 36 150 36 143 q 36 160 36 157 q 36 167 36 163 m 54 115 q 53 151 51 135 q 54 174 53 156 q 56 205 56 193 q 57 225 57 217 q 49 178 53 214 q 54 115 46 142 m 75 196 q 78 224 76 207 q 81 249 81 240 q 82 260 82 258 q 74 218 74 229 q 69 173 71 203 q 72 131 68 143 q 72 135 72 132 q 72 146 72 139 q 72 160 72 153 q 73 177 72 168 q 75 196 74 186 m 94 117 q 94 128 94 118 q 94 138 94 131 q 94 151 94 146 q 93 200 94 199 q 89 168 88 175 q 89 155 89 167 q 89 135 89 143 q 94 117 89 118 m 96 207 q 100 219 97 208 q 104 242 103 231 q 104 257 106 254 l 99 240 q 96 224 99 240 q 96 207 93 208 z "},"w":{"ha":672,"x_min":3,"x_max":688,"o":"m 683 558 q 685 529 685 549 q 685 480 686 510 q 676 410 683 450 q 654 331 668 369 q 569 154 624 238 q 504 69 536 104 q 458 31 478 44 q 383 14 418 4 q 325 51 347 25 q 307 81 318 60 q 297 107 299 103 q 288 181 288 140 q 206 63 247 111 q 196 54 197 54 q 183 42 186 43 q 153 21 167 28 q 118 13 135 13 q 83 21 103 13 q 34 68 53 32 q 13 133 15 104 q 25 315 4 204 q 88 517 47 419 q 151 583 117 582 q 193 571 168 585 q 239 532 213 561 q 242 528 242 528 q 214 488 233 521 q 161 376 188 442 q 114 215 126 288 q 108 133 104 165 q 110 127 110 131 q 111 122 111 124 q 111 121 111 121 q 114 114 113 117 q 125 106 118 107 q 140 113 131 106 q 171 143 154 125 q 229 219 199 175 q 307 349 268 276 q 307 350 307 349 q 354 514 325 428 q 408 582 376 576 q 453 576 421 586 q 506 550 486 567 q 507 544 510 547 q 438 388 481 503 q 393 229 406 299 q 388 144 385 176 q 394 114 389 125 q 404 104 397 107 q 418 106 408 101 q 450 129 431 113 q 513 197 481 156 q 604 351 568 269 q 651 556 654 463 q 665 574 651 571 q 683 558 679 576 m 33 172 q 39 235 32 188 q 47 293 47 290 q 31 215 35 247 q 38 113 21 149 q 33 172 35 121 m 50 157 q 52 194 50 161 q 54 232 54 228 q 46 183 49 213 q 53 122 43 142 q 50 157 50 136 m 71 201 q 75 231 72 215 q 78 256 78 247 q 79 267 79 265 q 71 225 71 239 q 69 216 71 224 q 67 199 68 208 q 67 179 67 189 q 69 136 65 146 q 71 201 68 172 m 86 175 q 88 140 85 164 q 94 115 90 115 q 95 117 96 115 q 94 124 94 119 q 93 134 93 129 q 92 146 93 139 q 92 158 92 153 q 90 207 90 207 q 86 175 85 183 m 93 214 q 99 237 96 215 q 101 264 103 258 l 96 247 q 94 238 96 246 q 92 224 93 229 q 93 214 92 218 m 318 108 q 313 169 315 115 q 315 232 310 186 q 316 234 315 233 q 317 236 317 235 q 313 230 315 235 q 310 224 311 225 q 310 222 310 222 q 309 217 310 221 q 308 213 308 214 q 318 108 300 146 m 333 119 q 329 154 329 133 q 330 178 329 160 q 331 210 331 197 q 331 229 332 222 q 325 182 326 214 q 333 119 322 139 m 350 135 q 349 200 349 189 q 352 229 350 213 q 355 255 354 246 q 356 265 356 264 q 347 224 347 236 q 346 206 347 222 q 344 178 344 189 q 350 135 343 144 m 364 174 q 376 114 364 115 q 375 120 376 114 q 372 137 374 126 q 371 157 371 147 q 368 206 368 206 l 367 206 q 364 174 363 182 m 371 213 q 376 237 372 215 q 378 263 379 258 l 372 246 q 371 236 372 244 q 369 222 369 228 q 371 213 368 217 z "},"x":{"ha":435,"x_min":-49,"x_max":519,"o":"m 510 543 q 425 458 483 521 q 264 286 388 419 q 268 256 267 274 q 272 222 269 239 q 275 192 274 204 q 290 114 282 139 q 301 88 294 99 q 314 76 306 81 q 340 81 326 72 q 369 108 353 89 q 411 176 388 133 q 449 253 442 239 q 467 258 454 263 q 478 240 481 253 q 450 157 469 208 q 413 78 432 108 q 374 32 393 49 q 296 15 338 4 q 254 38 272 21 q 226 74 239 53 q 197 153 211 103 q 185 201 193 164 q -4 15 57 65 q -28 12 -15 7 q -45 28 -42 17 q -37 50 -49 39 q 64 144 -1 79 q 171 257 106 188 q 160 301 163 293 q 119 413 142 369 q 88 461 106 440 q 72 508 65 486 q 124 599 100 572 q 131 599 126 601 q 192 531 167 568 q 251 374 233 468 q 256 347 251 371 q 299 393 257 349 q 340 439 311 407 q 386 489 369 471 q 428 532 403 507 q 476 576 454 557 q 500 581 486 586 q 517 565 514 576 q 510 543 519 554 m 186 272 q 190 276 189 275 q 188 291 190 281 q 185 310 186 301 q 181 327 183 318 q 176 342 179 336 q 172 350 174 349 q 174 336 172 349 q 180 305 176 324 q 186 272 183 286 m 201 289 q 206 293 203 290 q 199 315 201 313 q 201 289 200 301 m 218 307 q 221 310 219 308 q 211 346 214 344 q 217 315 217 318 q 218 307 218 314 m 222 313 q 228 317 226 315 q 224 332 225 326 q 222 313 224 318 m 236 326 q 238 328 236 326 q 240 331 240 331 q 233 353 238 349 q 233 339 232 340 q 236 326 235 338 m 254 231 q 250 272 257 235 q 249 269 250 271 q 246 267 247 268 q 254 231 250 233 z "},"y":{"ha":483,"x_min":-33,"x_max":531,"o":"m 492 274 q 515 288 501 292 q 519 260 529 283 q 471 181 506 226 q 346 56 419 115 q 301 21 326 40 q 169 -197 233 -119 q 99 -254 135 -237 q 38 -262 71 -269 q 7 -251 18 -258 q -22 -218 -12 -240 q -15 -150 -32 -187 q 10 -114 -4 -131 q 68 -60 33 -86 q 105 -34 86 -46 q 150 -7 124 -22 q 185 14 176 8 q 188 15 186 14 q 190 17 189 15 q 224 94 208 57 q 221 91 222 93 q 218 86 219 89 q 172 33 194 54 q 166 28 172 33 q 156 19 160 22 l 132 8 q 119 5 128 7 q 107 3 111 3 q 81 6 89 4 q 33 35 50 15 q 8 85 14 57 q 1 178 -3 124 q 38 340 8 247 q 113 533 67 433 q 164 582 135 582 q 207 570 176 582 q 258 542 238 558 q 260 536 261 539 q 158 353 217 475 q 94 190 114 260 q 83 111 82 143 q 89 86 85 93 q 100 74 93 78 q 104 74 101 74 q 108 72 107 74 l 115 74 l 122 76 l 132 83 q 174 124 151 97 q 238 208 201 156 q 264 250 250 228 q 286 285 278 272 q 299 303 294 297 q 351 469 315 354 q 407 569 376 554 q 452 576 421 575 q 511 564 483 576 q 513 556 515 563 q 419 294 474 435 q 349 121 382 200 q 432 197 400 163 q 492 274 475 244 m 113 308 q 108 297 113 308 q 106 282 103 285 q 115 300 108 283 q 119 321 121 317 l 113 308 m 26 219 q 31 233 28 224 q 38 251 35 243 q 40 264 40 260 q 55 310 40 269 q 69 356 69 350 q 44 294 63 346 q 26 219 26 242 m 53 247 q 69 306 72 294 q 54 266 65 297 q 44 221 43 235 q 49 235 46 224 q 53 247 53 246 m 88 288 q 83 278 86 285 q 78 263 81 271 q 75 249 76 256 q 75 240 74 243 q 100 308 97 299 q 88 288 89 290 m 79 196 q 93 237 82 201 q 101 276 104 272 q 92 251 92 256 q 87 235 90 249 q 81 210 83 222 q 79 196 78 199 m 122 -114 q 128 -105 125 -111 q 132 -97 131 -99 q 71 -154 92 -128 q 51 -185 58 -168 l 53 -185 q 57 -185 56 -185 q 88 -160 69 -182 q 122 -114 103 -144 m 282 175 q 218 33 272 153 q 226 39 222 36 q 282 175 282 161 m 225 -86 q 272 0 235 -79 q 268 -2 271 0 q 264 -6 265 -4 q 250 -34 261 -14 q 233 -68 239 -54 q 225 -86 226 -82 m 282 74 q 307 138 307 132 q 303 130 306 135 q 299 120 301 125 q 294 109 296 115 q 289 98 292 103 q 285 89 286 93 q 282 82 283 85 q 278 71 281 79 q 280 72 278 71 q 282 74 282 74 m 318 99 q 328 131 328 125 q 317 108 317 113 q 311 93 317 106 q 314 96 311 94 q 318 99 317 97 z "},"z":{"ha":453,"x_min":-8,"x_max":551,"o":"m 163 114 q 150 96 153 103 q 160 88 147 89 q 163 86 161 86 q 181 83 181 83 q 224 81 201 82 q 308 75 271 78 q 324 80 318 75 q 346 106 331 85 q 386 163 364 129 q 469 301 440 243 q 490 311 476 315 q 499 289 504 307 q 426 136 483 239 q 389 74 407 101 q 363 36 367 42 q 311 15 340 14 q 289 15 301 15 q 266 14 276 14 q 243 14 256 14 q 219 14 231 14 q 171 14 196 14 q 99 18 113 15 q 72 26 82 22 q 53 47 57 32 q 61 107 46 71 q 99 172 68 126 l 128 214 q 242 364 165 267 q 368 525 328 472 q 347 517 361 522 q 326 510 333 513 q 303 501 322 508 q 272 491 283 494 q 238 482 260 488 q 191 474 217 476 q 136 471 165 471 q 125 453 133 471 q 106 408 117 436 q 83 351 94 381 q 57 292 71 322 q 32 244 43 263 q 3 238 18 225 q -1 256 -8 246 q 50 362 19 286 q 107 514 81 438 q 138 597 133 590 q 140 601 139 601 q 142 600 140 601 q 147 597 143 599 q 154 594 150 596 q 165 592 158 593 q 179 589 172 590 q 292 588 215 583 q 417 596 406 596 q 436 594 424 596 q 450 597 442 597 q 493 588 460 597 q 547 563 533 575 q 549 554 551 560 q 372 349 528 513 q 224 185 258 225 l 186 142 l 168 121 l 163 114 m 268 569 q 251 570 267 572 q 236 564 236 568 q 246 564 246 563 q 257 565 247 564 q 268 569 267 567 m 257 529 q 244 529 253 531 q 233 525 235 528 q 249 524 235 524 q 268 531 264 525 q 257 529 265 531 m 226 551 q 236 547 233 547 q 246 548 239 546 q 254 553 253 550 q 241 553 251 553 q 226 551 231 553 m 233 567 q 225 567 232 568 q 217 565 218 567 l 222 563 q 226 563 224 564 q 233 567 232 565 m 217 504 q 244 505 222 503 q 272 513 265 507 q 254 513 257 514 q 244 510 253 511 q 226 508 235 510 q 217 504 218 507 m 174 214 q 197 242 178 219 q 224 272 206 250 q 244 300 243 294 q 208 260 235 292 q 174 214 181 229 m 192 174 q 228 215 196 176 q 260 258 261 254 q 236 233 239 238 q 213 206 235 232 q 192 174 192 179 m 303 304 q 289 293 290 296 q 278 279 289 292 q 268 264 267 267 q 286 282 271 264 q 303 304 301 300 m 214 225 q 276 294 257 268 q 253 275 257 279 q 230 249 244 268 q 214 225 215 231 m 268 357 q 240 327 263 351 q 191 269 218 303 q 156 221 164 236 q 193 264 190 260 q 231 308 196 268 q 268 357 267 349 z "},"{":{"ha":569,"x_min":68,"x_max":504,"o":"m 496 942 q 496 893 503 924 q 476 846 489 863 q 453 822 467 832 q 436 813 447 818 q 404 792 417 801 q 364 749 381 775 q 346 708 353 728 q 333 653 342 692 l 333 649 q 258 482 308 542 q 182 419 232 450 l 175 414 l 172 413 q 171 407 171 411 q 172 400 169 404 q 182 392 175 399 q 203 372 196 379 q 244 279 242 335 q 240 197 249 249 l 231 144 q 226 25 221 60 q 240 -22 231 -1 q 263 -57 249 -43 q 332 -90 286 -79 q 346 -96 344 -93 l 344 -97 l 346 -100 q 306 -111 340 -108 q 297 -111 301 -111 q 211 -81 246 -111 q 153 38 165 -42 q 154 178 143 97 l 156 192 q 156 267 163 240 q 128 307 147 290 q 118 315 125 310 q 96 333 106 324 q 69 396 69 358 q 88 453 72 431 q 110 478 97 467 q 132 496 118 485 q 182 543 167 522 q 221 667 213 586 q 283 832 231 764 q 393 921 328 890 q 478 950 442 946 l 479 950 q 496 942 492 950 z "},"|":{"ha":167,"x_min":-68,"x_max":197,"o":"m -3 -128 q -32 -139 -15 -139 q -60 -128 -50 -139 q -65 -103 -68 -118 l 110 853 q 128 883 114 872 q 161 894 143 894 q 190 883 181 894 q 194 864 196 876 q 17 -89 153 626 l 17 -94 q -3 -128 13 -117 z "},"}":{"ha":569,"x_min":65,"x_max":501,"o":"m 474 506 q 500 444 500 481 q 482 388 497 408 q 460 361 472 372 q 438 343 451 354 q 388 297 403 318 q 349 172 357 254 q 285 7 339 75 q 176 -82 242 -51 q 92 -111 128 -107 l 88 -111 q 74 -101 78 -111 q 74 -54 67 -85 q 92 -7 81 -24 q 117 17 103 8 q 132 26 121 21 q 165 47 153 39 q 206 90 189 64 q 222 132 217 111 q 235 186 228 147 l 236 190 q 311 357 260 297 q 386 421 338 389 l 394 425 l 396 428 q 399 432 399 429 q 397 439 400 436 q 386 447 396 440 q 367 467 374 460 q 324 560 328 504 q 329 642 321 590 l 339 696 q 342 815 349 779 q 307 896 335 868 q 238 929 283 918 q 224 935 225 932 l 225 938 l 224 939 q 264 950 229 947 q 272 950 268 950 q 358 919 322 950 q 417 801 404 881 q 414 661 425 743 l 413 647 q 414 574 407 600 q 440 532 421 549 q 451 524 444 529 q 474 506 464 514 z "},"":{"ha":444,"x_min":0,"x_max":0,"o":""},"":{"ha":244,"x_min":-100,"x_max":244,"o":"m 125 467 q 151 451 143 464 q 143 313 171 422 q 138 288 139 294 q 88 88 128 249 q 42 -92 49 -61 q 6 -139 33 -133 q -7 -139 0 -139 q -78 -125 -43 -139 q -85 -74 -100 -118 l -83 -71 q -31 85 -75 -43 q 38 289 25 250 q 78 406 50 344 q 125 467 106 467 m 239 667 q 243 646 243 657 q 203 571 240 594 q 132 576 165 547 q 115 608 118 588 q 117 631 113 629 l 118 635 q 163 692 125 671 q 186 699 172 697 q 194 699 189 699 l 199 699 q 214 694 206 699 q 239 667 232 686 z "},"":{"ha":486,"x_min":-36,"x_max":419,"o":"m 414 236 q 411 217 419 225 q 110 -6 236 7 q 106 -19 106 -19 q 106 -20 106 -19 q 104 -24 106 -21 q 101 -31 103 -26 q 51 -155 72 -112 q 13 -197 31 -197 q 7 -197 10 -197 q 40 7 -18 -189 q -1 32 18 14 q -11 49 -4 35 q -27 100 -18 63 q -25 188 -36 138 q 33 364 -8 276 q 104 493 71 451 q 201 536 138 536 q 211 536 206 536 q 246 642 221 565 q 297 700 265 700 q 319 689 311 700 q 324 639 332 671 q 288 529 317 613 l 282 515 q 326 465 317 494 q 331 426 332 447 q 322 394 329 406 q 301 379 311 379 l 300 381 l 299 382 q 294 463 315 425 q 289 471 290 469 q 261 482 278 482 q 249 479 256 482 q 218 460 231 475 q 144 335 196 443 q 76 185 93 228 q 63 46 39 81 q 101 29 75 29 q 122 32 111 29 q 225 83 167 40 q 319 164 283 126 q 388 242 354 201 q 399 247 392 247 q 414 236 408 247 m 111 365 q 106 354 104 356 q 119 376 114 367 q 115 374 115 374 q 111 365 115 371 m 56 324 q 60 332 58 331 q 78 367 69 346 q 56 324 63 342 m 85 351 q 72 329 76 336 q 78 340 75 332 q 85 351 82 347 m 72 289 q 78 301 72 290 q 90 325 83 313 q 97 343 96 338 q 90 331 90 333 q 85 318 89 328 q 72 289 71 293 m 78 324 q 78 328 76 325 q 83 335 81 331 q 88 345 85 340 q 94 356 90 350 q 100 365 97 361 l 93 358 q 83 341 89 354 q 78 324 76 328 m 92 365 q 86 353 89 360 q 97 375 93 365 q 92 365 93 368 m 40 325 q 53 346 51 342 q 68 375 54 350 q 86 408 82 400 q 39 322 51 361 q 40 323 39 322 q 40 325 40 324 z "},"":{"ha":651,"x_min":-56,"x_max":646,"o":"m 636 678 q 638 617 646 642 q 601 586 631 597 q 560 579 583 579 q 543 581 551 579 q 533 590 535 581 q 531 608 533 599 q 524 638 529 618 q 510 676 519 658 q 488 711 501 693 q 453 740 475 729 q 404 753 432 751 q 399 753 401 753 q 321 719 354 753 q 278 653 296 696 q 255 578 261 611 q 249 521 249 544 q 257 447 249 494 l 257 444 q 360 444 297 444 l 419 444 q 447 439 436 444 q 464 426 458 433 q 469 408 469 418 q 466 393 469 400 q 454 381 463 386 q 435 374 446 375 q 401 374 425 374 q 261 376 354 374 q 258 344 263 360 q 179 182 242 264 q 136 133 160 158 q 165 138 146 138 q 232 128 200 138 q 254 119 239 125 l 260 117 l 282 104 l 325 81 q 403 53 375 56 q 413 53 407 53 q 519 93 456 53 l 540 107 q 568 124 565 124 l 569 122 l 572 121 q 549 85 574 115 l 544 79 q 444 10 496 28 q 394 1 421 1 q 347 8 369 1 q 268 38 319 15 l 257 42 q 181 63 214 63 q 94 46 140 63 l 90 44 q 17 11 50 31 q -1 7 8 7 q -32 22 -22 7 l -47 44 q -52 71 -54 57 q -39 93 -50 85 q 106 240 50 163 q 158 357 149 303 q 160 382 160 367 l 149 381 l 143 381 q 119 382 128 382 q 95 383 110 382 q 72 385 81 385 q 51 388 64 386 q 33 392 39 389 q 19 397 26 394 q 10 404 13 400 q 7 414 7 408 q 13 426 7 421 q 35 433 19 431 q 64 436 51 435 q 103 439 76 438 q 135 440 131 440 q 154 442 142 442 l 149 453 q 144 483 147 463 q 143 499 143 494 q 174 678 133 592 q 292 806 217 765 q 413 836 349 836 q 550 796 490 836 q 636 678 613 750 m 224 575 q 219 538 224 569 q 219 519 219 524 q 222 554 221 539 q 226 588 224 568 q 224 575 225 578 m 203 381 l 204 381 q 200 346 203 364 q 200 349 200 347 q 204 365 203 361 l 204 381 l 203 381 m 197 449 q 192 483 193 464 q 196 451 192 474 l 199 442 l 197 449 m 176 483 q 183 446 178 471 l 183 442 q 175 529 174 497 q 186 614 174 568 q 183 603 185 608 q 176 483 168 549 m 186 343 q 192 381 192 358 l 190 381 l 190 368 q 182 328 188 349 q 186 343 185 336 m 236 375 l 236 379 l 235 379 q 225 317 233 346 q 199 254 217 292 q 192 239 193 242 q 198 251 193 242 q 208 272 203 261 q 219 297 214 282 q 229 328 225 311 q 235 361 233 344 q 236 375 236 367 z "},"":{"ha":594,"x_min":-32,"x_max":629,"o":"m 614 806 q 628 775 628 793 q 622 740 629 757 q 507 489 590 603 q 349 356 450 408 q 251 326 294 326 q 244 308 249 321 l 240 296 l 300 297 l 353 297 q 377 292 367 297 q 392 281 388 288 q 397 265 397 274 q 394 250 397 257 q 384 238 392 243 q 367 232 376 233 q 338 232 357 232 q 218 235 297 232 q 214 217 218 229 l 211 204 q 285 207 236 207 l 336 207 q 368 197 357 207 q 381 174 379 188 q 372 153 381 163 q 350 142 364 143 q 319 142 340 142 q 193 144 279 142 q 165 17 185 103 l 163 -1 l 160 -1 q 125 149 114 19 l 94 149 l 90 149 q 46 151 61 150 q 9 155 31 151 q -22 164 -12 158 q -32 179 -32 169 q -12 195 -32 192 q 54 201 8 199 q 82 204 71 203 q 135 206 99 206 q 140 240 135 218 l 111 239 l 107 239 q 78 240 88 240 q 51 242 68 240 q 24 245 33 243 q 5 251 15 247 q -10 259 -6 254 q -15 269 -15 264 q 5 286 -15 282 q 71 293 25 290 q 99 294 90 294 q 156 297 118 296 q 176 354 165 336 q 108 470 126 388 q 121 667 90 553 q 197 838 156 783 q 235 864 218 864 q 244 861 239 864 q 269 842 253 858 q 297 810 286 826 q 299 803 300 806 q 278 782 289 794 q 214 640 249 753 q 193 460 179 528 q 233 403 201 415 q 261 397 246 397 q 358 440 307 397 q 442 532 408 483 q 518 688 481 585 q 526 710 525 704 q 543 774 535 728 q 554 813 550 808 q 579 818 563 818 q 614 806 599 818 m 143 631 q 154 668 150 654 q 142 629 146 649 q 143 631 143 631 m 149 689 q 154 703 150 693 q 160 717 158 714 q 143 678 150 697 q 129 622 133 649 q 129 624 129 622 q 136 646 136 643 q 149 689 138 657 m 163 617 q 167 631 164 619 q 169 644 169 642 q 165 632 165 635 q 163 619 165 629 q 156 589 157 597 q 157 594 157 590 q 163 617 161 610 m 157 633 q 164 651 158 635 q 169 671 169 667 l 167 664 q 157 633 161 656 m 176 660 q 178 665 176 660 q 183 676 181 669 q 186 686 185 682 q 183 683 183 683 q 181 674 183 681 q 176 660 175 661 m 449 508 q 428 479 432 486 q 435 490 429 483 q 447 501 442 496 q 453 510 451 507 l 457 515 q 497 575 489 558 q 469 536 483 556 q 449 508 464 528 m 481 526 q 451 490 460 503 q 454 494 454 493 q 481 526 464 503 m 472 475 q 490 500 485 489 q 481 488 482 490 q 464 467 479 485 q 446 444 447 449 q 450 451 446 447 q 460 463 454 456 q 472 475 467 469 m 467 482 q 473 491 467 483 q 488 509 479 499 q 500 526 496 519 q 493 519 494 522 q 467 482 468 490 m 515 533 l 515 535 q 511 526 515 533 q 503 513 503 515 q 504 517 503 514 q 510 524 506 519 q 515 533 514 529 z "},"":{"ha":504,"x_min":-86,"x_max":526,"o":"m 507 836 q 519 729 526 788 q 500 658 515 697 q 471 594 485 618 l 458 572 q 435 557 449 557 q 417 563 426 557 q 397 575 410 567 q 368 597 383 583 q 347 618 353 610 q 354 638 342 626 q 432 736 404 678 q 449 806 449 769 q 396 786 422 799 q 231 688 300 749 q 203 661 217 676 q 177 616 190 646 q 171 561 164 586 q 319 431 182 518 q 349 411 343 417 q 401 322 400 376 q 385 263 401 292 q 350 219 368 233 q 292 190 322 200 q 185 174 243 174 q 147 176 165 174 q 231 119 175 156 q 260 101 251 107 q 311 13 311 65 q 296 -47 313 -19 q 261 -92 279 -75 q 171 -133 222 -122 q 72 -136 119 -144 q 1 -122 25 -128 q -39 -108 -24 -115 q -81 -54 -86 -86 q -66 -12 -79 -39 q -33 24 -53 14 q -17 25 -24 28 q 11 6 -11 24 q 57 -19 33 -11 q 174 -40 133 -46 q 219 -7 215 -35 q 195 32 222 7 q 133 82 168 57 q 61 140 97 107 q 13 201 25 174 q 3 308 -11 256 q 54 410 15 358 q 122 482 81 444 q 103 511 110 497 q 92 619 78 561 q 143 721 106 669 q 220 802 176 764 q 305 865 264 840 q 367 900 346 889 q 401 917 388 911 q 435 925 421 925 q 463 913 451 925 q 471 901 465 910 q 483 882 476 893 q 497 858 490 871 q 507 836 504 844 m 181 407 q 142 378 158 392 q 93 317 110 350 q 146 290 121 297 q 238 279 201 275 q 293 294 275 283 q 314 317 311 304 q 308 328 314 321 q 290 345 303 335 q 267 363 276 356 q 242 381 258 369 q 206 407 217 399 q 181 407 193 415 z "},"":{"ha":799,"x_min":0,"x_max":772,"o":"m 704 690 q 760 546 749 628 q 749 378 771 464 q 580 115 707 222 q 310 8 453 8 q 281 10 294 8 q 68 132 144 22 q 13 276 24 194 q 24 444 1 358 q 192 707 65 600 q 463 814 319 814 q 493 813 476 814 q 704 690 629 800 m 697 383 q 707 527 717 457 q 660 651 697 597 q 478 756 594 744 q 451 757 465 757 q 220 665 329 757 q 75 439 111 572 q 65 294 56 365 q 113 171 75 224 q 191 99 144 125 q 294 67 238 72 q 321 65 307 65 q 552 158 443 65 q 697 383 661 250 m 564 396 q 576 386 572 396 q 575 369 581 378 q 300 176 413 176 q 218 210 254 176 q 209 225 215 213 q 196 269 203 238 q 199 344 189 301 q 247 497 213 421 q 308 608 281 572 q 393 646 338 646 q 453 635 429 646 q 501 583 492 615 q 497 524 513 547 q 479 510 489 510 l 478 510 l 476 513 q 474 582 490 549 q 468 589 471 588 q 444 597 460 597 q 435 596 440 597 q 407 579 419 592 q 344 472 389 564 q 286 343 300 379 q 274 222 253 253 q 307 208 283 208 q 325 210 315 208 q 554 390 418 228 q 564 396 558 396 m 315 499 q 311 488 310 489 q 321 507 317 497 q 319 504 319 506 q 315 499 319 503 m 269 467 q 271 469 271 468 q 286 496 278 479 q 269 467 275 479 m 282 432 q 284 437 282 433 q 289 446 286 440 q 294 457 292 451 q 299 469 297 463 q 303 478 301 475 q 297 468 299 471 q 292 457 297 465 q 282 432 281 435 m 304 496 l 300 492 q 291 476 296 488 q 286 463 286 465 q 304 496 286 464 m 254 463 q 265 481 264 478 q 278 506 265 485 q 293 533 289 526 q 254 463 264 493 z "},"":{"ha":514,"x_min":-18,"x_max":503,"o":"m 96 294 q 103 282 96 294 q 122 251 111 269 q 146 212 133 232 q 170 173 158 192 q 189 144 182 154 q 186 100 203 122 q 179 90 183 94 q 171 83 175 86 q 162 78 167 81 q 152 73 157 75 q 143 70 147 71 q 136 69 139 69 q 124 74 128 69 l -10 274 q -14 304 -18 283 q 1 336 -10 325 l 229 531 q 261 546 246 546 q 290 525 278 546 q 276 482 301 506 l 100 314 q 96 294 89 304 m 478 482 l 301 314 q 297 294 290 304 q 390 144 350 207 q 388 100 404 122 q 364 78 379 86 q 338 69 349 69 q 325 74 328 69 l 192 274 q 188 304 183 283 q 203 336 192 325 l 431 531 q 463 546 447 546 q 492 525 479 546 q 478 482 503 506 z "},"":{"ha":0,"x_min":0,"x_max":0,"o":""},"":{"ha":469,"x_min":6,"x_max":499,"o":"m 449 736 q 457 536 497 650 q 353 389 426 447 q 201 331 281 331 q 167 335 183 331 q 56 414 93 349 q 47 615 6 501 q 107 720 67 674 q 199 793 147 767 q 303 819 250 819 q 338 817 321 819 q 449 736 411 801 m 428 542 q 419 714 461 640 q 325 781 388 769 q 296 783 311 783 q 208 761 251 783 q 129 699 164 739 q 76 608 94 658 q 85 438 43 511 q 179 369 117 382 q 208 367 193 367 q 338 417 276 367 q 428 542 400 467 m 350 697 q 378 681 367 693 q 394 654 390 669 q 382 586 404 617 q 300 532 360 554 q 221 513 264 518 l 226 511 q 267 483 246 494 l 269 482 q 301 464 293 469 q 308 456 310 458 q 299 451 307 451 q 265 458 283 451 q 218 482 242 468 q 175 517 192 499 q 169 522 172 519 q 165 508 169 519 q 149 469 156 488 l 146 463 q 139 449 140 449 l 138 449 q 133 475 133 453 q 140 518 133 497 q 172 581 151 551 q 217 628 190 608 q 231 633 225 633 q 238 632 235 633 q 257 606 249 625 l 258 606 l 258 603 q 250 599 254 601 q 201 561 222 583 q 190 547 194 554 q 224 551 192 547 q 278 561 257 556 q 357 600 333 575 q 372 624 367 608 q 374 651 376 640 q 363 656 374 651 q 324 664 342 663 q 299 665 311 665 q 267 663 282 665 q 179 629 214 653 q 132 592 151 611 q 121 579 128 588 q 110 569 113 569 q 115 599 104 576 q 156 647 131 626 q 246 693 189 676 q 307 701 272 701 q 350 697 332 701 m 292 551 q 297 554 294 553 l 297 556 l 288 550 q 292 551 288 550 z "},"":{"ha":432,"x_min":64,"x_max":369,"o":"m 339 814 q 361 720 369 775 q 310 618 353 665 q 254 577 288 594 q 192 557 221 560 q 175 556 183 556 q 90 592 121 556 q 71 672 65 622 q 144 804 78 751 q 263 850 200 850 q 288 847 276 850 q 320 833 306 844 q 339 814 335 821 m 281 675 q 296 740 304 704 q 269 775 290 764 q 239 782 257 782 q 176 753 206 782 q 149 650 125 701 q 196 624 161 624 q 201 624 197 624 q 247 640 225 625 q 281 675 268 656 z "},"":{"ha":143,"x_min":-36,"x_max":67,"o":"m 56 217 q 61 183 67 203 q 40 152 57 165 q 4 139 22 139 q -25 151 -14 139 q -29 185 -35 165 q -8 216 -25 203 q 27 229 8 229 q 56 217 46 229 z "},"":{"ha":517,"x_min":-49,"x_max":474,"o":"m 265 335 q 267 316 269 328 q 259 292 265 304 q 244 274 253 279 l 6 74 q -8 69 0 69 q -31 78 -21 69 q -44 100 -42 86 q -22 146 -49 124 l 150 294 q 156 314 161 304 l 68 482 q 76 525 56 507 q 117 546 100 546 q 140 531 131 546 l 265 335 m 467 335 q 465 304 472 325 q 446 274 458 283 l 207 74 q 193 69 201 69 q 170 78 181 69 q 157 100 160 86 q 178 146 153 124 l 351 294 q 357 315 363 304 l 269 482 q 278 525 257 507 q 318 546 300 546 q 342 531 332 546 l 467 335 z "},"":{"ha":547,"x_min":39,"x_max":507,"o":"m 371 64 q 461 35 429 60 q 463 22 467 31 q 453 8 460 18 q 446 -3 449 1 q 440 -12 443 -7 q 433 -23 436 -18 q 425 -32 429 -28 q 286 -128 369 -103 q 211 -139 247 -139 q 172 -135 192 -139 q 67 -68 107 -124 q 49 -30 56 -54 q 42 30 43 -6 q 58 108 40 65 q 113 192 76 151 q 194 264 135 215 q 253 313 233 294 q 303 363 274 332 q 347 425 332 393 q 367 492 363 457 q 371 492 367 493 q 381 488 375 490 q 392 481 388 485 q 411 417 414 457 q 390 351 410 386 q 335 277 371 315 q 276 218 299 239 q 219 167 254 197 q 199 149 203 153 q 144 72 158 113 q 146 13 131 31 q 183 -19 156 -11 q 206 -24 190 -24 q 235 -21 221 -24 q 308 21 279 -11 q 318 31 313 25 q 326 40 324 38 q 333 48 329 43 q 340 55 338 53 q 347 59 343 57 q 355 63 351 61 q 363 65 358 64 q 371 64 367 65 m 501 678 q 506 657 506 668 q 465 582 503 606 q 394 588 428 558 q 378 619 381 599 q 379 642 375 640 l 381 646 q 425 703 388 682 q 447 710 435 708 q 457 710 451 710 l 461 710 q 476 706 468 710 q 501 678 494 697 z "},"":{"ha":782,"x_min":-92,"x_max":839,"o":"m 686 1082 l 675 1101 q 674 1121 669 1111 q 722 1139 685 1139 q 789 1114 779 1139 q 818 1011 801 1082 q 815 997 819 1003 q 778 986 806 986 q 739 999 747 986 q 686 1082 721 1024 m 776 781 q 683 485 725 646 q 667 419 676 461 q 751 393 717 408 q 758 380 761 390 q 744 371 756 369 q 733 374 742 372 q 715 377 725 375 q 690 381 706 379 q 658 386 674 383 q 621 178 631 265 q 615 67 614 110 q 624 15 617 25 q 613 -3 625 4 q 594 3 601 -10 q 583 31 589 11 q 573 86 578 51 q 568 160 568 121 q 583 390 567 254 q 433 382 508 392 q 426 381 431 382 q 419 381 422 381 q 221 136 313 229 q 115 44 168 82 q 32 -4 61 7 q -45 -17 -19 -21 q -81 1 -71 -12 q -90 46 -90 17 q -76 104 -90 72 q -74 107 -75 106 q -72 108 -74 108 q -69 107 -72 108 q -62 105 -65 106 q -51 105 -58 104 q -36 107 -44 106 q 69 157 7 114 q 285 356 163 219 q 233 340 254 347 q 128 301 168 321 q 79 297 94 286 q 56 324 71 304 q 35 361 42 344 q 36 365 35 364 q 154 407 110 396 q 357 439 242 431 q 554 699 463 565 q 697 921 646 833 q 708 940 703 932 q 710 942 710 940 q 711 944 711 944 q 728 956 718 956 q 739 958 733 957 q 763 955 746 958 q 800 942 779 951 q 835 922 821 933 q 836 917 838 919 q 776 781 814 885 m 339 425 q 306 422 336 426 q 275 414 276 418 q 296 417 293 415 q 317 420 297 418 q 339 425 338 422 m 321 311 q 297 283 300 286 q 246 224 250 239 q 265 243 250 228 q 299 279 281 258 q 322 311 317 300 l 321 311 m 315 390 q 317 392 317 390 q 318 393 318 393 q 315 393 318 393 l 311 392 q 297 390 307 392 q 278 387 288 389 q 268 383 269 385 q 315 390 290 385 m 268 396 q 295 401 271 397 q 322 407 319 406 q 281 401 318 408 q 242 392 244 394 q 254 394 243 392 q 268 396 265 396 m 269 415 q 261 415 268 417 q 247 412 254 414 q 238 408 239 410 q 249 410 247 408 q 259 411 250 410 q 269 415 268 413 m 238 363 q 246 364 239 363 q 261 367 253 365 q 281 370 269 368 q 301 374 292 372 l 303 375 l 306 379 q 304 379 304 379 q 285 375 301 378 q 255 369 269 372 q 238 363 240 365 m 306 353 q 266 310 300 349 q 232 267 232 272 q 258 293 256 289 q 272 309 260 296 q 294 335 283 322 q 306 353 306 349 m 200 235 q 213 247 201 236 q 224 263 225 258 q 213 254 222 263 q 196 236 204 246 q 186 224 188 226 q 200 235 199 232 m 215 168 q 276 228 226 175 q 339 304 326 281 q 327 292 336 301 q 310 273 318 282 q 299 261 301 264 q 256 215 294 254 q 215 168 218 175 m 714 674 q 710 660 714 672 q 710 644 707 647 q 717 664 711 646 q 721 686 722 682 l 714 674 m 704 639 q 696 613 696 617 q 689 584 696 610 q 685 554 682 558 q 698 597 688 557 q 704 639 708 636 m 590 449 q 647 744 610 589 q 463 442 558 582 q 589 433 528 442 q 590 440 589 435 q 590 449 590 446 m 632 579 q 644 622 644 617 q 656 668 644 626 q 667 717 668 710 q 647 651 661 703 q 632 579 632 600 m 658 607 q 672 667 675 653 q 658 626 668 658 q 650 579 649 593 q 658 607 653 588 m 690 650 q 682 624 686 643 q 681 600 678 604 q 701 671 699 649 q 690 650 692 653 z "},"":{"ha":783,"x_min":-92,"x_max":964,"o":"m 960 1124 q 953 1101 964 1113 l 935 1082 q 853 997 878 1022 q 803 986 840 986 q 761 999 768 986 q 761 1011 757 1004 q 826 1114 803 1081 q 863 1132 835 1125 q 918 1139 890 1139 q 960 1124 953 1139 m 739 958 q 783 949 751 960 q 835 922 814 939 q 836 918 838 919 q 776 781 815 885 q 683 485 726 646 q 667 419 676 458 q 751 393 717 408 q 758 380 761 390 q 744 371 756 369 q 730 374 743 372 q 697 380 717 376 q 658 386 678 383 q 621 178 631 265 q 615 67 614 110 q 624 15 617 25 q 613 -3 625 4 q 594 3 601 -10 q 576 59 585 15 q 568 160 568 103 q 583 390 567 254 q 433 382 508 392 q 426 381 431 382 q 419 381 422 381 q 221 136 313 229 q 115 44 168 82 q 32 -4 61 7 q -45 -17 -19 -21 q -81 1 -71 -12 q -90 46 -90 17 q -76 104 -90 72 q -74 107 -75 106 q -72 108 -74 108 q -69 107 -72 108 q -62 105 -65 106 q -51 105 -58 104 q -36 107 -44 106 q 69 157 7 114 q 285 356 163 219 q 233 340 254 347 q 128 301 168 321 q 79 297 94 286 q 56 324 71 304 q 35 361 42 344 q 36 365 35 364 q 154 407 110 396 q 357 439 243 431 q 554 699 463 565 q 697 921 646 833 q 708 940 703 932 q 710 942 710 940 q 711 944 711 944 q 728 956 718 956 q 739 958 733 957 m 339 425 q 322 425 338 426 q 292 420 307 424 q 275 414 276 417 q 296 417 293 415 q 317 420 297 418 q 339 425 338 422 m 321 311 q 297 283 300 286 q 246 224 250 239 q 254 232 247 225 q 272 249 261 239 q 292 271 282 260 q 310 293 301 282 q 322 311 318 304 l 321 311 m 315 390 q 317 392 317 390 q 318 393 318 393 q 315 393 318 393 l 311 392 q 297 390 307 392 q 278 387 288 389 q 268 383 269 385 q 315 390 290 385 m 268 396 q 295 401 271 397 q 322 407 319 406 q 281 401 318 408 q 242 392 244 394 q 254 394 243 392 q 268 396 265 396 m 269 415 q 261 415 268 417 q 247 412 254 414 q 238 408 239 410 q 249 410 247 408 q 259 411 250 410 q 269 415 268 413 m 238 363 q 250 365 240 363 q 275 369 260 367 q 301 374 290 371 q 303 376 301 374 q 306 379 306 378 q 304 378 304 379 q 285 375 301 378 q 255 369 269 372 q 238 363 240 365 m 306 353 q 266 310 300 349 q 232 267 232 272 q 257 293 256 289 q 272 309 260 296 q 294 335 283 322 q 306 353 306 349 m 200 235 q 208 242 201 236 q 219 253 214 247 q 224 263 225 260 q 204 245 221 263 q 186 224 188 228 q 200 235 199 232 m 215 168 q 276 228 226 175 q 339 304 326 281 q 327 292 336 301 q 310 273 318 282 q 299 261 301 264 q 256 215 294 254 q 215 168 218 175 m 590 449 q 646 744 610 588 q 463 442 558 582 q 589 433 528 442 q 590 440 589 435 q 590 449 590 446 m 632 579 q 644 622 644 617 q 656 668 644 626 q 667 717 668 710 q 647 652 661 704 q 632 579 632 600 m 658 607 q 672 667 675 653 q 658 626 668 658 q 650 579 649 593 q 654 594 651 582 q 658 607 657 606 m 681 600 q 701 671 699 649 q 690 650 692 653 q 685 635 688 646 q 681 613 682 624 q 681 600 679 603 m 685 554 q 698 597 688 557 q 706 639 708 636 l 704 639 q 696 613 696 618 q 689 584 696 610 q 685 554 682 558 m 710 644 q 717 664 711 646 q 721 686 722 682 l 714 674 q 710 660 714 672 q 710 644 707 647 z "},"":{"ha":783,"x_min":-92,"x_max":932,"o":"m 928 1024 q 928 1011 932 1017 q 908 997 924 1003 q 876 992 893 992 q 846 1003 854 992 q 800 1078 842 1008 q 796 1081 799 1081 q 792 1078 793 1081 q 724 1006 746 1029 q 672 989 707 989 q 633 1007 643 989 q 636 1026 629 1017 q 722 1126 650 1046 q 747 1139 736 1139 l 838 1139 q 863 1124 854 1139 q 928 1024 904 1065 m 739 958 q 783 949 751 960 q 835 922 814 939 q 836 918 838 919 q 776 781 815 885 q 683 485 726 646 q 667 419 676 458 q 751 393 717 408 q 758 380 761 390 q 744 371 756 369 q 730 374 743 372 q 697 380 717 376 q 658 386 678 383 q 621 178 631 265 q 615 67 614 110 q 624 15 617 25 q 613 -3 625 4 q 594 3 601 -10 q 577 59 585 15 q 568 160 569 103 q 583 390 567 254 q 433 382 508 392 q 426 381 431 382 q 419 381 422 381 q 221 136 313 229 q 115 44 168 82 q 32 -4 61 7 q -45 -17 -19 -21 q -81 1 -71 -12 q -90 46 -90 17 q -76 104 -90 72 l -72 108 q -69 107 -72 108 q -62 105 -65 106 q -51 105 -58 104 q -36 107 -44 106 q 69 157 7 114 q 285 356 163 219 q 233 340 254 347 q 128 301 168 321 q 79 297 94 286 q 56 324 71 304 q 35 361 42 344 q 36 365 35 364 q 154 407 110 396 q 357 439 243 431 q 554 699 463 565 q 697 921 646 833 q 708 940 703 932 q 710 942 710 940 q 711 944 711 944 q 728 956 718 956 q 739 958 733 957 m 339 425 q 306 422 336 426 q 275 414 276 418 q 296 417 293 415 q 317 420 297 418 q 339 425 338 422 m 322 311 q 297 283 306 293 q 246 224 250 239 q 285 263 254 231 q 322 311 315 294 m 317 390 q 319 393 318 393 q 315 393 318 393 l 311 392 q 303 392 308 392 q 293 390 299 392 q 283 388 288 389 q 274 385 278 386 q 268 383 269 385 q 317 390 290 385 m 268 396 q 295 401 271 397 q 322 407 319 406 q 281 401 318 408 q 242 392 244 394 q 246 392 243 392 q 252 394 249 393 q 258 395 256 394 q 264 396 261 396 q 268 396 267 396 m 269 415 q 254 414 268 417 q 238 408 240 411 q 249 410 247 408 q 260 411 250 410 q 269 415 269 413 m 238 363 q 247 364 240 363 q 261 367 253 365 q 281 370 269 368 q 301 374 293 372 q 303 376 301 374 q 307 379 306 378 q 305 379 306 379 q 304 378 304 379 q 291 376 301 378 q 270 372 281 374 q 250 367 260 369 q 238 363 240 365 m 306 353 q 266 310 300 349 q 232 267 232 272 q 258 293 256 289 q 272 309 260 296 q 295 335 285 322 q 306 353 306 349 m 200 235 q 213 247 201 236 q 224 263 225 258 q 213 254 222 263 q 196 236 204 246 q 186 224 188 226 q 200 235 199 232 m 215 168 q 247 197 221 171 q 301 255 272 222 q 339 304 331 288 q 327 292 336 301 q 310 273 318 282 q 299 261 301 264 q 256 215 294 254 q 215 168 218 175 m 590 449 q 647 744 610 589 q 463 442 558 582 q 589 433 528 442 q 590 438 589 435 q 590 444 590 442 q 590 449 590 446 m 632 579 q 644 622 644 617 q 656 668 644 626 q 667 717 668 710 q 647 652 661 704 q 632 579 632 600 m 658 607 q 672 667 675 653 q 658 626 668 658 q 650 579 649 593 q 654 594 651 582 q 658 607 657 606 m 681 600 q 701 671 699 650 q 690 650 692 653 q 683 624 688 643 q 681 600 678 604 m 685 554 q 698 597 688 557 q 706 639 708 636 q 696 613 696 618 q 689 584 696 610 q 685 554 682 558 m 710 644 q 717 664 711 646 q 721 686 722 682 l 714 674 q 710 660 714 672 q 710 644 707 647 z "},"":{"ha":783,"x_min":-92,"x_max":954,"o":"m 944 1072 q 947 1060 946 1068 q 949 1045 949 1051 q 950 1039 950 1039 q 935 1008 953 1021 q 863 988 904 988 l 856 989 q 774 1013 829 989 q 725 1029 736 1029 q 658 999 696 1029 q 642 992 650 992 q 624 1004 632 992 q 613 1026 619 1010 q 624 1061 604 1046 q 718 1103 672 1097 q 731 1103 725 1103 q 818 1079 763 1103 q 874 1063 858 1063 q 921 1081 892 1064 q 933 1085 929 1085 q 944 1072 942 1085 m 739 958 q 783 949 751 960 q 835 922 814 939 q 836 918 838 919 q 776 781 815 885 q 683 485 726 646 q 667 419 676 458 q 751 393 717 408 q 758 380 761 390 q 744 371 756 369 q 730 374 743 372 q 697 380 717 376 q 658 386 678 383 q 621 178 631 265 q 615 67 614 110 q 624 15 617 25 q 613 -3 625 4 q 594 3 601 -10 q 583 31 589 11 q 573 86 578 51 q 568 160 568 121 q 583 390 567 254 q 433 382 508 392 q 426 381 431 382 q 419 381 422 381 q 221 136 313 229 q 115 44 168 82 q 32 -4 61 7 q -45 -17 -19 -21 q -81 1 -71 -12 q -90 46 -90 17 q -76 104 -90 72 q -74 107 -75 106 q -72 108 -74 108 q -69 107 -72 108 q -62 105 -65 106 q -51 105 -58 104 q -36 107 -44 106 q 69 157 7 114 q 285 356 163 219 q 233 340 254 347 q 128 301 168 321 q 79 297 94 286 q 56 324 71 304 q 35 361 42 344 q 36 365 35 364 q 154 407 110 396 q 357 439 243 431 q 554 699 463 565 q 697 921 646 833 q 708 940 703 932 q 710 943 710 940 q 711 944 711 944 q 728 956 718 956 q 739 958 733 957 m 339 425 q 306 422 336 426 q 275 414 276 418 q 296 417 293 415 q 317 420 297 418 q 339 425 338 422 m 321 311 q 297 283 300 286 q 246 224 250 239 q 285 263 254 231 q 322 311 315 294 l 321 311 m 315 390 q 317 392 317 390 q 319 393 318 393 q 315 393 318 393 l 311 392 q 297 390 307 392 q 278 387 288 389 q 268 383 269 385 q 315 390 290 385 m 268 396 q 295 401 271 397 q 322 407 319 406 q 281 401 318 408 q 242 392 244 394 q 254 394 243 392 q 268 396 265 396 m 269 415 q 254 414 268 417 q 238 408 240 411 q 249 410 247 408 q 259 411 250 410 q 269 415 268 413 m 238 363 q 246 364 239 363 q 261 367 253 365 q 281 370 269 368 q 301 374 293 372 q 303 376 301 374 q 306 379 306 378 q 304 378 304 379 q 285 375 301 378 q 255 369 269 372 q 238 363 240 365 m 306 353 q 285 331 303 350 q 249 291 267 311 q 232 267 232 271 q 258 293 256 289 q 265 301 260 294 q 277 315 271 307 q 290 330 283 322 q 301 344 296 338 q 306 353 306 350 m 200 235 q 213 247 201 236 q 224 263 225 258 q 213 254 222 263 q 196 236 204 246 q 186 224 188 226 q 200 235 199 232 m 215 168 q 276 228 226 175 q 339 304 326 281 q 327 292 336 301 q 310 273 318 282 q 299 261 301 264 q 256 215 294 254 q 215 168 218 175 m 590 449 q 647 744 610 589 q 463 442 558 582 q 589 433 528 442 q 590 440 589 435 q 590 449 590 446 m 632 579 q 644 622 644 617 q 656 668 644 626 q 667 717 668 710 q 647 652 661 704 q 632 579 632 600 m 658 607 q 672 667 675 653 q 658 626 668 658 q 650 579 649 593 q 653 588 651 582 q 656 599 654 593 q 658 607 657 604 m 681 600 q 701 671 699 649 q 690 650 692 653 q 682 624 686 643 q 681 600 678 604 m 685 554 q 698 597 688 557 q 706 639 708 636 q 696 613 696 618 q 689 584 696 610 q 685 554 682 558 m 710 644 q 717 664 711 646 q 721 686 722 682 l 714 674 q 712 665 714 672 q 708 653 710 658 q 710 644 707 649 z "},"":{"ha":783,"x_min":-92,"x_max":921,"o":"m 735 1002 q 726 994 735 1002 q 694 986 717 986 q 657 1001 671 986 q 647 1042 643 1018 q 671 1081 651 1064 q 713 1097 690 1097 q 749 1081 736 1097 q 758 1040 763 1064 q 735 1002 754 1018 m 907 1081 q 917 1040 921 1064 q 908 1019 914 1029 q 893 1002 901 1010 q 874 990 885 994 q 851 986 863 986 q 814 1001 828 986 q 804 1042 800 1018 q 828 1081 808 1064 q 870 1097 847 1097 q 907 1081 893 1097 m 739 958 q 763 955 746 958 q 800 942 779 951 q 835 922 821 933 q 836 918 838 919 q 776 781 815 885 q 683 485 726 646 q 667 419 676 458 q 751 393 717 408 q 758 380 761 390 q 744 371 756 369 q 730 374 743 372 q 697 380 717 376 q 658 386 678 383 q 621 178 631 265 q 615 67 614 110 q 624 15 617 25 q 613 -3 625 4 q 594 3 601 -10 q 577 59 585 15 q 568 160 569 103 q 583 390 567 254 q 433 382 508 392 q 426 381 431 382 q 419 381 422 381 q 221 136 313 229 q 115 44 168 82 q 32 -4 61 7 q -45 -17 -19 -21 q -81 1 -71 -12 q -90 46 -90 17 q -76 104 -90 72 q -74 107 -75 106 q -72 108 -74 108 q -69 107 -72 108 q -62 105 -65 106 q -51 105 -58 104 q -36 107 -44 106 q 69 157 7 114 q 285 356 163 219 q 233 340 254 347 q 128 301 168 321 q 79 297 94 286 q 56 324 71 304 q 35 361 42 344 q 36 365 35 364 q 154 407 110 396 q 357 439 243 431 q 554 699 463 565 q 697 921 646 833 q 708 940 703 932 q 710 942 710 940 q 711 944 711 944 q 728 956 718 956 q 739 958 733 957 m 339 425 q 306 422 336 426 q 275 414 276 418 q 296 417 293 415 q 317 420 297 418 q 339 425 338 422 m 321 311 q 297 283 300 286 q 246 224 250 239 q 285 263 254 231 q 322 311 315 294 l 321 311 m 317 390 q 317 392 317 390 q 319 393 318 393 q 315 393 318 393 l 311 392 q 297 390 307 392 q 278 387 288 389 q 268 383 269 385 q 317 390 290 385 m 268 396 q 295 401 271 397 q 322 407 319 406 q 281 401 318 408 q 242 392 244 394 q 246 392 243 392 q 252 394 249 393 q 258 395 256 394 q 264 396 261 396 q 268 396 267 396 m 269 415 q 261 415 268 417 q 247 412 254 414 q 238 408 239 410 q 249 410 247 408 q 259 411 250 410 q 269 415 268 413 m 238 363 q 250 365 240 363 q 275 369 260 367 q 301 374 290 371 l 303 375 l 307 379 q 305 379 306 379 q 304 378 304 379 q 285 375 301 378 q 255 369 269 372 q 238 363 240 365 m 306 353 q 266 310 300 349 q 232 267 232 272 q 258 293 256 289 q 267 304 260 296 q 283 322 275 313 q 299 340 292 331 q 306 353 306 349 m 200 235 q 208 242 201 236 q 219 253 214 247 q 224 263 225 260 q 204 245 221 263 q 186 224 188 228 q 200 235 199 232 m 215 168 q 276 228 226 175 q 339 304 326 281 q 327 292 336 301 q 310 273 318 282 q 299 261 301 264 q 256 215 294 254 q 215 168 218 175 m 590 449 q 647 744 610 589 q 463 442 558 582 q 589 433 528 442 q 590 440 589 435 q 590 449 590 446 m 632 579 q 644 622 644 617 q 656 668 644 626 q 667 717 668 710 q 647 652 661 704 q 632 579 632 600 m 658 607 q 672 667 675 653 q 658 626 668 658 q 650 579 649 593 q 654 594 651 582 q 658 607 657 606 m 681 600 q 701 671 699 650 q 690 650 692 653 q 683 624 688 643 q 681 600 678 604 m 685 554 q 698 597 688 557 q 706 639 708 636 q 696 613 696 618 q 689 584 696 610 q 685 554 682 558 m 710 644 q 717 664 711 646 q 721 686 722 682 l 714 674 q 710 660 714 672 q 710 644 707 647 z "},"":{"ha":800,"x_min":-92,"x_max":921,"o":"m 892 1115 q 920 1047 919 1086 q 896 972 921 1007 q 825 929 869 938 q 834 922 831 925 q 836 918 838 919 q 776 781 815 885 q 683 485 726 646 q 667 419 676 458 q 751 394 717 408 q 758 380 761 390 q 744 371 756 369 q 730 375 743 372 q 697 381 717 378 q 658 386 678 383 q 621 178 631 265 q 615 67 614 110 q 624 15 617 25 q 613 -3 625 4 q 594 3 601 -10 q 577 59 585 15 q 568 160 569 103 q 583 390 567 254 q 433 382 508 392 q 426 381 431 382 q 419 381 422 381 q 221 136 313 229 q 115 44 168 82 q 32 -4 61 7 q -45 -17 -19 -21 q -81 1 -71 -12 q -90 46 -90 17 q -76 104 -90 72 q -74 107 -75 106 q -72 108 -74 108 q -69 107 -72 108 q -62 106 -65 106 q -51 106 -58 106 q -36 107 -44 106 q 69 157 7 114 q 285 356 163 219 q 233 342 254 347 q 128 301 168 321 q 79 299 94 286 q 56 324 71 304 q 35 361 42 344 q 36 365 35 364 q 154 407 110 396 q 357 439 243 431 q 506 632 431 526 q 625 803 582 738 q 697 921 668 869 q 708 940 703 932 q 710 942 710 940 q 711 944 711 944 q 728 956 718 956 q 736 957 732 957 q 714 1022 714 983 q 751 1108 715 1074 q 832 1140 788 1140 q 851 1139 842 1140 q 892 1115 876 1135 m 339 425 q 306 422 336 426 q 275 414 276 418 q 296 417 293 415 q 308 419 299 418 q 328 422 318 419 q 339 425 338 424 m 322 311 q 297 283 300 286 q 246 224 250 239 q 285 263 254 231 q 322 311 315 294 m 317 390 q 317 392 317 390 q 319 393 318 393 q 315 393 318 393 l 311 392 q 297 390 307 392 q 278 387 288 389 q 268 383 269 385 q 317 390 290 385 m 268 396 q 295 401 271 397 q 322 407 319 406 q 281 401 318 408 q 242 392 244 394 q 254 394 243 392 q 268 396 265 396 m 269 415 q 261 415 268 417 q 247 412 254 414 q 238 408 239 410 q 249 410 247 408 q 260 411 250 410 q 269 415 269 413 m 238 363 q 250 365 240 363 q 275 369 260 367 q 301 374 290 371 q 303 376 301 374 q 307 379 306 378 q 305 379 306 379 q 304 378 304 379 q 285 375 301 378 q 255 369 269 372 q 238 363 240 365 m 306 353 q 266 310 300 349 q 232 267 232 272 q 258 293 256 289 q 272 309 260 296 q 295 335 285 322 q 306 353 306 349 m 200 235 q 213 247 201 236 q 225 263 225 258 q 213 254 222 263 q 196 236 204 246 q 186 224 188 226 q 200 235 199 232 m 215 168 q 276 228 226 175 q 339 304 326 281 q 327 292 336 301 q 310 273 318 282 q 299 261 301 264 q 283 242 296 256 q 256 213 269 228 q 229 185 242 199 q 215 168 217 172 m 590 449 q 647 744 610 588 q 463 442 558 582 q 589 433 528 442 q 590 440 589 435 q 590 449 590 446 m 632 579 q 644 622 644 617 q 656 668 644 626 q 667 717 668 710 q 647 652 661 704 q 632 579 632 600 m 658 607 q 672 667 675 653 q 658 626 668 658 q 650 579 649 593 q 654 594 651 582 q 658 607 657 606 m 681 600 q 701 671 699 649 q 690 650 692 653 q 683 624 688 643 q 681 600 678 604 m 685 554 q 698 597 688 557 q 706 639 708 636 q 696 613 696 618 q 689 584 696 610 q 685 554 682 558 m 710 644 q 717 664 711 646 q 721 686 722 682 l 714 674 q 710 660 714 672 q 710 644 707 647 m 867 1014 q 871 1057 878 1032 q 846 1086 864 1076 q 824 1090 836 1090 q 782 1071 799 1090 q 775 996 751 1033 q 813 976 788 976 l 817 978 q 867 1014 851 979 z "},"":{"ha":1029,"x_min":-92,"x_max":1028,"o":"m 929 719 q 939 757 936 732 q 942 787 939 768 q 932 819 944 806 q 892 826 919 832 q 785 764 826 813 q 756 708 764 739 q 757 657 747 676 q 778 632 764 643 q 821 625 806 636 q 838 604 829 619 q 854 567 847 589 q 861 526 861 544 q 858 521 861 522 q 807 507 831 517 q 700 443 756 488 q 581 314 629 386 q 535 229 551 271 q 522 150 515 181 q 568 108 529 121 q 654 114 606 100 q 817 199 726 135 q 921 284 878 242 q 978 347 964 326 q 999 353 985 358 q 1006 331 1014 349 q 985 298 1000 319 q 939 242 969 276 q 871 174 908 207 q 724 68 796 106 q 622 32 665 39 q 501 49 564 19 q 450 97 468 65 q 431 163 432 128 q 449 278 426 214 q 503 388 468 332 q 433 382 456 385 q 426 381 431 382 q 419 381 422 381 q 221 136 313 229 q 115 44 168 82 q 32 -4 61 7 q -45 -17 -19 -21 q -81 1 -71 -14 q -90 46 -90 17 q -76 104 -90 72 q -74 107 -75 106 q -72 108 -74 108 q -69 107 -72 108 q -62 105 -65 106 q -51 105 -58 104 q -36 107 -44 106 q 69 157 7 114 q 285 356 163 219 q 233 340 254 347 q 128 301 168 321 q 79 297 94 286 q 56 324 71 304 q 35 361 42 343 q 36 365 35 364 q 154 407 110 396 q 357 439 243 431 q 554 699 463 564 q 697 921 646 833 q 708 939 703 932 q 710 942 710 940 q 711 944 711 944 q 728 956 718 956 q 739 958 733 957 q 778 951 750 960 q 828 926 807 942 q 896 957 864 947 q 914 960 906 961 q 917 960 915 960 q 918 961 918 961 q 940 961 928 961 q 965 956 957 960 q 992 940 983 947 q 1010 918 1001 931 q 1024 844 1026 886 q 992 746 1015 789 q 947 693 968 703 q 935 702 942 690 q 929 719 929 714 m 1006 885 q 999 897 1003 892 q 994 901 996 901 l 993 901 q 997 889 996 890 q 1001 878 999 888 q 1007 868 1003 868 q 1006 885 1008 869 m 994 906 q 992 911 996 907 q 985 919 989 915 q 978 924 981 924 q 982 915 981 915 q 985 913 983 915 q 990 907 988 910 q 994 906 993 904 m 988 879 q 985 893 988 883 q 975 906 982 903 l 978 894 q 981 885 978 892 q 988 879 985 879 m 965 872 q 963 881 965 875 q 957 885 960 886 q 958 880 957 885 q 960 871 958 875 q 965 865 963 867 q 965 869 965 867 q 965 872 965 872 m 339 425 q 306 422 336 426 q 275 414 276 418 q 296 417 293 415 q 304 419 297 418 q 318 420 311 419 q 331 422 325 421 q 339 425 338 424 m 322 407 q 281 401 318 408 q 242 392 244 394 q 254 394 243 392 q 268 396 265 396 q 295 401 271 397 q 322 407 319 406 m 322 311 q 308 296 318 307 q 297 283 297 285 q 246 224 250 239 q 265 243 250 228 q 299 279 281 258 q 322 311 317 300 m 238 363 q 246 364 239 363 q 261 367 253 365 q 281 370 269 368 q 301 374 293 372 q 303 376 301 374 q 306 379 306 378 q 304 379 304 379 q 285 375 301 378 q 255 369 269 372 q 238 363 240 365 m 306 353 q 266 310 300 349 q 232 267 232 272 q 258 293 256 289 q 272 309 260 296 q 295 335 285 322 q 306 353 306 349 m 200 235 q 213 247 201 236 q 224 263 225 258 q 213 254 222 263 q 196 236 204 246 q 186 224 188 226 q 200 235 199 232 m 215 168 q 276 228 226 175 q 339 304 326 281 q 327 292 336 301 q 310 273 318 282 q 299 261 301 264 q 256 215 294 254 q 215 168 218 175 m 460 247 q 467 265 461 253 q 478 290 472 278 q 486 306 485 303 q 519 364 492 322 q 554 417 553 414 q 503 349 531 394 q 460 247 467 290 m 564 353 q 543 331 547 335 q 525 301 536 324 q 515 272 514 278 q 564 353 517 276 m 494 283 q 506 304 496 288 q 523 336 515 321 q 532 356 531 351 q 503 311 515 335 q 479 249 482 274 q 494 283 488 271 m 532 265 q 554 315 554 314 q 536 285 538 292 q 513 217 507 226 q 515 225 513 218 q 523 244 518 232 q 532 265 528 256 m 561 321 q 577 340 564 321 q 592 365 590 360 q 579 351 579 356 q 568 338 578 351 q 561 321 558 324 m 721 608 q 724 610 722 608 q 728 613 726 611 q 719 619 721 618 q 686 694 692 649 q 708 843 682 731 q 593 646 671 774 q 463 443 515 518 q 536 438 492 442 q 540 443 538 439 q 544 449 543 447 q 721 608 626 556 m 792 794 q 807 806 794 794 q 819 821 819 818 q 808 815 810 818 q 806 812 808 814 q 801 808 803 810 q 796 803 799 806 q 792 799 793 801 q 792 794 790 797 m 793 824 q 826 851 825 849 q 811 843 813 844 q 809 840 811 842 q 805 838 807 839 q 800 834 803 836 q 796 831 797 832 q 793 824 793 825 m 824 821 q 832 824 825 819 q 839 831 839 828 q 832 831 832 832 q 827 826 832 829 q 824 821 822 824 z "},"":{"ha":461,"x_min":-31,"x_max":550,"o":"m 510 275 q 536 285 522 292 q 538 257 550 278 q 350 74 461 144 q 167 18 258 15 l 156 -8 q 177 -25 160 -8 q 208 -70 194 -42 q 206 -137 221 -99 q 108 -196 178 -196 q 81 -193 93 -196 q 21 -146 31 -182 q 28 -121 18 -133 q 47 -104 39 -108 q 61 -97 56 -100 q 87 -124 68 -111 q 124 -136 106 -136 q 143 -127 135 -136 q 150 -106 151 -118 q 81 -32 144 -67 l 104 26 q 64 43 83 32 q 27 72 44 54 q 0 110 10 89 q -26 251 -29 168 q 38 511 -22 368 q 151 721 85 625 q 262 853 206 799 q 354 933 318 908 q 474 971 433 989 q 515 924 499 958 q 534 867 531 890 q 538 828 538 844 q 506 678 542 757 q 456 593 485 633 q 403 531 426 553 q 367 503 381 508 q 353 513 360 500 q 349 531 346 525 q 361 547 353 533 q 379 582 369 561 q 399 631 389 603 q 415 688 410 660 q 421 788 428 746 q 414 814 419 801 q 329 744 369 785 q 178 558 249 668 q 74 328 108 447 q 57 203 53 251 q 193 82 65 85 q 296 107 236 81 q 444 206 368 138 q 510 275 474 233 m 508 767 q 508 760 510 767 q 510 753 507 754 q 513 762 513 753 q 513 772 514 771 l 508 767 m 503 738 q 500 725 503 738 q 500 711 497 713 q 507 730 503 713 q 507 750 511 747 q 503 738 503 738 m 488 775 q 485 759 485 761 q 483 743 486 757 q 482 728 481 729 q 488 751 485 729 q 488 775 490 772 m 467 764 q 461 728 460 733 q 463 734 463 729 q 465 739 464 739 q 468 751 467 742 q 467 764 469 761 m 449 782 q 447 772 449 782 q 443 749 444 761 q 443 731 442 736 q 449 747 449 744 q 450 758 449 749 q 451 773 451 767 q 449 782 451 779 m 65 475 q 86 518 76 500 q 101 544 89 522 q 123 585 114 567 q 133 608 132 603 q 97 548 125 599 q 65 475 68 497 m 125 499 q 154 563 156 560 q 131 524 138 539 q 119 499 131 521 q 100 459 108 478 q 93 435 92 440 q 99 445 94 436 q 111 470 103 454 q 125 499 119 486 m 200 631 q 185 613 186 617 q 173 593 185 611 q 163 571 161 575 q 169 580 164 572 q 182 598 175 588 q 194 618 189 608 q 200 631 199 628 m 133 564 q 153 599 142 579 q 172 630 165 619 q 179 643 179 640 q 146 594 157 614 q 113 533 135 575 q 90 482 92 492 q 98 496 92 483 q 114 528 104 508 q 133 564 124 547 m 44 475 q 62 510 47 482 q 79 544 76 538 q 119 617 88 564 q 161 686 160 681 q 101 597 128 642 q 44 475 58 524 z "},"":{"ha":460,"x_min":-56,"x_max":546,"o":"m 382 1075 l 369 1094 q 369 1114 364 1104 q 418 1132 381 1132 q 485 1107 475 1132 q 514 1004 496 1075 q 511 990 515 996 q 474 979 501 979 q 435 992 443 979 q 382 1075 417 1017 m 449 721 q 457 758 454 733 q 460 788 457 769 q 450 820 463 807 q 410 828 438 833 q 304 765 344 814 q 274 709 282 740 q 275 658 265 678 q 296 633 282 644 q 339 626 324 638 q 365 587 351 618 q 379 528 379 556 q 376 522 379 524 q 325 508 349 518 q 218 444 274 489 q 99 315 147 388 q 53 231 69 272 q 40 150 33 182 q 86 110 47 122 q 172 115 124 101 q 335 200 244 136 q 439 285 396 243 q 496 349 482 328 q 517 355 503 360 q 524 332 532 350 q 478 267 514 311 q 389 175 442 224 q 242 69 314 107 q 140 33 183 40 q 19 50 82 21 q -32 99 -14 67 q -51 164 -49 129 q -33 279 -56 215 q 63 450 -4 363 q 239 610 146 557 q 242 611 240 610 q 246 614 244 613 q 238 621 239 619 q 204 696 208 651 q 217 785 200 740 q 326 917 246 865 q 414 958 369 944 q 432 961 424 963 q 435 962 433 961 q 436 963 436 963 q 458 963 446 963 q 483 957 475 961 q 510 942 503 949 q 528 919 521 932 q 542 846 544 888 q 522 774 536 808 q 494 720 508 740 q 467 694 479 700 q 453 703 460 692 q 449 721 447 715 m 524 886 q 513 903 517 904 q 515 890 515 892 q 518 884 517 889 q 521 874 519 879 q 525 869 522 869 q 524 886 526 871 m 513 907 q 508 917 515 908 q 497 925 500 925 q 500 917 499 917 q 506 911 501 917 q 513 907 510 906 m 506 881 q 505 885 506 882 q 503 893 504 889 q 500 901 503 897 q 494 907 497 906 l 496 896 q 499 887 496 893 q 506 881 503 881 m 483 874 q 481 882 483 876 q 475 886 478 888 q 476 881 475 886 q 478 872 476 876 q 485 867 481 868 q 484 871 485 868 q 483 874 483 874 m -22 249 q -15 266 -19 254 q -3 291 -10 278 q 4 307 3 304 q 38 365 10 324 q 72 418 71 415 q 21 350 50 396 q -22 249 -15 292 m 83 354 q 61 332 65 336 q 44 302 56 325 q 33 274 32 279 q 83 354 35 278 m 13 285 q 20 300 14 289 q 33 322 26 311 q 44 343 39 333 q 50 357 50 353 q 21 313 35 336 q -3 250 0 275 q 13 285 6 272 m 51 267 q 72 317 72 315 q 54 286 56 292 q 31 218 25 228 q 33 226 31 219 q 41 245 36 233 q 51 267 46 257 m 79 322 q 88 332 81 322 q 101 352 94 342 q 110 367 108 363 q 97 354 97 357 q 87 339 96 353 q 79 322 78 325 m 271 842 q 281 848 272 842 q 292 857 290 854 q 313 872 293 860 q 332 890 332 885 q 301 872 326 889 q 271 842 275 854 m 286 829 q 297 839 293 836 q 321 860 319 853 q 311 856 319 860 q 295 844 303 851 q 286 831 288 836 l 286 829 m 303 819 q 344 853 344 850 q 329 844 331 846 q 322 838 329 843 q 308 827 314 832 q 303 819 303 822 m 310 796 q 326 808 313 796 q 338 822 339 819 q 326 817 328 819 q 323 813 326 815 q 317 807 319 810 q 311 801 314 804 q 310 796 308 799 m 342 822 q 350 825 343 821 q 357 832 357 829 q 350 832 351 833 q 345 828 350 831 q 342 822 340 825 z "},"":{"ha":486,"x_min":-56,"x_max":646,"o":"m 640 1117 q 635 1094 646 1106 l 617 1075 q 535 990 561 1017 q 485 979 522 979 q 443 992 450 979 q 443 1004 439 997 q 508 1107 486 1075 q 529 1120 514 1114 q 563 1129 544 1126 q 600 1132 582 1132 q 640 1117 633 1132 m 511 943 q 529 921 521 932 q 542 846 544 889 q 511 748 535 790 q 467 694 488 706 q 454 704 461 692 q 449 722 447 717 q 458 758 454 735 q 460 789 457 771 q 451 821 464 807 q 410 829 438 835 q 304 767 344 815 q 274 710 282 740 q 276 660 265 679 q 296 633 282 644 q 340 626 324 639 q 353 613 346 624 q 366 589 360 603 q 376 559 372 575 q 381 528 381 543 q 376 524 381 524 q 325 508 350 518 q 219 444 274 489 q 99 315 149 388 q 53 232 69 272 q 42 151 35 183 q 86 111 47 122 q 172 115 125 103 q 336 201 246 136 q 439 287 396 244 q 496 350 482 329 q 518 356 504 361 q 524 332 532 351 q 478 268 514 313 q 390 176 443 224 q 242 69 314 108 q 142 35 185 40 q 21 50 82 21 q -31 100 -14 68 q -51 165 -49 131 q -33 281 -54 215 q 63 450 -3 364 q 239 610 146 557 q 243 613 240 611 q 246 614 246 614 q 238 621 239 619 q 204 696 208 653 q 217 786 200 742 q 326 918 246 867 q 414 960 369 946 q 433 963 425 963 q 435 963 433 963 q 436 963 436 963 q 460 963 446 964 q 485 957 475 961 q 511 943 503 950 m -21 250 q -14 267 -19 256 q -3 292 -8 279 q 4 307 3 304 q 38 365 10 325 q 72 419 71 415 q 21 350 50 396 q -7 296 6 325 q -21 250 -19 267 m 83 356 q 63 332 65 336 q 44 303 56 325 q 35 275 33 281 q 83 356 35 278 m 13 285 q 24 307 15 290 q 42 338 33 324 q 50 357 50 353 q 21 313 35 336 q -1 250 0 275 q 13 285 6 272 m 51 268 q 72 317 74 315 q 54 288 56 293 q 31 219 26 228 q 34 226 32 219 q 41 246 36 233 q 51 268 46 258 m 79 322 q 95 343 82 324 q 110 367 108 363 q 97 354 99 357 q 88 340 97 353 q 79 322 78 326 m 272 842 q 281 849 272 843 q 292 857 290 856 q 313 874 293 861 q 332 890 332 886 q 301 872 326 890 q 272 842 276 854 m 286 831 q 297 840 293 838 q 321 861 321 853 q 312 856 319 861 q 296 844 304 851 q 286 831 288 836 m 304 821 q 344 853 344 850 q 331 844 332 847 q 322 839 329 844 q 310 828 315 833 q 304 821 304 822 m 310 797 q 326 808 313 797 q 338 824 339 819 q 326 817 328 819 q 322 813 326 817 q 313 804 317 808 q 310 797 308 800 m 342 822 q 350 826 343 822 q 357 833 357 831 q 351 832 351 833 q 345 829 350 832 q 342 822 340 826 m 485 867 q 483 875 485 868 q 481 883 483 878 q 475 886 479 888 q 476 882 475 886 q 479 874 478 878 q 485 867 481 869 m 496 897 q 500 888 497 893 q 507 882 503 882 q 503 895 507 885 q 494 907 500 906 l 496 897 m 501 918 q 506 913 501 918 q 514 907 510 907 q 508 918 515 910 q 497 925 500 926 q 501 918 500 918 m 525 869 q 524 888 528 872 q 513 904 517 906 q 515 892 515 892 q 520 881 518 890 q 525 869 522 871 z "},"":{"ha":485,"x_min":-56,"x_max":600,"o":"m 596 1013 q 596 1001 600 1007 q 576 987 592 993 q 546 981 561 981 q 514 993 524 981 q 468 1068 511 997 q 464 1069 467 1069 q 460 1068 461 1069 q 392 994 417 1021 q 340 979 375 979 q 301 997 311 979 q 304 1017 297 1006 q 392 1115 318 1035 q 415 1129 404 1129 l 506 1129 q 531 1114 522 1129 q 596 1013 572 1056 m 510 942 q 528 919 521 932 q 542 846 544 888 q 522 774 536 808 q 494 720 508 740 q 467 694 479 700 q 453 703 460 692 q 447 721 447 715 q 457 758 454 733 q 460 788 457 769 q 450 820 463 807 q 410 828 438 833 q 304 765 344 814 q 274 709 282 740 q 275 658 265 678 q 296 633 282 644 q 339 626 324 638 q 356 606 347 621 q 372 568 365 590 q 379 528 379 546 q 376 522 379 524 q 325 508 349 518 q 218 444 274 489 q 99 315 147 388 q 53 231 69 272 q 40 150 33 182 q 86 110 47 122 q 172 115 124 101 q 335 200 244 136 q 439 285 396 243 q 496 349 482 328 q 517 355 503 360 q 524 332 532 350 q 478 268 514 313 q 389 175 442 224 q 242 69 314 107 q 140 33 183 40 q 19 50 82 21 q -32 99 -14 67 q -51 164 -49 129 q -33 279 -56 215 q 63 450 -4 363 q 239 610 146 557 q 242 611 240 610 q 246 614 244 613 q 238 621 239 619 q 204 696 208 651 q 217 785 200 740 q 326 917 246 865 q 414 958 369 944 q 432 961 424 963 q 435 962 433 961 q 436 963 436 963 q 458 963 446 963 q 483 957 475 961 q 510 942 503 949 m -22 249 q -15 266 -19 254 q -3 291 -10 278 q 4 307 3 304 q 38 365 10 324 q 72 418 71 415 q 21 350 50 396 q -7 296 6 325 q -22 249 -19 267 m 83 354 q 61 332 65 336 q 44 302 56 325 q 33 274 32 279 q 83 354 35 278 m 13 285 q 24 306 15 289 q 41 338 33 322 q 50 357 49 353 q 21 313 35 336 q -3 250 0 275 q 13 285 6 272 m 51 267 q 72 317 72 315 q 54 286 56 292 q 31 218 25 228 q 33 226 31 219 q 41 245 36 233 q 51 267 46 257 m 79 322 q 95 342 82 322 q 110 367 108 361 q 97 353 97 357 q 87 339 96 353 q 79 322 78 325 m 271 842 q 281 848 272 842 q 292 857 290 854 q 313 872 293 860 q 332 890 332 885 q 301 872 326 889 q 271 842 275 854 m 286 829 q 297 839 293 836 q 321 860 319 853 q 311 856 319 860 q 295 844 303 851 q 286 831 288 836 l 286 829 m 303 819 q 344 853 344 850 q 329 844 331 846 q 322 838 329 843 q 308 827 314 832 q 303 819 303 822 m 310 796 q 326 808 313 796 q 338 822 339 819 q 326 817 328 819 q 322 811 326 815 q 313 803 317 807 q 310 796 308 799 m 342 822 q 350 825 343 821 q 357 832 357 829 q 350 832 351 833 q 345 828 350 831 q 342 822 340 825 m 485 867 q 483 874 485 867 q 481 882 483 876 q 475 886 478 888 q 476 881 475 886 q 478 872 476 876 q 485 867 481 868 m 496 896 q 499 887 496 893 q 506 881 503 881 q 505 885 506 882 q 503 893 504 889 q 500 901 503 897 q 494 907 497 906 l 496 896 m 500 917 q 506 911 501 917 q 513 907 510 906 q 510 913 514 908 q 503 921 507 917 q 497 925 499 925 q 500 917 499 917 m 525 869 q 524 886 526 871 q 513 903 517 904 q 515 890 515 892 q 519 879 518 889 q 525 869 521 869 z "},"":{"ha":485,"x_min":-56,"x_max":615,"o":"m 429 995 q 419 987 429 995 q 387 979 410 979 q 350 994 364 979 q 340 1035 336 1011 q 353 1063 343 1050 q 377 1083 363 1075 q 407 1090 392 1090 q 443 1074 429 1090 q 453 1035 457 1057 q 429 995 449 1011 m 600 1074 q 610 1035 614 1057 q 597 1006 607 1019 q 574 986 588 993 q 544 979 560 979 q 508 994 522 979 q 499 1035 494 1011 q 511 1063 501 1050 q 535 1083 521 1075 q 564 1090 549 1090 q 600 1074 586 1090 m 511 943 q 529 921 521 932 q 542 846 544 889 q 523 774 536 808 q 494 721 510 740 q 467 694 479 701 q 454 704 461 692 q 449 722 447 717 q 458 758 454 735 q 460 789 457 771 q 451 821 464 807 q 410 829 438 835 q 304 767 344 815 q 274 710 282 740 q 276 660 265 679 q 296 633 282 644 q 340 626 324 639 q 350 617 344 624 q 360 599 356 610 q 370 577 365 589 q 378 553 375 565 q 381 528 381 540 q 376 524 381 524 q 325 508 350 518 q 219 444 274 489 q 99 315 149 388 q 53 232 69 272 q 42 151 35 183 q 86 111 47 122 q 172 115 125 103 q 336 201 246 136 q 439 287 396 244 q 496 350 482 329 q 518 356 504 361 q 524 332 532 351 q 478 268 514 313 q 390 176 443 224 q 242 69 314 108 q 142 35 185 40 q 21 50 82 21 q -31 100 -14 68 q -51 165 -49 131 q -33 281 -54 215 q 63 450 -3 364 q 239 610 146 557 q 243 613 240 611 q 246 614 246 614 q 238 621 239 619 q 204 696 208 653 q 217 786 200 742 q 326 918 246 867 q 414 960 369 946 q 433 963 425 963 q 435 963 433 963 q 436 963 436 963 q 460 963 446 964 q 485 957 475 961 q 511 943 503 950 m -21 250 q -14 267 -19 256 q -3 292 -8 279 q 4 307 3 304 q 38 365 10 325 q 72 419 71 415 q 21 350 50 396 q -21 250 -15 293 m 83 356 q 63 332 65 336 q 44 303 56 325 q 35 275 33 281 q 83 356 35 278 m 13 285 q 22 301 15 289 q 33 323 28 313 q 44 344 39 333 q 50 357 50 354 q 21 313 35 336 q -1 250 0 275 q 13 285 6 272 m 51 268 q 72 317 74 315 q 54 288 56 293 q 31 219 26 228 q 32 222 31 219 q 35 231 33 225 q 40 242 38 236 q 45 254 42 247 q 51 268 49 261 m 79 322 q 95 343 82 324 q 110 367 108 363 q 97 354 97 357 q 91 346 96 353 q 82 332 86 339 q 79 322 78 325 m 272 842 q 278 847 274 843 q 286 853 282 850 q 292 857 290 856 q 313 874 293 861 q 332 890 332 886 q 316 883 329 890 q 289 863 303 875 q 272 842 275 850 m 286 831 q 297 840 294 838 q 321 861 321 853 q 312 856 319 861 q 296 844 304 851 q 286 831 288 836 m 304 821 q 344 853 344 851 q 331 844 332 847 q 322 839 329 844 q 310 828 315 833 q 304 821 304 822 m 310 797 q 326 808 313 797 q 338 824 339 819 q 326 817 328 819 q 322 813 326 817 q 313 804 317 808 q 310 797 308 800 m 342 822 q 350 826 343 822 q 357 833 357 831 q 351 832 351 833 q 345 829 350 832 q 342 822 340 826 m 485 867 q 483 875 485 868 q 481 883 483 878 q 475 886 479 888 q 476 883 475 886 q 477 878 476 881 q 480 872 478 875 q 485 867 482 868 m 496 897 q 499 888 496 893 q 507 882 503 882 q 503 895 507 885 q 494 907 500 906 l 496 897 m 501 918 q 506 913 501 918 q 514 907 510 907 q 508 918 515 910 q 497 925 500 926 q 501 918 500 918 m 525 869 q 524 888 528 872 q 513 904 517 906 q 515 892 515 892 q 520 881 518 890 q 525 869 522 871 z "}}}
